{"glyphs":{"0":{"ha":1075,"x_min":49,"x_max":1026,"o":"m 538 -21 q 280 46 390 -21 q 109 235 169 113 q 49 519 49 357 l 49 519 q 109 802 49 681 q 280 990 169 924 q 538 1056 390 1056 l 538 1056 q 795 990 685 1056 q 966 802 906 924 q 1026 519 1026 681 l 1026 519 q 966 235 1026 357 q 795 46 906 113 q 538 -21 685 -21 l 538 -21 z m 621 42 q 803 165 738 63 q 868 424 868 267 l 868 424 q 854 575 868 500 l 854 575 q 781 801 832 706 q 659 947 731 896 q 503 997 588 997 l 503 997 q 454 993 479 997 l 454 993 q 271 871 336 972 q 206 611 206 769 l 206 611 q 219 464 206 538 l 219 464 q 294 236 243 332 q 416 89 344 140 q 572 38 488 38 l 572 38 q 621 42 596 38 l 621 42 z "},"1":{"ha":822,"x_min":33,"x_max":794,"o":"m 42 29 q 252 67 185 44 q 340 120 319 89 q 363 211 361 151 l 363 211 l 374 744 l 43 651 l 33 683 q 296 857 192 771 q 482 1056 400 943 l 482 1056 l 514 1043 l 507 982 q 497 875 504 960 q 489 724 489 790 l 489 724 l 489 211 q 508 121 489 153 q 592 67 528 89 q 794 29 657 46 l 794 29 l 789 -10 l 701 -7 q 426 0 468 0 l 426 0 q 214 -6 364 0 l 214 -6 l 47 -10 l 42 29 z "},"2":{"ha":932,"x_min":28,"x_max":890,"o":"m 43 0 l 28 31 l 375 363 q 575 597 518 500 q 632 775 632 693 l 632 775 q 580 906 632 857 q 429 956 528 956 l 429 956 q 228 881 315 956 q 106 679 140 806 l 106 679 l 72 686 q 138 881 86 797 q 275 1010 190 964 q 467 1056 360 1056 l 467 1056 q 639 1022 564 1056 q 756 926 714 988 q 799 789 799 865 l 799 789 q 717 558 799 675 q 456 292 636 440 l 456 292 l 186 69 l 413 74 q 623 99 542 76 q 754 193 704 122 q 811 401 804 264 l 811 401 l 847 400 q 890 24 851 171 l 890 24 l 868 0 l 43 0 z "},"3":{"ha":928,"x_min":42,"x_max":858,"o":"m 467 -21 q 263 24 351 -21 q 119 135 174 68 q 42 268 64 201 l 42 268 l 69 283 q 217 146 118 204 q 433 88 315 88 l 433 88 q 633 151 558 88 q 707 321 707 214 l 707 321 q 640 467 707 413 q 461 522 572 522 l 461 522 q 363 515 403 522 q 271 494 322 508 l 271 494 l 260 532 q 568 699 474 617 q 663 850 663 781 l 663 850 q 617 957 663 915 q 488 999 572 999 l 488 999 q 298 919 375 999 q 174 668 221 839 l 174 668 l 139 672 q 94 1014 144 817 l 94 1014 l 114 1028 q 192 1007 150 1007 l 192 1007 q 258 1016 222 1007 q 299 1026 293 1025 l 299 1026 q 391 1048 350 1040 q 481 1056 432 1056 l 481 1056 q 643 1028 568 1056 q 763 955 718 1001 q 807 851 807 908 l 807 851 q 744 719 807 778 q 542 601 681 660 l 542 601 l 543 597 q 714 551 643 590 q 822 453 785 513 q 858 325 858 393 l 858 325 q 808 147 858 225 q 668 24 757 68 q 467 -21 579 -21 l 467 -21 z "},"4":{"ha":968,"x_min":14,"x_max":954,"o":"m 29 332 l 14 363 l 606 1056 l 647 1042 l 647 426 l 938 447 l 938 332 l 647 332 l 647 211 q 667 122 647 153 q 752 69 688 92 q 954 29 817 47 l 954 29 l 949 -10 l 861 -7 q 586 0 628 0 l 586 0 q 374 -6 524 0 l 374 -6 l 207 -10 l 201 29 q 413 69 346 47 q 501 122 481 90 q 522 211 522 153 l 522 211 l 522 332 l 29 332 z m 126 390 l 522 418 l 522 853 l 126 390 z "},"5":{"ha":942,"x_min":63,"x_max":879,"o":"m 488 -21 q 283 24 372 -21 q 140 135 194 68 q 63 268 85 201 l 63 268 l 90 283 q 238 146 139 204 q 454 88 336 88 l 454 88 q 653 151 579 88 q 728 321 728 214 l 728 321 q 648 486 728 435 q 439 538 568 538 l 439 538 q 283 522 364 538 q 129 481 201 507 l 129 481 l 183 1021 l 413 1021 q 647 1024 568 1021 q 794 1042 725 1028 l 794 1042 l 814 1028 q 796 865 796 956 l 796 865 q 811 686 796 778 l 811 686 l 776 682 q 693 864 743 803 q 576 945 643 925 q 403 965 508 965 l 403 965 l 303 965 l 263 574 q 492 611 375 611 l 492 611 q 684 581 596 611 q 826 485 772 550 q 879 325 879 421 l 879 325 q 828 147 879 225 q 689 24 778 68 q 488 -21 600 -21 l 488 -21 z "},"6":{"ha":915,"x_min":69,"x_max":874,"o":"m 238 428 q 277 211 238 297 q 378 84 317 125 q 504 43 439 43 l 504 43 q 653 116 599 43 q 707 313 707 189 l 707 313 q 704 367 707 331 l 704 367 q 661 508 697 450 q 572 594 625 565 q 457 624 518 624 l 457 624 q 347 599 404 624 q 243 525 290 575 l 243 525 q 238 428 238 485 l 238 428 z m 69 439 q 237 867 69 708 q 700 1056 404 1026 l 700 1056 l 707 1022 q 419 892 540 992 q 257 610 297 792 l 257 610 q 366 671 306 651 q 489 690 426 690 l 489 690 q 675 644 586 690 q 819 515 764 597 q 874 333 874 433 l 874 333 q 820 156 874 238 q 675 27 767 75 q 476 -21 583 -21 l 476 -21 q 271 30 363 -21 q 124 184 179 81 q 69 439 69 288 l 69 439 z "},"7":{"ha":836,"x_min":28,"x_max":808,"o":"m 793 1035 l 808 1004 l 660 788 q 540 553 578 668 q 494 321 503 438 q 485 0 485 204 l 485 0 l 294 0 q 398 449 321 260 q 613 832 475 638 l 613 832 l 679 926 l 410 926 q 250 909 311 926 q 151 835 189 892 q 107 664 114 778 l 107 664 l 71 665 q 28 1011 67 864 l 28 1011 l 50 1035 l 793 1035 z "},"8":{"ha":919,"x_min":83,"x_max":836,"o":"m 83 236 q 142 407 83 344 q 321 507 200 469 l 321 507 q 126 794 126 617 l 126 794 q 168 932 126 872 q 285 1024 210 992 q 461 1056 361 1056 l 461 1056 q 639 1024 563 1056 q 757 937 715 993 q 799 804 799 881 l 799 804 q 576 538 799 617 l 576 538 q 729 450 674 492 q 810 361 785 408 q 836 250 836 314 l 836 250 q 792 108 836 169 q 666 13 747 46 q 476 -21 585 -21 l 476 -21 q 269 11 358 -21 q 132 101 181 43 q 83 236 83 158 l 83 236 z m 221 236 q 290 90 221 144 q 475 35 360 35 l 475 35 q 641 78 579 35 q 703 194 703 121 l 703 194 q 630 335 703 268 q 406 465 557 401 l 406 465 l 371 481 q 258 365 294 425 q 221 236 221 306 l 221 236 z m 258 828 q 506 571 258 681 l 506 571 l 532 558 q 629 664 597 604 q 661 801 661 724 l 661 801 q 606 946 661 892 q 460 1000 551 1000 l 460 1000 q 313 953 368 1000 q 258 828 258 906 l 258 828 z "},"9":{"ha":929,"x_min":56,"x_max":860,"o":"m 692 607 q 653 835 692 749 q 557 956 615 921 q 432 992 499 992 l 432 992 q 401 990 411 992 l 401 990 q 269 909 317 981 q 222 722 222 838 l 222 722 q 225 668 222 704 l 225 668 q 268 527 232 585 q 358 440 304 469 q 472 411 411 411 l 472 411 q 582 435 525 411 q 686 510 639 460 l 686 510 q 692 607 692 550 l 692 607 z m 56 701 q 109 878 56 797 q 254 1008 163 960 q 453 1056 346 1056 l 453 1056 q 658 1005 567 1056 q 805 851 750 954 q 860 596 860 747 l 860 596 q 692 167 860 326 q 229 -21 525 8 l 229 -21 l 222 13 q 510 143 389 43 q 672 425 632 243 l 672 425 q 563 364 624 383 q 440 344 503 344 l 440 344 q 254 391 343 344 q 110 519 165 438 q 56 701 56 601 l 56 701 z "}," ":{"ha":417,"x_min":null,"x_max":null,"o":""}," ":{"ha":417,"x_min":null,"x_max":null,"o":""},"A":{"ha":1001,"x_min":28,"x_max":988,"o":"m 67 929 q 224 1017 143 988 q 407 1046 306 1046 l 407 1046 q 703 907 608 1046 l 703 907 q 906 982 814 957 l 906 982 l 931 951 q 817 836 853 901 q 782 656 782 771 l 782 656 q 794 493 782 588 l 794 493 q 868 216 815 344 q 988 36 921 88 l 988 36 l 969 0 l 747 0 q 732 161 742 76 q 697 417 722 246 l 697 417 q 565 172 650 269 q 383 28 479 74 q 200 -18 286 -18 l 200 -18 q 85 13 128 -18 l 85 13 q 43 72 58 33 q 28 163 28 110 l 28 163 q 82 372 28 257 q 251 604 136 488 l 251 604 q 406 733 319 669 q 586 849 493 797 l 586 849 q 351 961 501 961 l 351 961 q 86 890 232 961 l 86 890 l 67 929 z m 208 129 q 276 110 236 110 l 276 110 q 421 159 343 110 q 558 288 499 208 l 558 288 q 642 426 613 358 q 671 575 671 494 l 671 575 q 667 633 671 603 l 667 633 q 615 803 653 733 l 615 803 q 308 567 421 686 l 308 567 q 206 406 244 500 q 167 236 167 313 l 167 236 q 208 129 167 158 l 208 129 z "},"Á":{"ha":1001,"x_min":28,"x_max":988,"o":"m 67 929 q 224 1017 143 988 q 407 1046 306 1046 l 407 1046 q 703 907 608 1046 l 703 907 q 906 982 814 957 l 906 982 l 931 951 q 817 836 853 901 q 782 656 782 771 l 782 656 q 794 493 782 588 l 794 493 q 868 216 815 344 q 988 36 921 88 l 988 36 l 969 0 l 747 0 q 732 161 742 76 q 697 417 722 246 l 697 417 q 565 172 650 269 q 383 28 479 74 q 200 -18 286 -18 l 200 -18 q 85 13 128 -18 l 85 13 q 43 72 58 33 q 28 163 28 110 l 28 163 q 82 372 28 257 q 251 604 136 488 l 251 604 q 406 733 319 669 q 586 849 493 797 l 586 849 q 351 961 501 961 l 351 961 q 86 890 232 961 l 86 890 l 67 929 z m 208 129 q 276 110 236 110 l 276 110 q 421 159 343 110 q 558 288 499 208 l 558 288 q 642 426 613 358 q 671 575 671 494 l 671 575 q 667 633 671 603 l 667 633 q 615 803 653 733 l 615 803 q 308 567 421 686 l 308 567 q 206 406 244 500 q 167 236 167 313 l 167 236 q 208 129 167 158 l 208 129 z m 444 1107 l 556 1306 l 706 1306 l 715 1288 l 472 1088 l 444 1107 z "},"Ă":{"ha":1001,"x_min":28,"x_max":988,"o":"m 67 929 q 224 1017 143 988 q 407 1046 306 1046 l 407 1046 q 703 907 608 1046 l 703 907 q 906 982 814 957 l 906 982 l 931 951 q 817 836 853 901 q 782 656 782 771 l 782 656 q 794 493 782 588 l 794 493 q 868 216 815 344 q 988 36 921 88 l 988 36 l 969 0 l 747 0 q 732 161 742 76 q 697 417 722 246 l 697 417 q 565 172 650 269 q 383 28 479 74 q 200 -18 286 -18 l 200 -18 q 85 13 128 -18 l 85 13 q 43 72 58 33 q 28 163 28 110 l 28 163 q 82 372 28 257 q 251 604 136 488 l 251 604 q 406 733 319 669 q 586 849 493 797 l 586 849 q 351 961 501 961 l 351 961 q 86 890 232 961 l 86 890 l 67 929 z m 208 129 q 276 110 236 110 l 276 110 q 421 159 343 110 q 558 288 499 208 l 558 288 q 642 426 613 358 q 671 575 671 494 l 671 575 q 667 633 671 603 l 667 633 q 615 803 653 733 l 615 803 q 308 567 421 686 l 308 567 q 206 406 244 500 q 167 236 167 313 l 167 236 q 208 129 167 158 l 208 129 z m 374 1326 q 436 1258 390 1282 q 538 1233 482 1233 l 538 1233 q 637 1258 590 1233 q 703 1326 683 1282 l 703 1326 l 738 1326 q 676 1185 729 1242 q 539 1128 624 1128 l 539 1128 q 400 1185 453 1128 q 339 1326 347 1242 l 339 1326 l 374 1326 z "},"Ǎ":{"ha":1001,"x_min":28,"x_max":988,"o":"m 67 929 q 224 1017 143 988 q 407 1046 306 1046 l 407 1046 q 703 907 608 1046 l 703 907 q 906 982 814 957 l 906 982 l 931 951 q 817 836 853 901 q 782 656 782 771 l 782 656 q 794 493 782 588 l 794 493 q 868 216 815 344 q 988 36 921 88 l 988 36 l 969 0 l 747 0 q 732 161 742 76 q 697 417 722 246 l 697 417 q 565 172 650 269 q 383 28 479 74 q 200 -18 286 -18 l 200 -18 q 85 13 128 -18 l 85 13 q 43 72 58 33 q 28 163 28 110 l 28 163 q 82 372 28 257 q 251 604 136 488 l 251 604 q 406 733 319 669 q 586 849 493 797 l 586 849 q 351 961 501 961 l 351 961 q 86 890 232 961 l 86 890 l 67 929 z m 208 129 q 276 110 236 110 l 276 110 q 421 159 343 110 q 558 288 499 208 l 558 288 q 642 426 613 358 q 671 575 671 494 l 671 575 q 667 633 671 603 l 667 633 q 615 803 653 733 l 615 803 q 308 567 421 686 l 308 567 q 206 406 244 500 q 167 236 167 313 l 167 236 q 208 129 167 158 l 208 129 z m 304 1297 l 319 1319 l 536 1226 l 753 1319 l 768 1297 l 544 1093 l 528 1093 l 304 1297 z "},"Â":{"ha":1001,"x_min":28,"x_max":988,"o":"m 67 929 q 224 1017 143 988 q 407 1046 306 1046 l 407 1046 q 703 907 608 1046 l 703 907 q 906 982 814 957 l 906 982 l 931 951 q 817 836 853 901 q 782 656 782 771 l 782 656 q 794 493 782 588 l 794 493 q 868 216 815 344 q 988 36 921 88 l 988 36 l 969 0 l 747 0 q 732 161 742 76 q 697 417 722 246 l 697 417 q 565 172 650 269 q 383 28 479 74 q 200 -18 286 -18 l 200 -18 q 85 13 128 -18 l 85 13 q 43 72 58 33 q 28 163 28 110 l 28 163 q 82 372 28 257 q 251 604 136 488 l 251 604 q 406 733 319 669 q 586 849 493 797 l 586 849 q 351 961 501 961 l 351 961 q 86 890 232 961 l 86 890 l 67 929 z m 208 129 q 276 110 236 110 l 276 110 q 421 159 343 110 q 558 288 499 208 l 558 288 q 642 426 613 358 q 671 575 671 494 l 671 575 q 667 633 671 603 l 667 633 q 615 803 653 733 l 615 803 q 308 567 421 686 l 308 567 q 206 406 244 500 q 167 236 167 313 l 167 236 q 208 129 167 158 l 208 129 z m 308 1115 l 532 1319 l 549 1319 l 772 1115 l 757 1093 l 540 1186 l 324 1093 l 308 1115 z "},"Ä":{"ha":1001,"x_min":28,"x_max":988,"o":"m 67 929 q 224 1017 143 988 q 407 1046 306 1046 l 407 1046 q 703 907 608 1046 l 703 907 q 906 982 814 957 l 906 982 l 931 951 q 817 836 853 901 q 782 656 782 771 l 782 656 q 794 493 782 588 l 794 493 q 868 216 815 344 q 988 36 921 88 l 988 36 l 969 0 l 747 0 q 732 161 742 76 q 697 417 722 246 l 697 417 q 565 172 650 269 q 383 28 479 74 q 200 -18 286 -18 l 200 -18 q 85 13 128 -18 l 85 13 q 43 72 58 33 q 28 163 28 110 l 28 163 q 82 372 28 257 q 251 604 136 488 l 251 604 q 406 733 319 669 q 586 849 493 797 l 586 849 q 351 961 501 961 l 351 961 q 86 890 232 961 l 86 890 l 67 929 z m 208 129 q 276 110 236 110 l 276 110 q 421 159 343 110 q 558 288 499 208 l 558 288 q 642 426 613 358 q 671 575 671 494 l 671 575 q 667 633 671 603 l 667 633 q 615 803 653 733 l 615 803 q 308 567 421 686 l 308 567 q 206 406 244 500 q 167 236 167 313 l 167 236 q 208 129 167 158 l 208 129 z m 685 1110 q 632 1132 654 1110 q 610 1185 610 1154 l 610 1185 q 632 1238 610 1217 q 685 1260 654 1260 l 685 1260 q 738 1238 717 1260 q 760 1185 760 1217 l 760 1185 q 738 1132 760 1154 q 685 1110 717 1110 l 685 1110 z m 389 1110 q 336 1132 358 1110 q 314 1185 314 1154 l 314 1185 q 336 1238 314 1217 q 389 1260 358 1260 l 389 1260 q 442 1238 421 1260 q 464 1185 464 1217 l 464 1185 q 442 1132 464 1154 q 389 1110 421 1110 l 389 1110 z "},"À":{"ha":1001,"x_min":28,"x_max":988,"o":"m 67 929 q 224 1017 143 988 q 407 1046 306 1046 l 407 1046 q 703 907 608 1046 l 703 907 q 906 982 814 957 l 906 982 l 931 951 q 817 836 853 901 q 782 656 782 771 l 782 656 q 794 493 782 588 l 794 493 q 868 216 815 344 q 988 36 921 88 l 988 36 l 969 0 l 747 0 q 732 161 742 76 q 697 417 722 246 l 697 417 q 565 172 650 269 q 383 28 479 74 q 200 -18 286 -18 l 200 -18 q 85 13 128 -18 l 85 13 q 43 72 58 33 q 28 163 28 110 l 28 163 q 82 372 28 257 q 251 604 136 488 l 251 604 q 406 733 319 669 q 586 849 493 797 l 586 849 q 351 961 501 961 l 351 961 q 86 890 232 961 l 86 890 l 67 929 z m 208 129 q 276 110 236 110 l 276 110 q 421 159 343 110 q 558 288 499 208 l 558 288 q 642 426 613 358 q 671 575 671 494 l 671 575 q 667 633 671 603 l 667 633 q 615 803 653 733 l 615 803 q 308 567 421 686 l 308 567 q 206 406 244 500 q 167 236 167 313 l 167 236 q 208 129 167 158 l 208 129 z m 643 1107 l 615 1088 l 372 1288 l 382 1306 l 532 1306 l 643 1107 z "},"Ā":{"ha":1001,"x_min":28,"x_max":988,"o":"m 67 929 q 224 1017 143 988 q 407 1046 306 1046 l 407 1046 q 703 907 608 1046 l 703 907 q 906 982 814 957 l 906 982 l 931 951 q 817 836 853 901 q 782 656 782 771 l 782 656 q 794 493 782 588 l 794 493 q 868 216 815 344 q 988 36 921 88 l 988 36 l 969 0 l 747 0 q 732 161 742 76 q 697 417 722 246 l 697 417 q 565 172 650 269 q 383 28 479 74 q 200 -18 286 -18 l 200 -18 q 85 13 128 -18 l 85 13 q 43 72 58 33 q 28 163 28 110 l 28 163 q 82 372 28 257 q 251 604 136 488 l 251 604 q 406 733 319 669 q 586 849 493 797 l 586 849 q 351 961 501 961 l 351 961 q 86 890 232 961 l 86 890 l 67 929 z m 208 129 q 276 110 236 110 l 276 110 q 421 159 343 110 q 558 288 499 208 l 558 288 q 642 426 613 358 q 671 575 671 494 l 671 575 q 667 633 671 603 l 667 633 q 615 803 653 733 l 615 803 q 308 567 421 686 l 308 567 q 206 406 244 500 q 167 236 167 313 l 167 236 q 208 129 167 158 l 208 129 z m 339 1161 l 338 1231 l 743 1231 l 743 1161 l 339 1161 z "},"Ą":{"ha":1001,"x_min":28,"x_max":988,"o":"m 67 929 q 224 1017 143 988 q 407 1046 306 1046 l 407 1046 q 703 907 608 1046 l 703 907 q 906 982 814 957 l 906 982 l 931 951 q 817 836 853 901 q 782 656 782 771 l 782 656 q 794 493 782 588 l 794 493 q 868 216 815 344 q 988 36 921 88 l 988 36 l 969 0 l 872 0 q 766 -33 800 0 q 732 -108 732 -65 l 732 -108 q 756 -162 732 -142 q 819 -182 779 -182 l 819 -182 q 942 -118 874 -182 l 942 -118 l 965 -142 q 890 -226 939 -186 q 776 -267 842 -267 l 776 -267 q 683 -230 719 -267 q 646 -143 646 -193 l 646 -143 q 676 -60 646 -100 q 747 3 707 -21 l 747 3 q 697 417 735 157 l 697 417 q 565 172 650 269 q 383 28 479 74 q 200 -18 286 -18 l 200 -18 q 85 13 128 -18 l 85 13 q 43 72 58 33 q 28 163 28 110 l 28 163 q 82 372 28 257 q 251 604 136 488 l 251 604 q 406 733 319 669 q 586 849 493 797 l 586 849 q 351 961 501 961 l 351 961 q 86 890 232 961 l 86 890 l 67 929 z m 208 129 q 276 110 236 110 l 276 110 q 421 159 343 110 q 558 288 499 208 l 558 288 q 642 426 613 358 q 671 575 671 494 l 671 575 q 667 633 671 603 l 667 633 q 615 803 653 733 l 615 803 q 308 567 421 686 l 308 567 q 206 406 244 500 q 167 236 167 313 l 167 236 q 208 129 167 158 l 208 129 z "},"Å":{"ha":1001,"x_min":28,"x_max":988,"o":"m 67 929 q 224 1017 143 988 q 407 1046 306 1046 l 407 1046 q 703 907 608 1046 l 703 907 q 906 982 814 957 l 906 982 l 931 951 q 817 836 853 901 q 782 656 782 771 l 782 656 q 794 493 782 588 l 794 493 q 868 216 815 344 q 988 36 921 88 l 988 36 l 969 0 l 747 0 q 732 161 742 76 q 697 417 722 246 l 697 417 q 565 172 650 269 q 383 28 479 74 q 200 -18 286 -18 l 200 -18 q 85 13 128 -18 l 85 13 q 43 72 58 33 q 28 163 28 110 l 28 163 q 82 372 28 257 q 251 604 136 488 l 251 604 q 406 733 319 669 q 586 849 493 797 l 586 849 q 351 961 501 961 l 351 961 q 86 890 232 961 l 86 890 l 67 929 z m 208 129 q 276 110 236 110 l 276 110 q 421 159 343 110 q 558 288 499 208 l 558 288 q 642 426 613 358 q 671 575 671 494 l 671 575 q 667 633 671 603 l 667 633 q 615 803 653 733 l 615 803 q 308 567 421 686 l 308 567 q 206 406 244 500 q 167 236 167 313 l 167 236 q 208 129 167 158 l 208 129 z m 447 1144 q 410 1239 410 1185 l 410 1239 q 447 1332 410 1294 l 447 1332 q 542 1369 488 1369 l 542 1369 q 633 1332 596 1369 l 633 1332 q 672 1238 672 1293 l 672 1238 q 633 1146 672 1183 l 633 1146 q 538 1107 592 1107 l 538 1107 q 447 1144 483 1107 l 447 1144 z m 486 1183 q 536 1163 507 1163 l 536 1163 q 594 1185 569 1163 l 594 1185 q 617 1238 617 1206 l 617 1238 q 594 1293 617 1271 l 594 1293 q 542 1314 574 1314 l 542 1314 q 486 1293 510 1314 l 486 1293 q 464 1239 464 1272 l 464 1239 q 486 1183 464 1206 l 486 1183 z "},"Ã":{"ha":1001,"x_min":28,"x_max":988,"o":"m 67 929 q 224 1017 143 988 q 407 1046 306 1046 l 407 1046 q 703 907 608 1046 l 703 907 q 906 982 814 957 l 906 982 l 931 951 q 817 836 853 901 q 782 656 782 771 l 782 656 q 794 493 782 588 l 794 493 q 868 216 815 344 q 988 36 921 88 l 988 36 l 969 0 l 747 0 q 732 161 742 76 q 697 417 722 246 l 697 417 q 565 172 650 269 q 383 28 479 74 q 200 -18 286 -18 l 200 -18 q 85 13 128 -18 l 85 13 q 43 72 58 33 q 28 163 28 110 l 28 163 q 82 372 28 257 q 251 604 136 488 l 251 604 q 406 733 319 669 q 586 849 493 797 l 586 849 q 351 961 501 961 l 351 961 q 86 890 232 961 l 86 890 l 67 929 z m 208 129 q 276 110 236 110 l 276 110 q 421 159 343 110 q 558 288 499 208 l 558 288 q 642 426 613 358 q 671 575 671 494 l 671 575 q 667 633 671 603 l 667 633 q 615 803 653 733 l 615 803 q 308 567 421 686 l 308 567 q 206 406 244 500 q 167 236 167 313 l 167 236 q 208 129 167 158 l 208 129 z m 433 1267 q 351 1229 383 1267 q 318 1140 318 1192 l 318 1140 q 321 1111 318 1131 l 321 1111 l 343 1113 q 363 1163 350 1144 q 411 1181 376 1181 l 411 1181 q 448 1171 429 1181 q 494 1142 467 1161 l 494 1142 q 562 1102 533 1115 q 624 1089 590 1089 l 624 1089 q 708 1128 674 1089 q 742 1219 742 1168 l 742 1219 q 739 1247 742 1228 l 739 1247 l 715 1247 q 646 1179 706 1179 l 646 1179 q 615 1188 631 1179 q 574 1213 599 1196 l 574 1213 q 503 1253 535 1239 q 433 1267 472 1267 l 433 1267 z "},"Æ":{"ha":1688,"x_min":28,"x_max":1660,"o":"m 1193 -21 q 969 29 1074 -21 q 792 167 865 79 q 689 369 719 256 l 689 369 q 553 151 638 238 q 376 23 469 64 q 201 -18 283 -18 l 201 -18 q 85 13 128 -18 l 85 13 q 43 72 58 33 q 28 163 28 110 l 28 163 q 82 372 28 257 q 251 604 136 488 l 251 604 q 406 733 319 669 q 586 849 493 797 l 586 849 q 351 961 501 961 l 351 961 q 86 890 232 961 l 86 890 l 67 929 q 224 1017 143 988 q 407 1046 306 1046 l 407 1046 q 624 987 539 1046 q 753 806 708 928 l 753 806 q 943 988 826 919 q 1193 1056 1060 1056 l 1193 1056 q 1383 1028 1269 1056 l 1383 1028 q 1514 1007 1472 1007 l 1514 1007 q 1597 1028 1561 1007 l 1597 1028 l 1617 1014 q 1572 672 1567 817 l 1572 672 l 1538 668 q 1396 917 1490 836 q 1167 999 1301 999 l 1167 999 q 988 942 1068 999 q 860 788 907 886 q 814 569 814 690 l 814 569 l 814 567 l 1097 567 q 1231 604 1181 567 q 1292 735 1281 642 l 1292 735 l 1326 735 q 1356 508 1342 600 q 1392 319 1369 417 l 1392 319 l 1357 307 q 1254 468 1310 425 q 1111 511 1199 511 l 1111 511 l 817 511 q 889 301 829 394 q 1040 155 949 208 q 1240 101 1132 101 l 1240 101 q 1481 176 1393 101 q 1626 413 1569 250 l 1626 413 l 1660 407 q 1501 92 1619 206 q 1193 -21 1383 -21 l 1193 -21 z m 208 129 q 276 110 236 110 l 276 110 q 421 159 343 110 q 558 288 499 208 l 558 288 q 642 426 613 358 q 671 575 671 494 l 671 575 q 667 633 671 603 l 667 633 q 622 790 654 722 l 622 790 q 311 551 426 675 l 311 551 q 207 393 246 483 q 168 229 168 303 l 168 229 q 208 129 168 156 l 208 129 z "},"B":{"ha":1024,"x_min":83,"x_max":968,"o":"m 569 -10 q 393 -4 501 -10 l 393 -4 q 299 0 335 0 l 299 0 q 89 -10 207 0 l 89 -10 l 83 29 q 194 99 164 56 q 224 225 224 143 l 224 225 l 224 810 q 194 935 224 892 q 83 1006 164 979 l 83 1006 l 89 1044 q 288 1035 207 1035 l 288 1035 q 517 1042 385 1035 l 517 1042 q 567 1043 535 1043 l 567 1043 q 888 808 888 1043 l 888 808 q 840 657 888 718 q 706 564 792 596 l 706 564 q 899 462 831 538 q 968 268 968 386 l 968 268 q 867 63 968 136 q 569 -10 765 -10 l 569 -10 z m 575 46 q 756 101 689 46 q 822 263 822 156 l 822 263 q 755 447 822 378 q 556 515 688 515 l 556 515 q 501 513 540 515 l 501 513 l 349 497 l 349 290 q 406 111 349 176 q 575 46 463 46 l 575 46 z m 483 568 q 684 638 626 583 q 742 785 742 693 l 742 785 q 674 939 742 893 q 467 985 607 985 l 467 985 q 349 979 406 985 l 349 979 l 349 554 l 483 568 z "},"C":{"ha":1060,"x_min":42,"x_max":1032,"o":"m 1032 407 q 874 92 992 206 q 565 -21 756 -21 l 565 -21 q 301 51 421 -21 q 111 246 181 122 q 42 518 42 369 l 42 518 q 114 786 42 663 q 306 983 186 910 q 565 1056 426 1056 l 565 1056 q 756 1028 642 1056 l 756 1028 q 886 1007 844 1007 l 886 1007 q 969 1028 933 1007 l 969 1028 l 994 1011 q 956 842 969 931 q 944 672 942 753 l 944 672 l 910 668 q 768 917 863 836 q 539 999 674 999 l 539 999 q 360 942 440 999 q 233 788 279 886 q 186 569 186 690 l 186 569 q 243 333 186 440 q 398 163 300 225 q 613 101 496 101 l 613 101 q 853 176 765 101 q 999 413 942 250 l 999 413 l 1032 407 z "},"Ć":{"ha":1060,"x_min":42,"x_max":1032,"o":"m 1032 407 q 874 92 992 206 q 565 -21 756 -21 l 565 -21 q 301 51 421 -21 q 111 246 181 122 q 42 518 42 369 l 42 518 q 114 786 42 663 q 306 983 186 910 q 565 1056 426 1056 l 565 1056 q 756 1028 642 1056 l 756 1028 q 886 1007 844 1007 l 886 1007 q 969 1028 933 1007 l 969 1028 l 994 1011 q 956 842 969 931 q 944 672 942 753 l 944 672 l 910 668 q 768 917 863 836 q 539 999 674 999 l 539 999 q 360 942 440 999 q 233 788 279 886 q 186 569 186 690 l 186 569 q 243 333 186 440 q 398 163 300 225 q 613 101 496 101 l 613 101 q 853 176 765 101 q 999 413 942 250 l 999 413 l 1032 407 z m 456 1107 l 567 1306 l 717 1306 l 726 1288 l 483 1088 l 456 1107 z "},"Č":{"ha":1060,"x_min":42,"x_max":1032,"o":"m 1032 407 q 874 92 992 206 q 565 -21 756 -21 l 565 -21 q 301 51 421 -21 q 111 246 181 122 q 42 518 42 369 l 42 518 q 114 786 42 663 q 306 983 186 910 q 565 1056 426 1056 l 565 1056 q 756 1028 642 1056 l 756 1028 q 886 1007 844 1007 l 886 1007 q 969 1028 933 1007 l 969 1028 l 994 1011 q 956 842 969 931 q 944 672 942 753 l 944 672 l 910 668 q 768 917 863 836 q 539 999 674 999 l 539 999 q 360 942 440 999 q 233 788 279 886 q 186 569 186 690 l 186 569 q 243 333 186 440 q 398 163 300 225 q 613 101 496 101 l 613 101 q 853 176 765 101 q 999 413 942 250 l 999 413 l 1032 407 z m 315 1297 l 331 1319 l 547 1226 l 764 1319 l 779 1297 l 556 1093 l 539 1093 l 315 1297 z "},"Ç":{"ha":1060,"x_min":42,"x_max":1032,"o":"m 1032 407 q 876 95 992 208 q 575 -21 761 -18 l 575 -21 l 568 -74 q 701 -99 651 -74 q 750 -169 750 -125 l 750 -169 q 700 -256 750 -219 q 578 -292 650 -292 l 578 -292 q 445 -267 504 -292 q 344 -203 386 -242 l 344 -203 l 363 -185 q 536 -236 451 -236 l 536 -236 q 601 -222 576 -236 q 626 -186 626 -208 l 626 -186 q 572 -134 626 -147 q 454 -121 518 -121 l 454 -121 l 544 -21 q 290 58 404 -15 q 108 252 175 131 q 42 518 42 374 l 42 518 q 114 786 42 663 q 306 983 186 910 q 565 1056 426 1056 l 565 1056 q 756 1028 642 1056 l 756 1028 q 886 1007 844 1007 l 886 1007 q 969 1028 933 1007 l 969 1028 l 994 1011 q 956 842 969 931 q 944 672 942 753 l 944 672 l 910 668 q 768 917 863 836 q 539 999 674 999 l 539 999 q 360 942 440 999 q 233 788 279 886 q 186 569 186 690 l 186 569 q 243 333 186 440 q 398 163 300 225 q 613 101 496 101 l 613 101 q 853 176 765 101 q 999 413 942 250 l 999 413 l 1032 407 z "},"Ċ":{"ha":1060,"x_min":42,"x_max":1032,"o":"m 1032 407 q 874 92 992 206 q 565 -21 756 -21 l 565 -21 q 301 51 421 -21 q 111 246 181 122 q 42 518 42 369 l 42 518 q 114 786 42 663 q 306 983 186 910 q 565 1056 426 1056 l 565 1056 q 756 1028 642 1056 l 756 1028 q 886 1007 844 1007 l 886 1007 q 969 1028 933 1007 l 969 1028 l 994 1011 q 956 842 969 931 q 944 672 942 753 l 944 672 l 910 668 q 768 917 863 836 q 539 999 674 999 l 539 999 q 360 942 440 999 q 233 788 279 886 q 186 569 186 690 l 186 569 q 243 333 186 440 q 398 163 300 225 q 613 101 496 101 l 613 101 q 853 176 765 101 q 999 413 942 250 l 999 413 l 1032 407 z m 551 1125 q 499 1147 521 1125 q 478 1200 478 1169 l 478 1200 q 499 1252 478 1231 q 551 1274 521 1274 l 551 1274 q 605 1252 583 1274 q 626 1200 626 1231 l 626 1200 q 605 1147 626 1169 q 551 1125 583 1125 l 551 1125 z "},"D":{"ha":1167,"x_min":83,"x_max":1125,"o":"m 574 -14 q 374 -4 510 -14 l 374 -4 q 326 -1 347 -3 q 288 0 304 0 l 288 0 q 89 -10 207 0 l 89 -10 l 83 29 q 194 99 164 56 q 224 225 224 143 l 224 225 l 224 810 q 194 935 224 892 q 83 1006 164 979 l 83 1006 l 89 1044 q 288 1035 207 1035 l 288 1035 q 511 1040 417 1035 l 511 1040 q 564 1042 529 1042 l 564 1042 q 867 977 740 1042 q 1059 794 993 913 q 1125 519 1125 676 l 1125 519 q 1060 247 1125 368 q 870 56 994 126 q 574 -14 746 -14 l 574 -14 z m 571 42 q 787 98 699 42 q 919 253 875 154 q 963 479 963 351 l 963 479 q 957 567 963 506 l 957 567 q 819 879 935 774 q 531 985 704 985 l 531 985 q 389 941 429 985 q 349 810 349 897 l 349 810 l 349 267 q 367 140 349 188 q 433 67 385 92 q 571 42 481 42 l 571 42 z "},"Ď":{"ha":1167,"x_min":83,"x_max":1125,"o":"m 574 -14 q 374 -4 510 -14 l 374 -4 q 326 -1 347 -3 q 288 0 304 0 l 288 0 q 89 -10 207 0 l 89 -10 l 83 29 q 194 99 164 56 q 224 225 224 143 l 224 225 l 224 810 q 194 935 224 892 q 83 1006 164 979 l 83 1006 l 89 1044 q 288 1035 207 1035 l 288 1035 q 511 1040 417 1035 l 511 1040 q 564 1042 529 1042 l 564 1042 q 867 977 740 1042 q 1059 794 993 913 q 1125 519 1125 676 l 1125 519 q 1060 247 1125 368 q 870 56 994 126 q 574 -14 746 -14 l 574 -14 z m 571 42 q 787 98 699 42 q 919 253 875 154 q 963 479 963 351 l 963 479 q 957 567 963 506 l 957 567 q 819 879 935 774 q 531 985 704 985 l 531 985 q 389 941 429 985 q 349 810 349 897 l 349 810 l 349 267 q 367 140 349 188 q 433 67 385 92 q 571 42 481 42 l 571 42 z m 363 1297 l 378 1319 l 594 1226 l 811 1319 l 826 1297 l 603 1093 l 586 1093 l 363 1297 z "},"Đ":{"ha":1308,"x_min":83,"x_max":1125,"o":"m 574 -14 q 374 -4 510 -14 l 374 -4 q 326 -1 347 -3 q 288 0 304 0 l 288 0 q 89 -10 207 0 l 89 -10 l 83 29 q 194 99 164 56 q 224 225 224 143 l 224 225 l 224 490 l 86 490 l 85 560 l 224 560 l 224 810 q 194 935 224 892 q 83 1006 164 979 l 83 1006 l 89 1044 q 288 1035 207 1035 l 288 1035 q 511 1040 417 1035 l 511 1040 q 564 1042 529 1042 l 564 1042 q 867 977 740 1042 q 1059 794 993 913 q 1125 519 1125 676 l 1125 519 q 1060 247 1125 368 q 870 56 994 126 q 574 -14 746 -14 l 574 -14 z m 571 42 q 787 98 699 42 q 919 253 875 154 q 963 479 963 351 l 963 479 q 957 567 963 506 l 957 567 q 819 879 935 774 q 531 985 704 985 l 531 985 q 389 941 429 985 q 349 810 349 897 l 349 810 l 349 560 l 699 560 l 699 490 l 349 490 l 349 267 q 367 140 349 188 q 433 67 385 92 q 571 42 481 42 l 571 42 z "},"Ð":{"ha":1308,"x_min":83,"x_max":1125,"o":"m 574 -14 q 374 -4 510 -14 l 374 -4 q 326 -1 347 -3 q 288 0 304 0 l 288 0 q 89 -10 207 0 l 89 -10 l 83 29 q 194 99 164 56 q 224 225 224 143 l 224 225 l 224 490 l 86 490 l 85 560 l 224 560 l 224 810 q 194 935 224 892 q 83 1006 164 979 l 83 1006 l 89 1044 q 288 1035 207 1035 l 288 1035 q 511 1040 417 1035 l 511 1040 q 564 1042 529 1042 l 564 1042 q 867 977 740 1042 q 1059 794 993 913 q 1125 519 1125 676 l 1125 519 q 1060 247 1125 368 q 870 56 994 126 q 574 -14 746 -14 l 574 -14 z m 571 42 q 787 98 699 42 q 919 253 875 154 q 963 479 963 351 l 963 479 q 957 567 963 506 l 957 567 q 819 879 935 774 q 531 985 704 985 l 531 985 q 389 941 429 985 q 349 810 349 897 l 349 810 l 349 560 l 699 560 l 699 490 l 349 490 l 349 267 q 367 140 349 188 q 433 67 385 92 q 571 42 481 42 l 571 42 z "},"E":{"ha":1060,"x_min":42,"x_max":1032,"o":"m 565 -21 q 301 51 421 -21 q 111 246 181 122 q 42 518 42 369 l 42 518 q 114 786 42 663 q 306 983 186 910 q 565 1056 426 1056 l 565 1056 q 756 1028 642 1056 l 756 1028 q 886 1007 844 1007 l 886 1007 q 969 1028 933 1007 l 969 1028 l 989 1014 q 944 672 939 817 l 944 672 l 910 668 q 768 917 863 836 q 539 999 674 999 l 539 999 q 360 942 440 999 q 233 788 279 886 q 186 569 186 690 l 186 569 l 186 567 l 469 567 q 603 604 553 567 q 664 735 653 642 l 664 735 l 699 735 q 728 508 714 600 q 764 319 742 417 l 764 319 l 729 307 q 626 468 682 425 q 483 511 571 511 l 483 511 l 189 511 q 261 301 201 394 q 413 155 321 208 q 613 101 504 101 l 613 101 q 853 176 765 101 q 999 413 942 250 l 999 413 l 1032 407 q 874 92 992 206 q 565 -21 756 -21 l 565 -21 z "},"É":{"ha":1060,"x_min":42,"x_max":1032,"o":"m 565 -21 q 301 51 421 -21 q 111 246 181 122 q 42 518 42 369 l 42 518 q 114 786 42 663 q 306 983 186 910 q 565 1056 426 1056 l 565 1056 q 756 1028 642 1056 l 756 1028 q 886 1007 844 1007 l 886 1007 q 969 1028 933 1007 l 969 1028 l 989 1014 q 944 672 939 817 l 944 672 l 910 668 q 768 917 863 836 q 539 999 674 999 l 539 999 q 360 942 440 999 q 233 788 279 886 q 186 569 186 690 l 186 569 l 186 567 l 469 567 q 603 604 553 567 q 664 735 653 642 l 664 735 l 699 735 q 728 508 714 600 q 764 319 742 417 l 764 319 l 729 307 q 626 468 682 425 q 483 511 571 511 l 483 511 l 189 511 q 261 301 201 394 q 413 155 321 208 q 613 101 504 101 l 613 101 q 853 176 765 101 q 999 413 942 250 l 999 413 l 1032 407 q 874 92 992 206 q 565 -21 756 -21 l 565 -21 z m 467 1128 l 578 1326 l 728 1326 l 738 1308 l 494 1108 l 467 1128 z "},"Ě":{"ha":1060,"x_min":42,"x_max":1032,"o":"m 565 -21 q 301 51 421 -21 q 111 246 181 122 q 42 518 42 369 l 42 518 q 114 786 42 663 q 306 983 186 910 q 565 1056 426 1056 l 565 1056 q 756 1028 642 1056 l 756 1028 q 886 1007 844 1007 l 886 1007 q 969 1028 933 1007 l 969 1028 l 989 1014 q 944 672 939 817 l 944 672 l 910 668 q 768 917 863 836 q 539 999 674 999 l 539 999 q 360 942 440 999 q 233 788 279 886 q 186 569 186 690 l 186 569 l 186 567 l 469 567 q 603 604 553 567 q 664 735 653 642 l 664 735 l 699 735 q 728 508 714 600 q 764 319 742 417 l 764 319 l 729 307 q 626 468 682 425 q 483 511 571 511 l 483 511 l 189 511 q 261 301 201 394 q 413 155 321 208 q 613 101 504 101 l 613 101 q 853 176 765 101 q 999 413 942 250 l 999 413 l 1032 407 q 874 92 992 206 q 565 -21 756 -21 l 565 -21 z m 326 1318 l 342 1340 l 558 1247 l 775 1340 l 790 1318 l 567 1114 l 550 1114 l 326 1318 z "},"Ê":{"ha":1060,"x_min":42,"x_max":1032,"o":"m 565 -21 q 301 51 421 -21 q 111 246 181 122 q 42 518 42 369 l 42 518 q 114 786 42 663 q 306 983 186 910 q 565 1056 426 1056 l 565 1056 q 756 1028 642 1056 l 756 1028 q 886 1007 844 1007 l 886 1007 q 969 1028 933 1007 l 969 1028 l 989 1014 q 944 672 939 817 l 944 672 l 910 668 q 768 917 863 836 q 539 999 674 999 l 539 999 q 360 942 440 999 q 233 788 279 886 q 186 569 186 690 l 186 569 l 186 567 l 469 567 q 603 604 553 567 q 664 735 653 642 l 664 735 l 699 735 q 728 508 714 600 q 764 319 742 417 l 764 319 l 729 307 q 626 468 682 425 q 483 511 571 511 l 483 511 l 189 511 q 261 301 201 394 q 413 155 321 208 q 613 101 504 101 l 613 101 q 853 176 765 101 q 999 413 942 250 l 999 413 l 1032 407 q 874 92 992 206 q 565 -21 756 -21 l 565 -21 z m 331 1136 l 554 1340 l 571 1340 l 794 1136 l 779 1114 l 563 1207 l 346 1114 l 331 1136 z "},"Ë":{"ha":1060,"x_min":42,"x_max":1032,"o":"m 565 -21 q 301 51 421 -21 q 111 246 181 122 q 42 518 42 369 l 42 518 q 114 786 42 663 q 306 983 186 910 q 565 1056 426 1056 l 565 1056 q 756 1028 642 1056 l 756 1028 q 886 1007 844 1007 l 886 1007 q 969 1028 933 1007 l 969 1028 l 989 1014 q 944 672 939 817 l 944 672 l 910 668 q 768 917 863 836 q 539 999 674 999 l 539 999 q 360 942 440 999 q 233 788 279 886 q 186 569 186 690 l 186 569 l 186 567 l 469 567 q 603 604 553 567 q 664 735 653 642 l 664 735 l 699 735 q 728 508 714 600 q 764 319 742 417 l 764 319 l 729 307 q 626 468 682 425 q 483 511 571 511 l 483 511 l 189 511 q 261 301 201 394 q 413 155 321 208 q 613 101 504 101 l 613 101 q 853 176 765 101 q 999 413 942 250 l 999 413 l 1032 407 q 874 92 992 206 q 565 -21 756 -21 l 565 -21 z m 707 1131 q 654 1153 676 1131 q 632 1206 632 1175 l 632 1206 q 654 1259 632 1238 q 707 1281 676 1281 l 707 1281 q 760 1259 739 1281 q 782 1206 782 1238 l 782 1206 q 760 1153 782 1175 q 707 1131 739 1131 l 707 1131 z m 411 1131 q 358 1153 381 1131 q 336 1206 336 1175 l 336 1206 q 358 1259 336 1238 q 411 1281 381 1281 l 411 1281 q 465 1259 443 1281 q 486 1206 486 1238 l 486 1206 q 465 1153 486 1175 q 411 1131 443 1131 l 411 1131 z "},"Ė":{"ha":1060,"x_min":42,"x_max":1032,"o":"m 565 -21 q 301 51 421 -21 q 111 246 181 122 q 42 518 42 369 l 42 518 q 114 786 42 663 q 306 983 186 910 q 565 1056 426 1056 l 565 1056 q 756 1028 642 1056 l 756 1028 q 886 1007 844 1007 l 886 1007 q 969 1028 933 1007 l 969 1028 l 989 1014 q 944 672 939 817 l 944 672 l 910 668 q 768 917 863 836 q 539 999 674 999 l 539 999 q 360 942 440 999 q 233 788 279 886 q 186 569 186 690 l 186 569 l 186 567 l 469 567 q 603 604 553 567 q 664 735 653 642 l 664 735 l 699 735 q 728 508 714 600 q 764 319 742 417 l 764 319 l 729 307 q 626 468 682 425 q 483 511 571 511 l 483 511 l 189 511 q 261 301 201 394 q 413 155 321 208 q 613 101 504 101 l 613 101 q 853 176 765 101 q 999 413 942 250 l 999 413 l 1032 407 q 874 92 992 206 q 565 -21 756 -21 l 565 -21 z m 563 1146 q 510 1168 532 1146 q 489 1221 489 1190 l 489 1221 q 510 1273 489 1251 q 563 1294 532 1294 l 563 1294 q 616 1273 594 1294 q 638 1221 638 1251 l 638 1221 q 616 1168 638 1190 q 563 1146 594 1146 l 563 1146 z "},"È":{"ha":1060,"x_min":42,"x_max":1032,"o":"m 565 -21 q 301 51 421 -21 q 111 246 181 122 q 42 518 42 369 l 42 518 q 114 786 42 663 q 306 983 186 910 q 565 1056 426 1056 l 565 1056 q 756 1028 642 1056 l 756 1028 q 886 1007 844 1007 l 886 1007 q 969 1028 933 1007 l 969 1028 l 989 1014 q 944 672 939 817 l 944 672 l 910 668 q 768 917 863 836 q 539 999 674 999 l 539 999 q 360 942 440 999 q 233 788 279 886 q 186 569 186 690 l 186 569 l 186 567 l 469 567 q 603 604 553 567 q 664 735 653 642 l 664 735 l 699 735 q 728 508 714 600 q 764 319 742 417 l 764 319 l 729 307 q 626 468 682 425 q 483 511 571 511 l 483 511 l 189 511 q 261 301 201 394 q 413 155 321 208 q 613 101 504 101 l 613 101 q 853 176 765 101 q 999 413 942 250 l 999 413 l 1032 407 q 874 92 992 206 q 565 -21 756 -21 l 565 -21 z m 665 1128 l 638 1108 l 394 1308 l 404 1326 l 554 1326 l 665 1128 z "},"Ē":{"ha":1060,"x_min":42,"x_max":1032,"o":"m 565 -21 q 301 51 421 -21 q 111 246 181 122 q 42 518 42 369 l 42 518 q 114 786 42 663 q 306 983 186 910 q 565 1056 426 1056 l 565 1056 q 756 1028 642 1056 l 756 1028 q 886 1007 844 1007 l 886 1007 q 969 1028 933 1007 l 969 1028 l 989 1014 q 944 672 939 817 l 944 672 l 910 668 q 768 917 863 836 q 539 999 674 999 l 539 999 q 360 942 440 999 q 233 788 279 886 q 186 569 186 690 l 186 569 l 186 567 l 469 567 q 603 604 553 567 q 664 735 653 642 l 664 735 l 699 735 q 728 508 714 600 q 764 319 742 417 l 764 319 l 729 307 q 626 468 682 425 q 483 511 571 511 l 483 511 l 189 511 q 261 301 201 394 q 413 155 321 208 q 613 101 504 101 l 613 101 q 853 176 765 101 q 999 413 942 250 l 999 413 l 1032 407 q 874 92 992 206 q 565 -21 756 -21 l 565 -21 z m 361 1182 l 360 1251 l 765 1251 l 765 1182 l 361 1182 z "},"Ę":{"ha":1060,"x_min":42,"x_max":1032,"o":"m 565 -21 q 301 51 421 -21 q 111 246 181 122 q 42 518 42 369 l 42 518 q 114 786 42 663 q 306 983 186 910 q 565 1056 426 1056 l 565 1056 q 756 1028 642 1056 l 756 1028 q 886 1007 844 1007 l 886 1007 q 969 1028 933 1007 l 969 1028 l 989 1014 q 944 672 939 817 l 944 672 l 910 668 q 768 917 863 836 q 539 999 674 999 l 539 999 q 360 942 440 999 q 233 788 279 886 q 186 569 186 690 l 186 569 l 186 567 l 469 567 q 603 604 553 567 q 664 735 653 642 l 664 735 l 699 735 q 728 508 714 600 q 764 319 742 417 l 764 319 l 729 307 q 626 468 682 425 q 483 511 571 511 l 483 511 l 189 511 q 261 301 201 394 q 413 155 321 208 q 613 101 504 101 l 613 101 q 853 176 765 101 q 999 413 942 250 l 999 413 l 1032 407 q 892 111 993 218 l 892 111 q 815 -4 839 49 q 790 -94 790 -57 l 790 -94 q 814 -148 790 -128 q 878 -168 838 -168 l 878 -168 q 1000 -104 932 -168 l 1000 -104 l 1024 -128 q 949 -212 997 -172 q 835 -253 900 -253 l 835 -253 q 741 -216 778 -253 q 704 -129 704 -179 l 704 -129 q 728 -53 704 -90 q 800 38 751 -15 l 800 38 q 565 -21 699 -21 l 565 -21 z "},"F":{"ha":1006,"x_min":83,"x_max":950,"o":"m 83 29 q 194 99 164 56 q 224 225 224 143 l 224 225 l 224 808 q 194 934 224 890 q 83 1004 164 978 l 83 1004 l 89 1043 q 240 1035 157 1038 q 525 1033 324 1033 l 525 1033 q 931 1042 810 1033 l 931 1042 l 950 593 l 911 593 q 844 836 888 753 q 738 949 801 919 q 576 978 675 978 l 576 978 q 400 933 451 978 q 349 794 349 889 l 349 794 l 349 553 l 483 553 q 619 590 565 553 q 693 721 672 628 l 693 721 l 728 721 q 742 506 731 601 q 778 306 754 411 l 778 306 l 743 293 q 640 454 696 411 q 497 497 585 497 l 497 497 l 349 497 l 349 225 q 378 100 349 143 q 489 29 408 57 l 489 29 l 483 -10 q 288 0 388 0 l 288 0 q 89 -10 207 0 l 89 -10 l 83 29 z "},"G":{"ha":1126,"x_min":42,"x_max":1043,"o":"m 551 -21 q 291 51 407 -21 q 108 246 175 122 q 42 518 42 369 l 42 518 q 114 786 42 663 q 306 983 186 910 q 565 1056 426 1056 l 565 1056 q 664 1049 615 1056 q 774 1028 713 1042 l 774 1028 q 917 1007 872 1007 l 917 1007 q 1004 1028 968 1007 l 1004 1028 l 1029 1014 q 990 832 1004 915 q 979 672 976 749 l 979 672 l 944 668 q 794 917 899 835 q 553 999 690 999 l 553 999 q 364 943 447 999 q 233 790 281 888 q 186 569 186 692 l 186 569 q 241 331 186 438 q 397 163 296 224 q 626 101 497 101 l 626 101 q 785 133 711 101 q 905 218 860 164 q 950 336 950 272 l 950 336 q 869 463 950 414 q 564 511 789 511 l 564 511 l 564 567 l 1033 567 l 1043 0 l 988 0 l 965 204 q 803 42 919 106 q 551 -21 688 -21 l 551 -21 z "},"Ğ":{"ha":1126,"x_min":42,"x_max":1043,"o":"m 551 -21 q 291 51 407 -21 q 108 246 175 122 q 42 518 42 369 l 42 518 q 114 786 42 663 q 306 983 186 910 q 565 1056 426 1056 l 565 1056 q 664 1049 615 1056 q 774 1028 713 1042 l 774 1028 q 917 1007 872 1007 l 917 1007 q 1004 1028 968 1007 l 1004 1028 l 1029 1014 q 990 832 1004 915 q 979 672 976 749 l 979 672 l 944 668 q 794 917 899 835 q 553 999 690 999 l 553 999 q 364 943 447 999 q 233 790 281 888 q 186 569 186 692 l 186 569 q 241 331 186 438 q 397 163 296 224 q 626 101 497 101 l 626 101 q 785 133 711 101 q 905 218 860 164 q 950 336 950 272 l 950 336 q 869 463 950 414 q 564 511 789 511 l 564 511 l 564 567 l 1033 567 l 1043 0 l 988 0 l 965 204 q 803 42 919 106 q 551 -21 688 -21 l 551 -21 z m 410 1326 q 472 1258 426 1282 q 574 1233 518 1233 l 574 1233 q 673 1258 626 1233 q 739 1326 719 1282 l 739 1326 l 774 1326 q 713 1185 765 1242 q 575 1128 660 1128 l 575 1128 q 436 1185 489 1128 q 375 1326 383 1242 l 375 1326 l 410 1326 z "},"Ģ":{"ha":1126,"x_min":42,"x_max":1043,"o":"m 551 -21 q 291 51 407 -21 q 108 246 175 122 q 42 518 42 369 l 42 518 q 114 786 42 663 q 306 983 186 910 q 565 1056 426 1056 l 565 1056 q 664 1049 615 1056 q 774 1028 713 1042 l 774 1028 q 917 1007 872 1007 l 917 1007 q 1004 1028 968 1007 l 1004 1028 l 1029 1014 q 990 832 1004 915 q 979 672 976 749 l 979 672 l 944 668 q 794 917 899 835 q 553 999 690 999 l 553 999 q 364 943 447 999 q 233 790 281 888 q 186 569 186 692 l 186 569 q 241 331 186 438 q 397 163 296 224 q 626 101 497 101 l 626 101 q 785 133 711 101 q 905 218 860 164 q 950 336 950 272 l 950 336 q 869 463 950 414 q 564 511 789 511 l 564 511 l 564 567 l 1033 567 l 1043 0 l 988 0 l 965 204 q 803 42 919 106 q 551 -21 688 -21 l 551 -21 z m 467 -451 q 533 -394 508 -428 q 557 -324 557 -361 l 557 -324 q 474 -199 557 -256 l 474 -199 l 631 -108 q 693 -246 693 -172 l 693 -246 q 636 -380 693 -317 q 492 -479 579 -443 l 492 -479 l 467 -451 z "},"Ġ":{"ha":1126,"x_min":42,"x_max":1043,"o":"m 551 -21 q 291 51 407 -21 q 108 246 175 122 q 42 518 42 369 l 42 518 q 114 786 42 663 q 306 983 186 910 q 565 1056 426 1056 l 565 1056 q 664 1049 615 1056 q 774 1028 713 1042 l 774 1028 q 917 1007 872 1007 l 917 1007 q 1004 1028 968 1007 l 1004 1028 l 1029 1014 q 990 832 1004 915 q 979 672 976 749 l 979 672 l 944 668 q 794 917 899 835 q 553 999 690 999 l 553 999 q 364 943 447 999 q 233 790 281 888 q 186 569 186 692 l 186 569 q 241 331 186 438 q 397 163 296 224 q 626 101 497 101 l 626 101 q 785 133 711 101 q 905 218 860 164 q 950 336 950 272 l 950 336 q 869 463 950 414 q 564 511 789 511 l 564 511 l 564 567 l 1033 567 l 1043 0 l 988 0 l 965 204 q 803 42 919 106 q 551 -21 688 -21 l 551 -21 z m 551 1125 q 499 1147 521 1125 q 478 1200 478 1169 l 478 1200 q 499 1252 478 1231 q 551 1274 521 1274 l 551 1274 q 605 1252 583 1274 q 626 1200 626 1231 l 626 1200 q 605 1147 626 1169 q 551 1125 583 1125 l 551 1125 z "},"H":{"ha":1324,"x_min":83,"x_max":1240,"o":"m 835 29 q 945 99 915 56 q 975 225 975 143 l 975 225 l 975 486 l 349 486 l 349 225 q 378 100 349 143 q 489 29 408 57 l 489 29 l 483 -10 q 288 0 388 0 l 288 0 q 89 -10 207 0 l 89 -10 l 83 29 q 194 99 164 56 q 224 225 224 143 l 224 225 l 224 810 q 194 935 224 892 q 83 1006 164 979 l 83 1006 l 89 1044 q 288 1035 207 1035 l 288 1035 q 483 1044 388 1035 l 483 1044 l 489 1006 q 378 935 408 978 q 349 810 349 892 l 349 810 l 349 556 l 975 556 l 975 810 q 945 935 975 892 q 835 1006 915 979 l 835 1006 l 840 1044 q 1039 1035 958 1035 l 1039 1035 q 1235 1044 1139 1035 l 1235 1044 l 1240 1006 q 1130 935 1160 978 q 1100 810 1100 892 l 1100 810 l 1100 225 q 1130 100 1100 143 q 1240 29 1160 57 l 1240 29 l 1235 -10 q 1039 0 1139 0 l 1039 0 q 840 -10 958 0 l 840 -10 l 835 29 z "},"Ħ":{"ha":1324,"x_min":83,"x_max":1240,"o":"m 835 29 q 945 99 915 56 q 975 225 975 143 l 975 225 l 975 486 l 349 486 l 349 225 q 378 100 349 143 q 489 29 408 57 l 489 29 l 483 -10 q 288 0 388 0 l 288 0 q 89 -10 207 0 l 89 -10 l 83 29 q 194 99 164 56 q 224 225 224 143 l 224 225 l 224 717 l 135 717 l 133 786 l 224 786 l 224 810 q 194 935 224 892 q 83 1006 164 979 l 83 1006 l 89 1044 q 288 1035 207 1035 l 288 1035 q 483 1044 388 1035 l 483 1044 l 489 1006 q 378 935 408 978 q 349 810 349 892 l 349 810 l 349 786 l 975 786 l 975 810 q 945 935 975 892 q 835 1006 915 979 l 835 1006 l 840 1044 q 1039 1035 958 1035 l 1039 1035 q 1235 1044 1139 1035 l 1235 1044 l 1240 1006 q 1130 935 1160 978 q 1100 810 1100 892 l 1100 810 l 1100 786 l 1211 786 l 1211 717 l 1100 717 l 1100 225 q 1130 100 1100 143 q 1240 29 1160 57 l 1240 29 l 1235 -10 q 1039 0 1139 0 l 1039 0 q 840 -10 958 0 l 840 -10 l 835 29 z m 349 556 l 975 556 l 975 717 l 349 717 l 349 556 z "},"I":{"ha":572,"x_min":83,"x_max":489,"o":"m 83 29 q 194 99 164 56 q 224 225 224 143 l 224 225 l 224 810 q 194 935 224 892 q 83 1006 164 979 l 83 1006 l 89 1044 q 288 1035 207 1035 l 288 1035 q 483 1044 388 1035 l 483 1044 l 489 1006 q 378 935 408 978 q 349 810 349 892 l 349 810 l 349 225 q 378 100 349 143 q 489 29 408 57 l 489 29 l 483 -10 q 288 0 388 0 l 288 0 q 89 -10 207 0 l 89 -10 l 83 29 z "},"Í":{"ha":572,"x_min":83,"x_max":489,"o":"m 83 29 q 194 99 164 56 q 224 225 224 143 l 224 225 l 224 810 q 194 935 224 892 q 83 1006 164 979 l 83 1006 l 89 1044 q 288 1035 207 1035 l 288 1035 q 483 1044 388 1035 l 483 1044 l 489 1006 q 378 935 408 978 q 349 810 349 892 l 349 810 l 349 225 q 378 100 349 143 q 489 29 408 57 l 489 29 l 483 -10 q 288 0 388 0 l 288 0 q 89 -10 207 0 l 89 -10 l 83 29 z m 190 1107 l 301 1306 l 451 1306 l 461 1288 l 218 1088 l 190 1107 z "},"Ǐ":{"ha":572,"x_min":50,"x_max":514,"o":"m 83 29 q 194 99 164 56 q 224 225 224 143 l 224 225 l 224 810 q 194 935 224 892 q 83 1006 164 979 l 83 1006 l 89 1044 q 288 1035 207 1035 l 288 1035 q 483 1044 388 1035 l 483 1044 l 489 1006 q 378 935 408 978 q 349 810 349 892 l 349 810 l 349 225 q 378 100 349 143 q 489 29 408 57 l 489 29 l 483 -10 q 288 0 388 0 l 288 0 q 89 -10 207 0 l 89 -10 l 83 29 z m 50 1297 l 65 1319 l 282 1226 l 499 1319 l 514 1297 l 290 1093 l 274 1093 l 50 1297 z "},"Î":{"ha":572,"x_min":54,"x_max":518,"o":"m 83 29 q 194 99 164 56 q 224 225 224 143 l 224 225 l 224 810 q 194 935 224 892 q 83 1006 164 979 l 83 1006 l 89 1044 q 288 1035 207 1035 l 288 1035 q 483 1044 388 1035 l 483 1044 l 489 1006 q 378 935 408 978 q 349 810 349 892 l 349 810 l 349 225 q 378 100 349 143 q 489 29 408 57 l 489 29 l 483 -10 q 288 0 388 0 l 288 0 q 89 -10 207 0 l 89 -10 l 83 29 z m 54 1115 l 278 1319 l 294 1319 l 518 1115 l 503 1093 l 286 1186 l 69 1093 l 54 1115 z "},"Ï":{"ha":572,"x_min":60,"x_max":506,"o":"m 83 29 q 194 99 164 56 q 224 225 224 143 l 224 225 l 224 810 q 194 935 224 892 q 83 1006 164 979 l 83 1006 l 89 1044 q 288 1035 207 1035 l 288 1035 q 483 1044 388 1035 l 483 1044 l 489 1006 q 378 935 408 978 q 349 810 349 892 l 349 810 l 349 225 q 378 100 349 143 q 489 29 408 57 l 489 29 l 483 -10 q 288 0 388 0 l 288 0 q 89 -10 207 0 l 89 -10 l 83 29 z m 431 1110 q 378 1132 400 1110 q 356 1185 356 1154 l 356 1185 q 378 1238 356 1217 q 431 1260 400 1260 l 431 1260 q 484 1238 463 1260 q 506 1185 506 1217 l 506 1185 q 484 1132 506 1154 q 431 1110 463 1110 l 431 1110 z m 135 1110 q 82 1132 104 1110 q 60 1185 60 1154 l 60 1185 q 82 1238 60 1217 q 135 1260 104 1260 l 135 1260 q 188 1238 167 1260 q 210 1185 210 1217 l 210 1185 q 188 1132 210 1154 q 135 1110 167 1110 l 135 1110 z "},"İ":{"ha":572,"x_min":83,"x_max":489,"o":"m 83 29 q 194 99 164 56 q 224 225 224 143 l 224 225 l 224 810 q 194 935 224 892 q 83 1006 164 979 l 83 1006 l 89 1044 q 288 1035 207 1035 l 288 1035 q 483 1044 388 1035 l 483 1044 l 489 1006 q 378 935 408 978 q 349 810 349 892 l 349 810 l 349 225 q 378 100 349 143 q 489 29 408 57 l 489 29 l 483 -10 q 288 0 388 0 l 288 0 q 89 -10 207 0 l 89 -10 l 83 29 z m 286 1125 q 234 1147 256 1125 q 213 1200 213 1169 l 213 1200 q 234 1252 213 1231 q 286 1274 256 1274 l 286 1274 q 340 1252 318 1274 q 361 1200 361 1231 l 361 1200 q 340 1147 361 1169 q 286 1125 318 1125 l 286 1125 z "},"Ì":{"ha":572,"x_min":83,"x_max":489,"o":"m 83 29 q 194 99 164 56 q 224 225 224 143 l 224 225 l 224 810 q 194 935 224 892 q 83 1006 164 979 l 83 1006 l 89 1044 q 288 1035 207 1035 l 288 1035 q 483 1044 388 1035 l 483 1044 l 489 1006 q 378 935 408 978 q 349 810 349 892 l 349 810 l 349 225 q 378 100 349 143 q 489 29 408 57 l 489 29 l 483 -10 q 288 0 388 0 l 288 0 q 89 -10 207 0 l 89 -10 l 83 29 z m 389 1107 l 361 1088 l 118 1288 l 128 1306 l 278 1306 l 389 1107 z "},"Ī":{"ha":572,"x_min":83,"x_max":489,"o":"m 83 29 q 194 99 164 56 q 224 225 224 143 l 224 225 l 224 810 q 194 935 224 892 q 83 1006 164 979 l 83 1006 l 89 1044 q 288 1035 207 1035 l 288 1035 q 483 1044 388 1035 l 483 1044 l 489 1006 q 378 935 408 978 q 349 810 349 892 l 349 810 l 349 225 q 378 100 349 143 q 489 29 408 57 l 489 29 l 483 -10 q 288 0 388 0 l 288 0 q 89 -10 207 0 l 89 -10 l 83 29 z m 85 1161 l 83 1231 l 489 1231 l 489 1161 l 85 1161 z "},"Į":{"ha":572,"x_min":83,"x_max":489,"o":"m 83 29 q 194 99 164 56 q 224 225 224 143 l 224 225 l 224 810 q 194 935 224 892 q 83 1006 164 979 l 83 1006 l 89 1044 q 288 1035 207 1035 l 288 1035 q 483 1044 388 1035 l 483 1044 l 489 1006 q 378 935 408 978 q 349 810 349 892 l 349 810 l 349 225 q 378 100 349 143 q 489 29 408 57 l 489 29 l 483 -10 q 354 -1 424 -4 l 354 -1 l 351 -1 l 351 -1 q 279 -34 306 0 q 253 -108 253 -68 l 253 -108 q 276 -162 253 -142 q 340 -182 300 -182 l 340 -182 q 463 -118 394 -182 l 463 -118 l 486 -142 q 411 -226 460 -186 q 297 -267 363 -267 l 297 -267 q 203 -230 240 -267 q 167 -143 167 -193 l 167 -143 q 195 -63 167 -101 q 264 0 224 -25 l 264 0 q 89 -10 179 -3 l 89 -10 l 83 29 z "},"J":{"ha":558,"x_min":-18,"x_max":489,"o":"m -18 -126 q 159 -8 94 -108 q 224 308 224 93 l 224 308 l 224 810 q 194 935 224 892 q 83 1006 164 979 l 83 1006 l 89 1044 q 288 1035 207 1035 l 288 1035 q 483 1044 388 1035 l 483 1044 l 489 1006 q 378 935 408 978 q 349 810 349 892 l 349 810 l 349 288 q 306 9 349 108 q 184 -127 263 -90 q -15 -162 106 -164 l -15 -162 l -18 -126 z "},"K":{"ha":1117,"x_min":83,"x_max":1117,"o":"m 83 29 q 194 99 164 56 q 224 225 224 143 l 224 225 l 224 810 q 194 935 224 892 q 83 1006 164 979 l 83 1006 l 89 1044 q 288 1035 207 1035 l 288 1035 q 483 1044 388 1035 l 483 1044 l 489 1006 q 378 935 408 978 q 349 810 349 892 l 349 810 l 349 450 l 732 813 q 779 903 779 858 l 779 903 q 746 967 779 939 q 656 1006 713 996 l 656 1006 l 661 1044 q 907 1035 844 1035 l 907 1035 q 1111 1044 976 1035 l 1111 1044 l 1117 1006 q 769 772 919 914 l 769 772 l 632 642 l 856 293 q 953 158 913 206 q 1028 85 993 110 q 1114 39 1063 61 l 1114 39 l 1093 0 l 860 0 q 726 260 815 104 q 539 554 638 415 l 539 554 l 349 374 l 349 225 q 378 100 349 143 q 489 29 408 57 l 489 29 l 483 -10 q 288 0 388 0 l 288 0 q 89 -10 207 0 l 89 -10 l 83 29 z "},"Ķ":{"ha":1117,"x_min":83,"x_max":1117,"o":"m 83 29 q 194 99 164 56 q 224 225 224 143 l 224 225 l 224 810 q 194 935 224 892 q 83 1006 164 979 l 83 1006 l 89 1044 q 288 1035 207 1035 l 288 1035 q 483 1044 388 1035 l 483 1044 l 489 1006 q 378 935 408 978 q 349 810 349 892 l 349 810 l 349 450 l 732 813 q 779 903 779 858 l 779 903 q 746 967 779 939 q 656 1006 713 996 l 656 1006 l 661 1044 q 907 1035 844 1035 l 907 1035 q 1111 1044 976 1035 l 1111 1044 l 1117 1006 q 769 772 919 914 l 769 772 l 632 642 l 856 293 q 953 158 913 206 q 1028 85 993 110 q 1114 39 1063 61 l 1114 39 l 1093 0 l 860 0 q 726 260 815 104 q 539 554 638 415 l 539 554 l 349 374 l 349 225 q 378 100 349 143 q 489 29 408 57 l 489 29 l 483 -10 q 288 0 388 0 l 288 0 q 89 -10 207 0 l 89 -10 l 83 29 z m 521 -432 q 587 -375 563 -408 q 611 -304 611 -342 l 611 -304 q 528 -179 611 -236 l 528 -179 l 685 -89 q 747 -226 747 -153 l 747 -226 q 690 -360 747 -297 q 546 -460 633 -424 l 546 -460 l 521 -432 z "},"L":{"ha":992,"x_min":83,"x_max":936,"o":"m 83 29 q 194 99 164 56 q 224 225 224 143 l 224 225 l 224 810 q 194 935 224 892 q 83 1006 164 979 l 83 1006 l 89 1044 q 288 1035 207 1035 l 288 1035 q 483 1044 388 1035 l 483 1044 l 489 1006 q 378 935 408 978 q 349 810 349 892 l 349 810 l 349 239 q 394 101 349 146 q 535 56 439 56 l 535 56 q 773 148 688 56 q 897 440 858 240 l 897 440 l 936 440 l 917 -8 q 511 0 796 0 l 511 0 q 238 -2 319 0 q 89 -10 157 -4 l 89 -10 l 83 29 z "},"Ĺ":{"ha":992,"x_min":83,"x_max":936,"o":"m 83 29 q 194 99 164 56 q 224 225 224 143 l 224 225 l 224 810 q 194 935 224 892 q 83 1006 164 979 l 83 1006 l 89 1044 q 288 1035 207 1035 l 288 1035 q 483 1044 388 1035 l 483 1044 l 489 1006 q 378 935 408 978 q 349 810 349 892 l 349 810 l 349 239 q 394 101 349 146 q 535 56 439 56 l 535 56 q 773 148 688 56 q 897 440 858 240 l 897 440 l 936 440 l 917 -8 q 511 0 796 0 l 511 0 q 238 -2 319 0 q 89 -10 157 -4 l 89 -10 l 83 29 z m 238 1107 l 349 1306 l 499 1306 l 508 1288 l 265 1088 l 238 1107 z "},"Ľ":{"ha":992,"x_min":56,"x_max":936,"o":"m 83 29 q 194 99 164 56 q 224 225 224 143 l 224 225 l 224 810 q 194 935 224 892 q 83 1006 164 979 l 83 1006 l 89 1044 q 288 1035 207 1035 l 288 1035 q 483 1044 388 1035 l 483 1044 l 489 1006 q 378 935 408 978 q 349 810 349 892 l 349 810 l 349 239 q 394 101 349 146 q 535 56 439 56 l 535 56 q 773 148 688 56 q 897 440 858 240 l 897 440 l 936 440 l 917 -8 q 511 0 796 0 l 511 0 q 238 -2 319 0 q 89 -10 157 -4 l 89 -10 l 83 29 z m 56 1297 l 71 1319 l 288 1226 l 504 1319 l 519 1297 l 296 1093 l 279 1093 l 56 1297 z "},"Ļ":{"ha":992,"x_min":83,"x_max":936,"o":"m 83 29 q 194 99 164 56 q 224 225 224 143 l 224 225 l 224 810 q 194 935 224 892 q 83 1006 164 979 l 83 1006 l 89 1044 q 288 1035 207 1035 l 288 1035 q 483 1044 388 1035 l 483 1044 l 489 1006 q 378 935 408 978 q 349 810 349 892 l 349 810 l 349 239 q 394 101 349 146 q 535 56 439 56 l 535 56 q 773 148 688 56 q 897 440 858 240 l 897 440 l 936 440 l 917 -8 q 511 0 796 0 l 511 0 q 238 -2 319 0 q 89 -10 157 -4 l 89 -10 l 83 29 z m 392 -432 q 458 -375 433 -408 q 482 -304 482 -342 l 482 -304 q 399 -179 482 -236 l 399 -179 l 556 -89 q 618 -226 618 -153 l 618 -226 q 561 -360 618 -297 q 417 -460 504 -424 l 417 -460 l 392 -432 z "},"Ł":{"ha":950,"x_min":43,"x_max":936,"o":"m 83 29 q 194 99 164 56 q 224 225 224 143 l 224 225 l 224 399 l 44 292 l 43 382 l 224 489 l 224 810 q 194 935 224 892 q 83 1006 164 979 l 83 1006 l 89 1044 q 288 1035 207 1035 l 288 1035 q 483 1044 388 1035 l 483 1044 l 489 1006 q 378 935 408 978 q 349 810 349 892 l 349 810 l 349 563 l 610 718 l 608 626 l 349 472 l 349 239 q 394 101 349 146 q 535 56 439 56 l 535 56 q 773 148 688 56 q 897 440 858 240 l 897 440 l 936 440 l 917 -8 q 511 0 796 0 l 511 0 q 238 -2 319 0 q 89 -10 157 -4 l 89 -10 l 83 29 z "},"M":{"ha":1567,"x_min":14,"x_max":1553,"o":"m 14 29 q 137 126 93 65 q 214 294 181 188 l 214 294 l 339 693 q 357 797 357 754 l 357 797 q 309 928 357 875 q 167 1006 261 981 l 167 1006 l 172 1044 q 322 1035 263 1035 l 322 1035 q 435 1044 368 1035 l 435 1044 l 801 213 l 1099 1035 q 1344 1044 1249 1035 l 1344 1044 l 1350 1006 q 1277 953 1300 989 q 1254 858 1254 917 l 1254 858 q 1286 668 1254 792 l 1286 668 l 1390 267 q 1426 147 1411 188 q 1471 77 1442 107 q 1553 29 1500 47 l 1553 29 l 1547 -10 q 1462 -3 1504 -6 q 1368 0 1419 0 l 1368 0 q 1163 -10 1299 0 l 1163 -10 l 1157 29 q 1239 80 1214 47 q 1264 164 1264 113 l 1264 164 q 1247 267 1264 200 l 1247 267 l 1150 643 q 1086 832 1119 764 l 1086 832 l 775 -21 l 754 -21 l 411 753 l 276 294 q 260 192 260 236 l 260 192 q 292 95 260 135 q 397 29 325 56 l 397 29 l 392 -10 q 183 0 265 0 l 183 0 q 19 -10 128 0 l 19 -10 l 14 29 z "},"N":{"ha":1292,"x_min":83,"x_max":1208,"o":"m 83 29 q 199 115 167 67 q 231 253 231 164 l 231 253 l 231 726 q 217 865 231 814 q 172 948 203 917 q 83 1006 142 979 l 83 1006 l 89 1044 q 215 1035 186 1035 l 215 1035 q 317 1046 253 1035 l 317 1046 l 1013 225 l 1013 782 q 999 884 1013 844 q 950 952 986 924 q 844 1006 914 981 l 844 1006 l 850 1044 q 1040 1035 958 1035 l 1040 1035 q 1203 1044 1107 1035 l 1203 1044 l 1208 1006 q 1097 920 1126 968 q 1068 782 1068 872 l 1068 782 l 1068 -1 l 1025 -26 l 286 846 l 286 253 q 299 151 286 190 q 349 84 313 113 q 454 29 385 56 l 454 29 l 449 -10 q 246 0 322 0 l 246 0 q 174 -3 210 0 q 89 -10 139 -6 l 89 -10 l 83 29 z "},"Ń":{"ha":1292,"x_min":83,"x_max":1208,"o":"m 83 29 q 199 115 167 67 q 231 253 231 164 l 231 253 l 231 726 q 217 865 231 814 q 172 948 203 917 q 83 1006 142 979 l 83 1006 l 89 1044 q 215 1035 186 1035 l 215 1035 q 317 1046 253 1035 l 317 1046 l 1013 225 l 1013 782 q 999 884 1013 844 q 950 952 986 924 q 844 1006 914 981 l 844 1006 l 850 1044 q 1040 1035 958 1035 l 1040 1035 q 1203 1044 1107 1035 l 1203 1044 l 1208 1006 q 1097 920 1126 968 q 1068 782 1068 872 l 1068 782 l 1068 -1 l 1025 -26 l 286 846 l 286 253 q 299 151 286 190 q 349 84 313 113 q 454 29 385 56 l 454 29 l 449 -10 q 246 0 322 0 l 246 0 q 174 -3 210 0 q 89 -10 139 -6 l 89 -10 l 83 29 z m 560 1107 l 671 1306 l 821 1306 l 831 1288 l 588 1088 l 560 1107 z "},"Ň":{"ha":1292,"x_min":83,"x_max":1208,"o":"m 83 29 q 199 115 167 67 q 231 253 231 164 l 231 253 l 231 726 q 217 865 231 814 q 172 948 203 917 q 83 1006 142 979 l 83 1006 l 89 1044 q 215 1035 186 1035 l 215 1035 q 317 1046 253 1035 l 317 1046 l 1013 225 l 1013 782 q 999 884 1013 844 q 950 952 986 924 q 844 1006 914 981 l 844 1006 l 850 1044 q 1040 1035 958 1035 l 1040 1035 q 1203 1044 1107 1035 l 1203 1044 l 1208 1006 q 1097 920 1126 968 q 1068 782 1068 872 l 1068 782 l 1068 -1 l 1025 -26 l 286 846 l 286 253 q 299 151 286 190 q 349 84 313 113 q 454 29 385 56 l 454 29 l 449 -10 q 246 0 322 0 l 246 0 q 174 -3 210 0 q 89 -10 139 -6 l 89 -10 l 83 29 z m 419 1297 l 435 1319 l 651 1226 l 868 1319 l 883 1297 l 660 1093 l 643 1093 l 419 1297 z "},"Ņ":{"ha":1292,"x_min":83,"x_max":1208,"o":"m 83 29 q 199 115 167 67 q 231 253 231 164 l 231 253 l 231 726 q 217 865 231 814 q 172 948 203 917 q 83 1006 142 979 l 83 1006 l 89 1044 q 215 1035 186 1035 l 215 1035 q 317 1046 253 1035 l 317 1046 l 1013 225 l 1013 782 q 999 884 1013 844 q 950 952 986 924 q 844 1006 914 981 l 844 1006 l 850 1044 q 1040 1035 958 1035 l 1040 1035 q 1203 1044 1107 1035 l 1203 1044 l 1208 1006 q 1097 920 1126 968 q 1068 782 1068 872 l 1068 782 l 1068 -1 l 1025 -26 l 286 846 l 286 253 q 299 151 286 190 q 349 84 313 113 q 454 29 385 56 l 454 29 l 449 -10 q 246 0 322 0 l 246 0 q 174 -3 210 0 q 89 -10 139 -6 l 89 -10 l 83 29 z m 531 -432 q 597 -375 572 -408 q 621 -304 621 -342 l 621 -304 q 538 -179 621 -236 l 538 -179 l 694 -89 q 757 -226 757 -153 l 757 -226 q 700 -360 757 -297 q 556 -460 643 -424 l 556 -460 l 531 -432 z "},"Ñ":{"ha":1292,"x_min":83,"x_max":1208,"o":"m 83 29 q 199 115 167 67 q 231 253 231 164 l 231 253 l 231 726 q 217 865 231 814 q 172 948 203 917 q 83 1006 142 979 l 83 1006 l 89 1044 q 215 1035 186 1035 l 215 1035 q 317 1046 253 1035 l 317 1046 l 1013 225 l 1013 782 q 999 884 1013 844 q 950 952 986 924 q 844 1006 914 981 l 844 1006 l 850 1044 q 1040 1035 958 1035 l 1040 1035 q 1203 1044 1107 1035 l 1203 1044 l 1208 1006 q 1097 920 1126 968 q 1068 782 1068 872 l 1068 782 l 1068 -1 l 1025 -26 l 286 846 l 286 253 q 299 151 286 190 q 349 84 313 113 q 454 29 385 56 l 454 29 l 449 -10 q 246 0 322 0 l 246 0 q 174 -3 210 0 q 89 -10 139 -6 l 89 -10 l 83 29 z m 549 1267 q 466 1229 499 1267 q 433 1140 433 1192 l 433 1140 q 436 1111 433 1131 l 436 1111 l 458 1113 q 478 1163 465 1144 q 526 1181 492 1181 l 526 1181 q 563 1171 544 1181 q 610 1142 582 1161 l 610 1142 q 677 1102 649 1115 q 739 1089 706 1089 l 739 1089 q 823 1128 789 1089 q 857 1219 857 1168 l 857 1219 q 854 1247 857 1228 l 854 1247 l 831 1247 q 761 1179 821 1179 l 761 1179 q 730 1188 746 1179 q 689 1213 714 1196 l 689 1213 q 619 1253 650 1239 q 549 1267 588 1267 l 549 1267 z "},"Ŋ":{"ha":1294,"x_min":83,"x_max":1239,"o":"m 83 29 q 199 115 167 67 q 231 253 231 164 l 231 253 l 231 726 q 217 865 231 814 q 172 948 203 917 q 83 1006 142 979 l 83 1006 l 89 1044 q 215 1035 186 1035 l 215 1035 q 317 1046 253 1035 l 317 1046 l 1022 213 l 1022 810 q 984 933 1022 888 q 861 1006 946 978 l 861 1006 l 867 1044 q 1051 1035 985 1035 l 1051 1035 q 1233 1044 1138 1035 l 1233 1044 l 1239 1006 q 1116 932 1154 976 q 1078 810 1078 888 l 1078 810 l 1078 -32 q 1035 -231 1078 -167 q 907 -296 993 -296 l 907 -296 q 771 -268 850 -296 l 771 -268 l 774 -237 q 894 -211 838 -237 q 986 -136 951 -185 q 1022 -24 1021 -87 l 1022 -24 l 286 846 l 286 253 q 299 151 286 190 q 349 84 313 113 q 454 29 385 56 l 454 29 l 449 -10 q 246 0 322 0 l 246 0 q 174 -3 210 0 q 89 -10 139 -6 l 89 -10 l 83 29 z "},"O":{"ha":1144,"x_min":42,"x_max":1103,"o":"m 572 -21 q 305 49 426 -21 q 113 243 183 119 q 42 519 42 367 l 42 519 q 113 788 42 665 q 306 983 185 911 q 572 1056 428 1056 l 572 1056 q 838 986 717 1056 q 1031 794 960 917 q 1103 519 1103 671 l 1103 519 q 1031 249 1103 372 q 838 52 960 125 q 572 -21 715 -21 l 572 -21 z m 744 68 q 902 199 846 104 q 958 421 958 293 l 958 421 q 900 685 958 554 l 900 685 q 728 900 840 819 q 494 981 615 981 l 494 981 q 392 964 442 981 l 392 964 q 245 835 297 931 q 193 613 193 740 l 193 613 q 243 357 193 483 l 243 357 q 341 196 279 265 q 480 88 403 126 q 638 50 557 50 l 638 50 q 744 68 694 50 l 744 68 z "},"Ó":{"ha":1144,"x_min":42,"x_max":1103,"o":"m 572 -21 q 305 49 426 -21 q 113 243 183 119 q 42 519 42 367 l 42 519 q 113 788 42 665 q 306 983 185 911 q 572 1056 428 1056 l 572 1056 q 838 986 717 1056 q 1031 794 960 917 q 1103 519 1103 671 l 1103 519 q 1031 249 1103 372 q 838 52 960 125 q 572 -21 715 -21 l 572 -21 z m 744 68 q 902 199 846 104 q 958 421 958 293 l 958 421 q 900 685 958 554 l 900 685 q 728 900 840 819 q 494 981 615 981 l 494 981 q 392 964 442 981 l 392 964 q 245 835 297 931 q 193 613 193 740 l 193 613 q 243 357 193 483 l 243 357 q 341 196 279 265 q 480 88 403 126 q 638 50 557 50 l 638 50 q 744 68 694 50 l 744 68 z m 476 1107 l 588 1306 l 738 1306 l 747 1288 l 504 1088 l 476 1107 z "},"Ǒ":{"ha":1144,"x_min":42,"x_max":1103,"o":"m 572 -21 q 305 49 426 -21 q 113 243 183 119 q 42 519 42 367 l 42 519 q 113 788 42 665 q 306 983 185 911 q 572 1056 428 1056 l 572 1056 q 838 986 717 1056 q 1031 794 960 917 q 1103 519 1103 671 l 1103 519 q 1031 249 1103 372 q 838 52 960 125 q 572 -21 715 -21 l 572 -21 z m 744 68 q 902 199 846 104 q 958 421 958 293 l 958 421 q 900 685 958 554 l 900 685 q 728 900 840 819 q 494 981 615 981 l 494 981 q 392 964 442 981 l 392 964 q 245 835 297 931 q 193 613 193 740 l 193 613 q 243 357 193 483 l 243 357 q 341 196 279 265 q 480 88 403 126 q 638 50 557 50 l 638 50 q 744 68 694 50 l 744 68 z m 336 1297 l 351 1319 l 568 1226 l 785 1319 l 800 1297 l 576 1093 l 560 1093 l 336 1297 z "},"Ô":{"ha":1144,"x_min":42,"x_max":1103,"o":"m 572 -21 q 305 49 426 -21 q 113 243 183 119 q 42 519 42 367 l 42 519 q 113 788 42 665 q 306 983 185 911 q 572 1056 428 1056 l 572 1056 q 838 986 717 1056 q 1031 794 960 917 q 1103 519 1103 671 l 1103 519 q 1031 249 1103 372 q 838 52 960 125 q 572 -21 715 -21 l 572 -21 z m 744 68 q 902 199 846 104 q 958 421 958 293 l 958 421 q 900 685 958 554 l 900 685 q 728 900 840 819 q 494 981 615 981 l 494 981 q 392 964 442 981 l 392 964 q 245 835 297 931 q 193 613 193 740 l 193 613 q 243 357 193 483 l 243 357 q 341 196 279 265 q 480 88 403 126 q 638 50 557 50 l 638 50 q 744 68 694 50 l 744 68 z m 340 1115 l 564 1319 l 581 1319 l 804 1115 l 789 1093 l 572 1186 l 356 1093 l 340 1115 z "},"Ö":{"ha":1144,"x_min":42,"x_max":1103,"o":"m 572 -21 q 305 49 426 -21 q 113 243 183 119 q 42 519 42 367 l 42 519 q 113 788 42 665 q 306 983 185 911 q 572 1056 428 1056 l 572 1056 q 838 986 717 1056 q 1031 794 960 917 q 1103 519 1103 671 l 1103 519 q 1031 249 1103 372 q 838 52 960 125 q 572 -21 715 -21 l 572 -21 z m 744 68 q 902 199 846 104 q 958 421 958 293 l 958 421 q 900 685 958 554 l 900 685 q 728 900 840 819 q 494 981 615 981 l 494 981 q 392 964 442 981 l 392 964 q 245 835 297 931 q 193 613 193 740 l 193 613 q 243 357 193 483 l 243 357 q 341 196 279 265 q 480 88 403 126 q 638 50 557 50 l 638 50 q 744 68 694 50 l 744 68 z m 717 1110 q 664 1132 686 1110 q 642 1185 642 1154 l 642 1185 q 664 1238 642 1217 q 717 1260 686 1260 l 717 1260 q 770 1238 749 1260 q 792 1185 792 1217 l 792 1185 q 770 1132 792 1154 q 717 1110 749 1110 l 717 1110 z m 421 1110 q 368 1132 390 1110 q 346 1185 346 1154 l 346 1185 q 368 1238 346 1217 q 421 1260 390 1260 l 421 1260 q 474 1238 453 1260 q 496 1185 496 1217 l 496 1185 q 474 1132 496 1154 q 421 1110 453 1110 l 421 1110 z "},"Ò":{"ha":1144,"x_min":42,"x_max":1103,"o":"m 572 -21 q 305 49 426 -21 q 113 243 183 119 q 42 519 42 367 l 42 519 q 113 788 42 665 q 306 983 185 911 q 572 1056 428 1056 l 572 1056 q 838 986 717 1056 q 1031 794 960 917 q 1103 519 1103 671 l 1103 519 q 1031 249 1103 372 q 838 52 960 125 q 572 -21 715 -21 l 572 -21 z m 744 68 q 902 199 846 104 q 958 421 958 293 l 958 421 q 900 685 958 554 l 900 685 q 728 900 840 819 q 494 981 615 981 l 494 981 q 392 964 442 981 l 392 964 q 245 835 297 931 q 193 613 193 740 l 193 613 q 243 357 193 483 l 243 357 q 341 196 279 265 q 480 88 403 126 q 638 50 557 50 l 638 50 q 744 68 694 50 l 744 68 z m 675 1107 l 647 1088 l 404 1288 l 414 1306 l 564 1306 l 675 1107 z "},"Ő":{"ha":1144,"x_min":42,"x_max":1103,"o":"m 572 -21 q 305 49 426 -21 q 113 243 183 119 q 42 519 42 367 l 42 519 q 113 788 42 665 q 306 983 185 911 q 572 1056 428 1056 l 572 1056 q 838 986 717 1056 q 1031 794 960 917 q 1103 519 1103 671 l 1103 519 q 1031 249 1103 372 q 838 52 960 125 q 572 -21 715 -21 l 572 -21 z m 744 68 q 902 199 846 104 q 958 421 958 293 l 958 421 q 900 685 958 554 l 900 685 q 728 900 840 819 q 494 981 615 981 l 494 981 q 392 964 442 981 l 392 964 q 245 835 297 931 q 193 613 193 740 l 193 613 q 243 357 193 483 l 243 357 q 341 196 279 265 q 480 88 403 126 q 638 50 557 50 l 638 50 q 744 68 694 50 l 744 68 z m 449 1125 l 443 1288 l 581 1343 l 596 1332 l 481 1119 l 449 1125 z m 668 1125 l 663 1288 l 800 1343 l 815 1332 l 700 1119 l 668 1125 z "},"Ō":{"ha":1144,"x_min":42,"x_max":1103,"o":"m 572 -21 q 305 49 426 -21 q 113 243 183 119 q 42 519 42 367 l 42 519 q 113 788 42 665 q 306 983 185 911 q 572 1056 428 1056 l 572 1056 q 838 986 717 1056 q 1031 794 960 917 q 1103 519 1103 671 l 1103 519 q 1031 249 1103 372 q 838 52 960 125 q 572 -21 715 -21 l 572 -21 z m 744 68 q 902 199 846 104 q 958 421 958 293 l 958 421 q 900 685 958 554 l 900 685 q 728 900 840 819 q 494 981 615 981 l 494 981 q 392 964 442 981 l 392 964 q 245 835 297 931 q 193 613 193 740 l 193 613 q 243 357 193 483 l 243 357 q 341 196 279 265 q 480 88 403 126 q 638 50 557 50 l 638 50 q 744 68 694 50 l 744 68 z m 371 1161 l 369 1231 l 775 1231 l 775 1161 l 371 1161 z "},"Ø":{"ha":1144,"x_min":42,"x_max":1103,"o":"m 572 -21 q 394 8 479 -21 q 242 92 310 38 l 242 92 l 161 0 l 68 0 l 190 139 q 81 310 119 213 q 42 519 42 407 l 42 519 q 113 788 42 665 q 306 983 185 911 q 572 1056 428 1056 l 572 1056 q 747 1028 664 1056 q 896 947 829 1000 l 896 947 l 972 1035 l 1065 1035 l 949 901 q 1063 731 1022 829 q 1103 519 1103 633 l 1103 519 q 1031 249 1103 372 q 838 52 960 125 q 572 -21 715 -21 l 572 -21 z m 744 68 q 902 199 846 104 q 958 421 958 293 l 958 421 q 900 685 958 554 l 900 685 q 844 782 881 729 l 844 782 l 336 200 q 476 90 397 129 q 638 50 556 50 l 638 50 q 744 68 694 50 l 744 68 z m 243 357 q 293 258 264 301 l 293 258 l 799 836 q 655 943 735 906 q 494 981 575 981 l 494 981 q 392 964 442 981 l 392 964 q 245 835 297 931 q 193 613 193 740 l 193 613 q 243 357 193 483 l 243 357 z "},"Õ":{"ha":1144,"x_min":42,"x_max":1103,"o":"m 572 -21 q 305 49 426 -21 q 113 243 183 119 q 42 519 42 367 l 42 519 q 113 788 42 665 q 306 983 185 911 q 572 1056 428 1056 l 572 1056 q 838 986 717 1056 q 1031 794 960 917 q 1103 519 1103 671 l 1103 519 q 1031 249 1103 372 q 838 52 960 125 q 572 -21 715 -21 l 572 -21 z m 744 68 q 902 199 846 104 q 958 421 958 293 l 958 421 q 900 685 958 554 l 900 685 q 728 900 840 819 q 494 981 615 981 l 494 981 q 392 964 442 981 l 392 964 q 245 835 297 931 q 193 613 193 740 l 193 613 q 243 357 193 483 l 243 357 q 341 196 279 265 q 480 88 403 126 q 638 50 557 50 l 638 50 q 744 68 694 50 l 744 68 z m 465 1267 q 383 1229 415 1267 q 350 1140 350 1192 l 350 1140 q 353 1111 350 1131 l 353 1111 l 375 1113 q 395 1163 382 1144 q 443 1181 408 1181 l 443 1181 q 480 1171 461 1181 q 526 1142 499 1161 l 526 1142 q 594 1102 565 1115 q 656 1089 622 1089 l 656 1089 q 740 1128 706 1089 q 774 1219 774 1168 l 774 1219 q 771 1247 774 1228 l 771 1247 l 747 1247 q 678 1179 738 1179 l 678 1179 q 647 1188 663 1179 q 606 1213 631 1196 l 606 1213 q 535 1253 567 1239 q 465 1267 504 1267 l 465 1267 z "},"Œ":{"ha":1972,"x_min":42,"x_max":1944,"o":"m 572 -21 q 305 49 426 -21 q 113 243 183 119 q 42 519 42 367 l 42 519 q 113 788 42 665 q 306 983 185 911 q 572 1056 428 1056 l 572 1056 q 839 985 717 1056 q 1031 794 961 915 l 1031 794 q 1222 985 1103 914 q 1478 1056 1342 1056 l 1478 1056 q 1668 1028 1554 1056 l 1668 1028 q 1799 1007 1757 1007 l 1799 1007 q 1882 1028 1846 1007 l 1882 1028 l 1901 1014 q 1857 672 1851 817 l 1857 672 l 1822 668 q 1681 917 1775 836 q 1451 999 1586 999 l 1451 999 q 1275 945 1354 999 q 1149 798 1196 892 q 1099 588 1101 704 l 1099 588 l 1101 567 l 1382 567 q 1515 604 1465 567 q 1576 735 1565 642 l 1576 735 l 1611 735 q 1640 508 1626 600 q 1676 319 1654 417 l 1676 319 l 1642 307 q 1539 468 1594 425 q 1396 511 1483 511 l 1396 511 l 1103 511 l 1103 504 q 1176 297 1117 389 q 1326 153 1235 206 q 1525 101 1418 101 l 1525 101 q 1766 176 1678 101 q 1911 413 1854 250 l 1911 413 l 1944 407 q 1786 92 1904 206 q 1478 -21 1668 -21 l 1478 -21 q 1215 50 1335 -21 q 1026 242 1096 121 l 1026 242 q 835 51 956 122 q 572 -21 714 -21 l 572 -21 z m 744 68 q 909 211 853 107 q 958 453 965 315 l 958 453 q 956 486 956 475 l 956 486 q 900 685 942 588 l 900 685 q 728 900 840 819 q 494 981 615 981 l 494 981 q 392 964 442 981 l 392 964 q 245 835 297 931 q 193 613 193 740 l 193 613 q 243 357 193 483 l 243 357 q 341 196 279 265 q 480 88 403 126 q 638 50 557 50 l 638 50 q 744 68 694 50 l 744 68 z "},"P":{"ha":950,"x_min":83,"x_max":922,"o":"m 83 29 q 194 99 164 56 q 224 225 224 143 l 224 225 l 224 810 q 194 935 224 892 q 83 1006 164 979 l 83 1006 l 89 1044 q 288 1035 207 1035 l 288 1035 q 517 1042 385 1035 l 517 1042 l 551 1043 q 748 1006 664 1043 q 877 901 832 969 q 922 739 922 832 l 922 739 q 458 392 922 454 l 458 392 l 349 376 l 349 225 q 378 100 349 143 q 489 29 408 57 l 489 29 l 483 -10 q 288 0 388 0 l 288 0 q 89 -10 207 0 l 89 -10 l 83 29 z m 349 433 l 428 444 q 769 729 769 494 l 769 729 q 681 918 769 854 q 429 982 592 982 l 429 982 q 349 978 390 982 l 349 978 l 349 433 z "},"Þ":{"ha":888,"x_min":83,"x_max":860,"o":"m 83 29 q 194 99 164 56 q 224 225 224 143 l 224 225 l 224 810 q 194 935 224 892 q 83 1006 164 979 l 83 1006 l 89 1044 q 288 1035 207 1035 l 288 1035 q 483 1044 388 1035 l 483 1044 l 489 1006 q 378 935 408 978 q 349 810 349 892 l 349 810 l 349 806 l 407 811 q 489 815 451 815 l 489 815 q 766 737 672 815 q 860 525 860 658 l 860 525 q 766 313 860 392 q 489 235 672 235 l 489 235 q 407 239 451 235 l 407 239 l 349 244 l 349 225 q 378 100 349 143 q 489 29 408 57 l 489 29 l 483 -10 q 288 0 388 0 l 288 0 q 89 -10 207 0 l 89 -10 l 83 29 z m 349 299 l 407 293 q 451 290 438 290 l 451 290 q 632 353 571 290 q 693 525 693 417 l 693 525 q 632 697 693 633 q 451 760 571 760 l 451 760 q 407 757 438 760 l 407 757 l 349 751 l 349 299 z "},"Q":{"ha":1153,"x_min":42,"x_max":1111,"o":"m 572 21 q 507 25 539 21 l 507 25 l 553 13 q 797 -43 697 -25 l 797 -43 q 875 -50 839 -50 l 875 -50 q 1092 -1 982 -50 l 1092 -1 l 1111 -26 l 1057 -81 q 986 -153 1015 -122 q 922 -229 957 -185 l 922 -229 q 594 -92 731 -132 q 331 -51 457 -51 l 331 -51 q 151 -67 250 -51 l 151 -67 l 140 -33 l 233 -11 q 330 11 265 -4 q 444 35 394 26 l 444 35 q 238 133 329 63 q 94 310 146 204 q 42 540 42 415 l 42 540 q 113 799 42 681 q 306 986 185 917 q 572 1056 428 1056 l 572 1056 q 838 988 717 1056 q 1031 803 960 921 q 1103 540 1103 686 l 1103 540 q 1031 280 1103 399 q 838 91 960 161 q 572 21 715 21 l 572 21 z m 743 108 q 902 234 846 143 q 958 447 958 325 l 958 447 q 900 699 958 569 l 900 699 q 728 905 840 828 q 494 982 615 982 l 494 982 q 392 965 442 982 l 392 965 q 245 842 297 932 q 193 629 193 751 l 193 629 q 243 383 193 506 l 243 383 q 406 171 297 251 q 636 90 514 90 l 636 90 q 743 108 693 90 l 743 108 z "},"R":{"ha":1086,"x_min":83,"x_max":1086,"o":"m 83 29 q 194 99 164 56 q 224 225 224 143 l 224 225 l 224 810 q 194 935 224 892 q 83 1006 164 979 l 83 1006 l 89 1044 q 288 1035 207 1035 l 288 1035 q 517 1042 385 1035 l 517 1042 q 567 1043 533 1043 l 567 1043 q 831 978 739 1043 q 922 794 922 913 l 922 794 q 861 636 922 703 q 675 521 800 569 l 675 521 l 828 286 q 925 151 885 199 q 1000 79 965 104 q 1086 32 1035 54 l 1086 32 l 1065 -7 q 939 -1 1008 -1 l 939 -1 q 832 -7 872 -1 l 832 -7 q 550 482 733 222 l 550 482 l 349 428 l 349 225 q 378 100 349 143 q 489 29 408 57 l 489 29 l 483 -10 q 288 0 388 0 l 288 0 q 89 -10 207 0 l 89 -10 l 83 29 z m 349 485 l 483 521 q 697 628 625 558 q 769 785 769 697 l 769 785 q 692 938 769 892 q 468 985 615 985 l 468 985 q 349 979 406 985 l 349 979 l 349 485 z "},"Ŕ":{"ha":1086,"x_min":83,"x_max":1086,"o":"m 83 29 q 194 99 164 56 q 224 225 224 143 l 224 225 l 224 810 q 194 935 224 892 q 83 1006 164 979 l 83 1006 l 89 1044 q 288 1035 207 1035 l 288 1035 q 517 1042 385 1035 l 517 1042 q 567 1043 533 1043 l 567 1043 q 831 978 739 1043 q 922 794 922 913 l 922 794 q 861 636 922 703 q 675 521 800 569 l 675 521 l 828 286 q 925 151 885 199 q 1000 79 965 104 q 1086 32 1035 54 l 1086 32 l 1065 -7 q 939 -1 1008 -1 l 939 -1 q 832 -7 872 -1 l 832 -7 q 550 482 733 222 l 550 482 l 349 428 l 349 225 q 378 100 349 143 q 489 29 408 57 l 489 29 l 483 -10 q 288 0 388 0 l 288 0 q 89 -10 207 0 l 89 -10 l 83 29 z m 349 485 l 483 521 q 697 628 625 558 q 769 785 769 697 l 769 785 q 692 938 769 892 q 468 985 615 985 l 468 985 q 349 979 406 985 l 349 979 l 349 485 z m 453 1107 l 564 1306 l 714 1306 l 724 1288 l 481 1088 l 453 1107 z "},"Ř":{"ha":1086,"x_min":83,"x_max":1086,"o":"m 83 29 q 194 99 164 56 q 224 225 224 143 l 224 225 l 224 810 q 194 935 224 892 q 83 1006 164 979 l 83 1006 l 89 1044 q 288 1035 207 1035 l 288 1035 q 517 1042 385 1035 l 517 1042 q 567 1043 533 1043 l 567 1043 q 831 978 739 1043 q 922 794 922 913 l 922 794 q 861 636 922 703 q 675 521 800 569 l 675 521 l 828 286 q 925 151 885 199 q 1000 79 965 104 q 1086 32 1035 54 l 1086 32 l 1065 -7 q 939 -1 1008 -1 l 939 -1 q 832 -7 872 -1 l 832 -7 q 550 482 733 222 l 550 482 l 349 428 l 349 225 q 378 100 349 143 q 489 29 408 57 l 489 29 l 483 -10 q 288 0 388 0 l 288 0 q 89 -10 207 0 l 89 -10 l 83 29 z m 349 485 l 483 521 q 697 628 625 558 q 769 785 769 697 l 769 785 q 692 938 769 892 q 468 985 615 985 l 468 985 q 349 979 406 985 l 349 979 l 349 485 z m 313 1297 l 328 1319 l 544 1226 l 761 1319 l 776 1297 l 553 1093 l 536 1093 l 313 1297 z "},"Ŗ":{"ha":1086,"x_min":83,"x_max":1086,"o":"m 83 29 q 194 99 164 56 q 224 225 224 143 l 224 225 l 224 810 q 194 935 224 892 q 83 1006 164 979 l 83 1006 l 89 1044 q 288 1035 207 1035 l 288 1035 q 517 1042 385 1035 l 517 1042 q 567 1043 533 1043 l 567 1043 q 831 978 739 1043 q 922 794 922 913 l 922 794 q 861 636 922 703 q 675 521 800 569 l 675 521 l 828 286 q 925 151 885 199 q 1000 79 965 104 q 1086 32 1035 54 l 1086 32 l 1065 -7 q 939 -1 1008 -1 l 939 -1 q 832 -7 872 -1 l 832 -7 q 550 482 733 222 l 550 482 l 349 428 l 349 225 q 378 100 349 143 q 489 29 408 57 l 489 29 l 483 -10 q 288 0 388 0 l 288 0 q 89 -10 207 0 l 89 -10 l 83 29 z m 349 485 l 483 521 q 697 628 625 558 q 769 785 769 697 l 769 785 q 692 938 769 892 q 468 985 615 985 l 468 985 q 349 979 406 985 l 349 979 l 349 485 z m 479 -432 q 545 -375 521 -408 q 569 -304 569 -342 l 569 -304 q 486 -179 569 -236 l 486 -179 l 643 -89 q 706 -226 706 -153 l 706 -226 q 649 -360 706 -297 q 504 -460 592 -424 l 504 -460 l 479 -432 z "},"S":{"ha":928,"x_min":83,"x_max":858,"o":"m 136 392 q 294 118 196 201 q 511 35 392 35 l 511 35 q 677 76 615 35 q 739 183 739 118 l 739 183 q 707 282 739 238 q 604 370 675 326 q 414 465 533 414 l 414 465 q 180 614 253 535 q 107 794 107 693 l 107 794 q 156 937 107 878 q 283 1026 204 996 q 447 1056 361 1056 l 447 1056 q 519 1051 489 1056 q 593 1039 549 1047 l 593 1039 q 685 1024 642 1029 q 792 1019 728 1019 l 792 1019 q 785 869 785 956 l 785 869 q 794 692 785 778 l 794 692 l 763 685 q 624 924 715 847 q 429 1000 533 1000 l 429 1000 q 289 958 349 1000 q 229 850 229 915 l 229 850 q 299 708 229 771 q 524 576 368 646 l 524 576 q 720 472 649 521 q 825 369 792 424 q 858 244 858 315 l 858 244 q 763 50 858 121 q 472 -21 668 -21 l 472 -21 q 279 -8 372 -21 q 83 36 186 4 l 83 36 q 105 130 97 72 q 113 249 113 188 l 113 249 q 101 381 113 322 l 101 381 l 136 392 z "},"Ś":{"ha":928,"x_min":83,"x_max":858,"o":"m 136 392 q 294 118 196 201 q 511 35 392 35 l 511 35 q 677 76 615 35 q 739 183 739 118 l 739 183 q 707 282 739 238 q 604 370 675 326 q 414 465 533 414 l 414 465 q 180 614 253 535 q 107 794 107 693 l 107 794 q 156 937 107 878 q 283 1026 204 996 q 447 1056 361 1056 l 447 1056 q 519 1051 489 1056 q 593 1039 549 1047 l 593 1039 q 685 1024 642 1029 q 792 1019 728 1019 l 792 1019 q 785 869 785 956 l 785 869 q 794 692 785 778 l 794 692 l 763 685 q 624 924 715 847 q 429 1000 533 1000 l 429 1000 q 289 958 349 1000 q 229 850 229 915 l 229 850 q 299 708 229 771 q 524 576 368 646 l 524 576 q 720 472 649 521 q 825 369 792 424 q 858 244 858 315 l 858 244 q 763 50 858 121 q 472 -21 668 -21 l 472 -21 q 279 -8 372 -21 q 83 36 186 4 l 83 36 q 105 130 97 72 q 113 249 113 188 l 113 249 q 101 381 113 322 l 101 381 l 136 392 z m 390 1107 l 501 1306 l 651 1306 l 661 1288 l 418 1088 l 390 1107 z "},"Š":{"ha":928,"x_min":83,"x_max":858,"o":"m 136 392 q 294 118 196 201 q 511 35 392 35 l 511 35 q 677 76 615 35 q 739 183 739 118 l 739 183 q 707 282 739 238 q 604 370 675 326 q 414 465 533 414 l 414 465 q 180 614 253 535 q 107 794 107 693 l 107 794 q 156 937 107 878 q 283 1026 204 996 q 447 1056 361 1056 l 447 1056 q 519 1051 489 1056 q 593 1039 549 1047 l 593 1039 q 685 1024 642 1029 q 792 1019 728 1019 l 792 1019 q 785 869 785 956 l 785 869 q 794 692 785 778 l 794 692 l 763 685 q 624 924 715 847 q 429 1000 533 1000 l 429 1000 q 289 958 349 1000 q 229 850 229 915 l 229 850 q 299 708 229 771 q 524 576 368 646 l 524 576 q 720 472 649 521 q 825 369 792 424 q 858 244 858 315 l 858 244 q 763 50 858 121 q 472 -21 668 -21 l 472 -21 q 279 -8 372 -21 q 83 36 186 4 l 83 36 q 105 130 97 72 q 113 249 113 188 l 113 249 q 101 381 113 322 l 101 381 l 136 392 z m 250 1297 l 265 1319 l 482 1226 l 699 1319 l 714 1297 l 490 1093 l 474 1093 l 250 1297 z "},"Ş":{"ha":928,"x_min":83,"x_max":858,"o":"m 136 392 q 294 118 196 201 q 511 35 392 35 l 511 35 q 677 76 615 35 q 739 183 739 118 l 739 183 q 707 282 739 238 q 604 370 675 326 q 414 465 533 414 l 414 465 q 180 614 253 535 q 107 794 107 693 l 107 794 q 156 937 107 878 q 283 1026 204 996 q 447 1056 361 1056 l 447 1056 q 519 1051 489 1056 q 593 1039 549 1047 l 593 1039 q 685 1024 642 1029 q 792 1019 728 1019 l 792 1019 q 785 869 785 956 l 785 869 q 794 692 785 778 l 794 692 l 763 685 q 624 924 715 847 q 429 1000 533 1000 l 429 1000 q 289 958 349 1000 q 229 850 229 915 l 229 850 q 299 708 229 771 q 524 576 368 646 l 524 576 q 720 472 649 521 q 825 369 792 424 q 858 244 858 315 l 858 244 q 771 56 858 126 q 503 -21 683 -15 l 503 -21 l 494 -79 q 627 -105 578 -79 q 676 -175 676 -131 l 676 -175 q 626 -261 676 -225 q 504 -297 576 -297 l 504 -297 q 372 -272 431 -297 q 271 -208 313 -247 l 271 -208 l 289 -190 q 463 -242 378 -242 l 463 -242 q 528 -228 503 -242 q 553 -192 553 -214 l 553 -192 q 499 -140 553 -153 q 381 -126 444 -126 l 381 -126 l 475 -21 l 472 -21 q 279 -8 372 -21 q 83 36 186 4 l 83 36 q 105 130 97 72 q 113 249 113 188 l 113 249 q 101 381 113 322 l 101 381 l 136 392 z "},"Ș":{"ha":928,"x_min":83,"x_max":858,"o":"m 136 392 q 294 118 196 201 q 511 35 392 35 l 511 35 q 677 76 615 35 q 739 183 739 118 l 739 183 q 707 282 739 238 q 604 370 675 326 q 414 465 533 414 l 414 465 q 180 614 253 535 q 107 794 107 693 l 107 794 q 156 937 107 878 q 283 1026 204 996 q 447 1056 361 1056 l 447 1056 q 519 1051 489 1056 q 593 1039 549 1047 l 593 1039 q 685 1024 642 1029 q 792 1019 728 1019 l 792 1019 q 785 869 785 956 l 785 869 q 794 692 785 778 l 794 692 l 763 685 q 624 924 715 847 q 429 1000 533 1000 l 429 1000 q 289 958 349 1000 q 229 850 229 915 l 229 850 q 299 708 229 771 q 524 576 368 646 l 524 576 q 720 472 649 521 q 825 369 792 424 q 858 244 858 315 l 858 244 q 763 50 858 121 q 472 -21 668 -21 l 472 -21 q 279 -8 372 -21 q 83 36 186 4 l 83 36 q 105 130 97 72 q 113 249 113 188 l 113 249 q 101 381 113 322 l 101 381 l 136 392 z m 336 -449 q 402 -392 378 -425 q 426 -321 426 -358 l 426 -321 q 343 -196 426 -253 l 343 -196 l 500 -106 q 563 -243 563 -169 l 563 -243 q 506 -377 563 -314 q 361 -476 449 -440 l 361 -476 l 336 -449 z "},"T":{"ha":1015,"x_min":14,"x_max":1001,"o":"m 264 29 q 378 72 339 47 q 432 133 418 97 q 446 225 446 168 l 446 225 l 446 822 q 417 944 446 906 q 314 982 389 982 l 314 982 q 138 900 199 982 q 61 650 78 818 l 61 650 l 22 650 l 14 1043 q 508 1035 168 1036 l 508 1035 l 597 1035 q 1001 1043 771 1035 l 1001 1043 l 994 650 l 956 650 q 878 900 939 818 q 703 982 818 982 l 703 982 q 599 944 628 982 q 571 822 571 906 l 571 822 l 571 225 q 585 133 571 168 q 638 72 599 97 q 753 29 678 47 l 753 29 l 747 -10 q 510 0 593 0 l 510 0 q 269 -10 446 0 l 269 -10 l 264 29 z "},"Ŧ":{"ha":1031,"x_min":14,"x_max":1001,"o":"m 264 29 q 378 72 339 47 q 432 133 418 97 q 446 225 446 168 l 446 225 l 446 453 l 179 453 l 178 522 l 446 522 l 446 822 q 417 944 446 906 q 314 982 389 982 l 314 982 q 138 900 199 982 q 61 650 78 818 l 61 650 l 22 650 l 14 1043 q 508 1035 168 1036 l 508 1035 l 597 1035 q 1001 1043 771 1035 l 1001 1043 l 994 650 l 956 650 q 878 900 939 818 q 703 982 818 982 l 703 982 q 599 944 628 982 q 571 822 571 906 l 571 822 l 571 522 l 839 522 l 839 453 l 571 453 l 571 225 q 585 133 571 168 q 638 72 599 97 q 753 29 678 47 l 753 29 l 747 -10 q 510 0 593 0 l 510 0 q 269 -10 446 0 l 269 -10 l 264 29 z "},"Ť":{"ha":1015,"x_min":14,"x_max":1001,"o":"m 264 29 q 378 72 339 47 q 432 133 418 97 q 446 225 446 168 l 446 225 l 446 822 q 417 944 446 906 q 314 982 389 982 l 314 982 q 138 900 199 982 q 61 650 78 818 l 61 650 l 22 650 l 14 1043 q 508 1035 168 1036 l 508 1035 l 597 1035 q 1001 1043 771 1035 l 1001 1043 l 994 650 l 956 650 q 878 900 939 818 q 703 982 818 982 l 703 982 q 599 944 628 982 q 571 822 571 906 l 571 822 l 571 225 q 585 133 571 168 q 638 72 599 97 q 753 29 678 47 l 753 29 l 747 -10 q 510 0 593 0 l 510 0 q 269 -10 446 0 l 269 -10 l 264 29 z m 279 1297 l 294 1319 l 511 1226 l 728 1319 l 743 1297 l 519 1093 l 503 1093 l 279 1297 z "},"Ţ":{"ha":1015,"x_min":14,"x_max":1001,"o":"m 264 29 q 378 72 339 47 q 432 133 418 97 q 446 225 446 168 l 446 225 l 446 822 q 417 944 446 906 q 314 982 389 982 l 314 982 q 138 900 199 982 q 61 650 78 818 l 61 650 l 22 650 l 14 1043 q 508 1035 168 1036 l 508 1035 l 597 1035 q 1001 1043 771 1035 l 1001 1043 l 994 650 l 956 650 q 878 900 939 818 q 703 982 818 982 l 703 982 q 599 944 628 982 q 571 822 571 906 l 571 822 l 571 225 q 585 133 571 168 q 638 72 599 97 q 753 29 678 47 l 753 29 l 747 -10 q 519 0 603 0 l 519 0 l 511 -61 q 644 -87 594 -61 q 693 -157 693 -112 l 693 -157 q 643 -243 693 -207 q 521 -279 593 -279 l 521 -279 q 388 -254 447 -279 q 288 -190 329 -229 l 288 -190 l 306 -172 q 479 -224 394 -224 l 479 -224 q 544 -210 519 -224 q 569 -174 569 -196 l 569 -174 q 515 -122 569 -135 q 397 -108 461 -108 l 397 -108 l 494 0 q 343 -6 482 0 l 343 -6 l 269 -10 l 264 29 z "},"Ț":{"ha":1015,"x_min":14,"x_max":1001,"o":"m 264 29 q 378 72 339 47 q 432 133 418 97 q 446 225 446 168 l 446 225 l 446 822 q 417 944 446 906 q 314 982 389 982 l 314 982 q 138 900 199 982 q 61 650 78 818 l 61 650 l 22 650 l 14 1043 q 508 1035 168 1036 l 508 1035 l 597 1035 q 1001 1043 771 1035 l 1001 1043 l 994 650 l 956 650 q 878 900 939 818 q 703 982 818 982 l 703 982 q 599 944 628 982 q 571 822 571 906 l 571 822 l 571 225 q 585 133 571 168 q 638 72 599 97 q 753 29 678 47 l 753 29 l 747 -10 q 510 0 593 0 l 510 0 q 269 -10 446 0 l 269 -10 l 264 29 z m 390 -432 q 456 -375 432 -408 q 481 -304 481 -342 l 481 -304 q 397 -179 481 -236 l 397 -179 l 554 -89 q 617 -226 617 -153 l 617 -226 q 560 -360 617 -297 q 415 -460 503 -424 l 415 -460 l 390 -432 z "},"U":{"ha":1164,"x_min":28,"x_max":1136,"o":"m 600 -21 q 281 104 393 -21 q 168 461 168 229 l 168 461 l 168 810 q 138 935 168 892 q 28 1006 108 978 l 28 1006 l 33 1044 q 258 1035 163 1035 l 258 1035 q 432 1042 310 1035 l 432 1042 l 476 1044 l 482 1003 q 360 960 400 985 q 306 902 319 936 q 293 810 293 868 l 293 810 l 293 492 q 378 205 293 306 q 621 104 464 104 l 621 104 q 858 199 775 104 q 940 469 940 293 l 940 469 l 940 713 q 895 908 940 840 q 731 1003 850 976 l 731 1003 l 736 1044 q 949 1035 908 1035 l 949 1035 q 1131 1044 1035 1035 l 1131 1044 l 1136 1006 q 1026 910 1057 979 q 996 713 996 840 l 996 713 l 996 442 q 893 99 996 219 q 600 -21 790 -21 l 600 -21 z "},"Ú":{"ha":1164,"x_min":28,"x_max":1136,"o":"m 600 -21 q 281 104 393 -21 q 168 461 168 229 l 168 461 l 168 810 q 138 935 168 892 q 28 1006 108 978 l 28 1006 l 33 1044 q 258 1035 163 1035 l 258 1035 q 432 1042 310 1035 l 432 1042 l 476 1044 l 482 1003 q 360 960 400 985 q 306 902 319 936 q 293 810 293 868 l 293 810 l 293 492 q 378 205 293 306 q 621 104 464 104 l 621 104 q 858 199 775 104 q 940 469 940 293 l 940 469 l 940 713 q 895 908 940 840 q 731 1003 850 976 l 731 1003 l 736 1044 q 949 1035 908 1035 l 949 1035 q 1131 1044 1035 1035 l 1131 1044 l 1136 1006 q 1026 910 1057 979 q 996 713 996 840 l 996 713 l 996 442 q 893 99 996 219 q 600 -21 790 -21 l 600 -21 z m 501 1107 l 613 1306 l 763 1306 l 772 1288 l 529 1088 l 501 1107 z "},"Ǔ":{"ha":1164,"x_min":28,"x_max":1136,"o":"m 600 -21 q 281 104 393 -21 q 168 461 168 229 l 168 461 l 168 810 q 138 935 168 892 q 28 1006 108 978 l 28 1006 l 33 1044 q 258 1035 163 1035 l 258 1035 q 432 1042 310 1035 l 432 1042 l 476 1044 l 482 1003 q 360 960 400 985 q 306 902 319 936 q 293 810 293 868 l 293 810 l 293 492 q 378 205 293 306 q 621 104 464 104 l 621 104 q 858 199 775 104 q 940 469 940 293 l 940 469 l 940 713 q 895 908 940 840 q 731 1003 850 976 l 731 1003 l 736 1044 q 949 1035 908 1035 l 949 1035 q 1131 1044 1035 1035 l 1131 1044 l 1136 1006 q 1026 910 1057 979 q 996 713 996 840 l 996 713 l 996 442 q 893 99 996 219 q 600 -21 790 -21 l 600 -21 z m 361 1297 l 376 1319 l 593 1226 l 810 1319 l 825 1297 l 601 1093 l 585 1093 l 361 1297 z "},"Û":{"ha":1164,"x_min":28,"x_max":1136,"o":"m 600 -21 q 281 104 393 -21 q 168 461 168 229 l 168 461 l 168 810 q 138 935 168 892 q 28 1006 108 978 l 28 1006 l 33 1044 q 258 1035 163 1035 l 258 1035 q 432 1042 310 1035 l 432 1042 l 476 1044 l 482 1003 q 360 960 400 985 q 306 902 319 936 q 293 810 293 868 l 293 810 l 293 492 q 378 205 293 306 q 621 104 464 104 l 621 104 q 858 199 775 104 q 940 469 940 293 l 940 469 l 940 713 q 895 908 940 840 q 731 1003 850 976 l 731 1003 l 736 1044 q 949 1035 908 1035 l 949 1035 q 1131 1044 1035 1035 l 1131 1044 l 1136 1006 q 1026 910 1057 979 q 996 713 996 840 l 996 713 l 996 442 q 893 99 996 219 q 600 -21 790 -21 l 600 -21 z m 365 1115 l 589 1319 l 606 1319 l 829 1115 l 814 1093 l 597 1186 l 381 1093 l 365 1115 z "},"Ü":{"ha":1164,"x_min":28,"x_max":1136,"o":"m 600 -21 q 281 104 393 -21 q 168 461 168 229 l 168 461 l 168 810 q 138 935 168 892 q 28 1006 108 978 l 28 1006 l 33 1044 q 258 1035 163 1035 l 258 1035 q 432 1042 310 1035 l 432 1042 l 476 1044 l 482 1003 q 360 960 400 985 q 306 902 319 936 q 293 810 293 868 l 293 810 l 293 492 q 378 205 293 306 q 621 104 464 104 l 621 104 q 858 199 775 104 q 940 469 940 293 l 940 469 l 940 713 q 895 908 940 840 q 731 1003 850 976 l 731 1003 l 736 1044 q 949 1035 908 1035 l 949 1035 q 1131 1044 1035 1035 l 1131 1044 l 1136 1006 q 1026 910 1057 979 q 996 713 996 840 l 996 713 l 996 442 q 893 99 996 219 q 600 -21 790 -21 l 600 -21 z m 742 1110 q 689 1132 711 1110 q 667 1185 667 1154 l 667 1185 q 689 1238 667 1217 q 742 1260 711 1260 l 742 1260 q 795 1238 774 1260 q 817 1185 817 1217 l 817 1185 q 795 1132 817 1154 q 742 1110 774 1110 l 742 1110 z m 446 1110 q 393 1132 415 1110 q 371 1185 371 1154 l 371 1185 q 393 1238 371 1217 q 446 1260 415 1260 l 446 1260 q 499 1238 478 1260 q 521 1185 521 1217 l 521 1185 q 499 1132 521 1154 q 446 1110 478 1110 l 446 1110 z "},"Ǘ":{"ha":1164,"x_min":28,"x_max":1136,"o":"m 600 -21 q 281 104 393 -21 q 168 461 168 229 l 168 461 l 168 810 q 138 935 168 892 q 28 1006 108 978 l 28 1006 l 33 1044 q 258 1035 163 1035 l 258 1035 q 432 1042 310 1035 l 432 1042 l 476 1044 l 482 1003 q 360 960 400 985 q 306 902 319 936 q 293 810 293 868 l 293 810 l 293 492 q 378 205 293 306 q 621 104 464 104 l 621 104 q 858 199 775 104 q 940 469 940 293 l 940 469 l 940 713 q 895 908 940 840 q 731 1003 850 976 l 731 1003 l 736 1044 q 949 1035 908 1035 l 949 1035 q 1131 1044 1035 1035 l 1131 1044 l 1136 1006 q 1026 910 1057 979 q 996 713 996 840 l 996 713 l 996 442 q 893 99 996 219 q 600 -21 790 -21 l 600 -21 z m 742 1110 q 689 1132 711 1110 q 667 1185 667 1154 l 667 1185 q 689 1238 667 1217 q 742 1260 711 1260 l 742 1260 q 795 1238 774 1260 q 817 1185 817 1217 l 817 1185 q 795 1132 817 1154 q 742 1110 774 1110 l 742 1110 z m 446 1110 q 393 1132 415 1110 q 371 1185 371 1154 l 371 1185 q 393 1238 371 1217 q 446 1260 415 1260 l 446 1260 q 499 1238 478 1260 q 521 1185 521 1217 l 521 1185 q 499 1132 521 1154 q 446 1110 478 1110 l 446 1110 z m 501 1394 l 613 1593 l 763 1593 l 772 1575 l 529 1375 l 501 1394 z "},"Ǚ":{"ha":1164,"x_min":28,"x_max":1136,"o":"m 600 -21 q 281 104 393 -21 q 168 461 168 229 l 168 461 l 168 810 q 138 935 168 892 q 28 1006 108 978 l 28 1006 l 33 1044 q 258 1035 163 1035 l 258 1035 q 432 1042 310 1035 l 432 1042 l 476 1044 l 482 1003 q 360 960 400 985 q 306 902 319 936 q 293 810 293 868 l 293 810 l 293 492 q 378 205 293 306 q 621 104 464 104 l 621 104 q 858 199 775 104 q 940 469 940 293 l 940 469 l 940 713 q 895 908 940 840 q 731 1003 850 976 l 731 1003 l 736 1044 q 949 1035 908 1035 l 949 1035 q 1131 1044 1035 1035 l 1131 1044 l 1136 1006 q 1026 910 1057 979 q 996 713 996 840 l 996 713 l 996 442 q 893 99 996 219 q 600 -21 790 -21 l 600 -21 z m 742 1110 q 689 1132 711 1110 q 667 1185 667 1154 l 667 1185 q 689 1238 667 1217 q 742 1260 711 1260 l 742 1260 q 795 1238 774 1260 q 817 1185 817 1217 l 817 1185 q 795 1132 817 1154 q 742 1110 774 1110 l 742 1110 z m 446 1110 q 393 1132 415 1110 q 371 1185 371 1154 l 371 1185 q 393 1238 371 1217 q 446 1260 415 1260 l 446 1260 q 499 1238 478 1260 q 521 1185 521 1217 l 521 1185 q 499 1132 521 1154 q 446 1110 478 1110 l 446 1110 z m 361 1585 l 376 1607 l 593 1514 l 810 1607 l 825 1585 l 601 1381 l 585 1381 l 361 1585 z "},"Ǜ":{"ha":1164,"x_min":28,"x_max":1136,"o":"m 600 -21 q 281 104 393 -21 q 168 461 168 229 l 168 461 l 168 810 q 138 935 168 892 q 28 1006 108 978 l 28 1006 l 33 1044 q 258 1035 163 1035 l 258 1035 q 432 1042 310 1035 l 432 1042 l 476 1044 l 482 1003 q 360 960 400 985 q 306 902 319 936 q 293 810 293 868 l 293 810 l 293 492 q 378 205 293 306 q 621 104 464 104 l 621 104 q 858 199 775 104 q 940 469 940 293 l 940 469 l 940 713 q 895 908 940 840 q 731 1003 850 976 l 731 1003 l 736 1044 q 949 1035 908 1035 l 949 1035 q 1131 1044 1035 1035 l 1131 1044 l 1136 1006 q 1026 910 1057 979 q 996 713 996 840 l 996 713 l 996 442 q 893 99 996 219 q 600 -21 790 -21 l 600 -21 z m 742 1110 q 689 1132 711 1110 q 667 1185 667 1154 l 667 1185 q 689 1238 667 1217 q 742 1260 711 1260 l 742 1260 q 795 1238 774 1260 q 817 1185 817 1217 l 817 1185 q 795 1132 817 1154 q 742 1110 774 1110 l 742 1110 z m 446 1110 q 393 1132 415 1110 q 371 1185 371 1154 l 371 1185 q 393 1238 371 1217 q 446 1260 415 1260 l 446 1260 q 499 1238 478 1260 q 521 1185 521 1217 l 521 1185 q 499 1132 521 1154 q 446 1110 478 1110 l 446 1110 z m 700 1394 l 672 1375 l 429 1575 l 439 1593 l 589 1593 l 700 1394 z "},"Ǖ":{"ha":1164,"x_min":28,"x_max":1136,"o":"m 600 -21 q 281 104 393 -21 q 168 461 168 229 l 168 461 l 168 810 q 138 935 168 892 q 28 1006 108 978 l 28 1006 l 33 1044 q 258 1035 163 1035 l 258 1035 q 432 1042 310 1035 l 432 1042 l 476 1044 l 482 1003 q 360 960 400 985 q 306 902 319 936 q 293 810 293 868 l 293 810 l 293 492 q 378 205 293 306 q 621 104 464 104 l 621 104 q 858 199 775 104 q 940 469 940 293 l 940 469 l 940 713 q 895 908 940 840 q 731 1003 850 976 l 731 1003 l 736 1044 q 949 1035 908 1035 l 949 1035 q 1131 1044 1035 1035 l 1131 1044 l 1136 1006 q 1026 910 1057 979 q 996 713 996 840 l 996 713 l 996 442 q 893 99 996 219 q 600 -21 790 -21 l 600 -21 z m 742 1110 q 689 1132 711 1110 q 667 1185 667 1154 l 667 1185 q 689 1238 667 1217 q 742 1260 711 1260 l 742 1260 q 795 1238 774 1260 q 817 1185 817 1217 l 817 1185 q 795 1132 817 1154 q 742 1110 774 1110 l 742 1110 z m 446 1110 q 393 1132 415 1110 q 371 1185 371 1154 l 371 1185 q 393 1238 371 1217 q 446 1260 415 1260 l 446 1260 q 499 1238 478 1260 q 521 1185 521 1217 l 521 1185 q 499 1132 521 1154 q 446 1110 478 1110 l 446 1110 z m 396 1449 l 394 1518 l 800 1518 l 800 1449 l 396 1449 z "},"Ù":{"ha":1164,"x_min":28,"x_max":1136,"o":"m 600 -21 q 281 104 393 -21 q 168 461 168 229 l 168 461 l 168 810 q 138 935 168 892 q 28 1006 108 978 l 28 1006 l 33 1044 q 258 1035 163 1035 l 258 1035 q 432 1042 310 1035 l 432 1042 l 476 1044 l 482 1003 q 360 960 400 985 q 306 902 319 936 q 293 810 293 868 l 293 810 l 293 492 q 378 205 293 306 q 621 104 464 104 l 621 104 q 858 199 775 104 q 940 469 940 293 l 940 469 l 940 713 q 895 908 940 840 q 731 1003 850 976 l 731 1003 l 736 1044 q 949 1035 908 1035 l 949 1035 q 1131 1044 1035 1035 l 1131 1044 l 1136 1006 q 1026 910 1057 979 q 996 713 996 840 l 996 713 l 996 442 q 893 99 996 219 q 600 -21 790 -21 l 600 -21 z m 700 1107 l 672 1088 l 429 1288 l 439 1306 l 589 1306 l 700 1107 z "},"Ű":{"ha":1164,"x_min":28,"x_max":1136,"o":"m 600 -21 q 281 104 393 -21 q 168 461 168 229 l 168 461 l 168 810 q 138 935 168 892 q 28 1006 108 978 l 28 1006 l 33 1044 q 258 1035 163 1035 l 258 1035 q 432 1042 310 1035 l 432 1042 l 476 1044 l 482 1003 q 360 960 400 985 q 306 902 319 936 q 293 810 293 868 l 293 810 l 293 492 q 378 205 293 306 q 621 104 464 104 l 621 104 q 858 199 775 104 q 940 469 940 293 l 940 469 l 940 713 q 895 908 940 840 q 731 1003 850 976 l 731 1003 l 736 1044 q 949 1035 908 1035 l 949 1035 q 1131 1044 1035 1035 l 1131 1044 l 1136 1006 q 1026 910 1057 979 q 996 713 996 840 l 996 713 l 996 442 q 893 99 996 219 q 600 -21 790 -21 l 600 -21 z m 474 1125 l 468 1288 l 606 1343 l 621 1332 l 506 1119 l 474 1125 z m 693 1125 l 688 1288 l 825 1343 l 840 1332 l 725 1119 l 693 1125 z "},"Ū":{"ha":1164,"x_min":28,"x_max":1136,"o":"m 600 -21 q 281 104 393 -21 q 168 461 168 229 l 168 461 l 168 810 q 138 935 168 892 q 28 1006 108 978 l 28 1006 l 33 1044 q 258 1035 163 1035 l 258 1035 q 432 1042 310 1035 l 432 1042 l 476 1044 l 482 1003 q 360 960 400 985 q 306 902 319 936 q 293 810 293 868 l 293 810 l 293 492 q 378 205 293 306 q 621 104 464 104 l 621 104 q 858 199 775 104 q 940 469 940 293 l 940 469 l 940 713 q 895 908 940 840 q 731 1003 850 976 l 731 1003 l 736 1044 q 949 1035 908 1035 l 949 1035 q 1131 1044 1035 1035 l 1131 1044 l 1136 1006 q 1026 910 1057 979 q 996 713 996 840 l 996 713 l 996 442 q 893 99 996 219 q 600 -21 790 -21 l 600 -21 z m 396 1161 l 394 1231 l 800 1231 l 800 1161 l 396 1161 z "},"Ų":{"ha":1164,"x_min":28,"x_max":1136,"o":"m 617 -267 q 523 -230 560 -267 q 486 -143 486 -193 l 486 -143 q 513 -71 486 -103 q 579 -21 539 -39 l 579 -21 q 275 110 382 -15 q 168 461 168 236 l 168 461 l 168 810 q 138 935 168 892 q 28 1006 108 978 l 28 1006 l 33 1044 q 258 1035 163 1035 l 258 1035 q 432 1042 310 1035 l 432 1042 l 476 1044 l 482 1003 q 360 960 400 985 q 306 902 319 936 q 293 810 293 868 l 293 810 l 293 492 q 378 205 293 306 q 621 104 464 104 l 621 104 q 858 199 775 104 q 940 469 940 293 l 940 469 l 940 713 q 895 908 940 840 q 731 1003 850 976 l 731 1003 l 736 1044 q 949 1035 908 1035 l 949 1035 q 1131 1044 1035 1035 l 1131 1044 l 1136 1006 q 1026 910 1057 979 q 996 713 996 840 l 996 713 l 996 442 q 910 121 996 239 q 665 -17 825 3 l 665 -17 q 596 -50 619 -26 q 572 -108 572 -74 l 572 -108 q 596 -162 572 -142 q 660 -182 619 -182 l 660 -182 q 782 -118 714 -182 l 782 -118 l 806 -142 q 731 -226 779 -186 q 617 -267 682 -267 l 617 -267 z "},"Ů":{"ha":1164,"x_min":28,"x_max":1136,"o":"m 600 -21 q 281 104 393 -21 q 168 461 168 229 l 168 461 l 168 810 q 138 935 168 892 q 28 1006 108 978 l 28 1006 l 33 1044 q 258 1035 163 1035 l 258 1035 q 432 1042 310 1035 l 432 1042 l 476 1044 l 482 1003 q 360 960 400 985 q 306 902 319 936 q 293 810 293 868 l 293 810 l 293 492 q 378 205 293 306 q 621 104 464 104 l 621 104 q 858 199 775 104 q 940 469 940 293 l 940 469 l 940 713 q 895 908 940 840 q 731 1003 850 976 l 731 1003 l 736 1044 q 949 1035 908 1035 l 949 1035 q 1131 1044 1035 1035 l 1131 1044 l 1136 1006 q 1026 910 1057 979 q 996 713 996 840 l 996 713 l 996 442 q 893 99 996 219 q 600 -21 790 -21 l 600 -21 z m 504 1144 q 467 1239 467 1185 l 467 1239 q 504 1332 467 1294 l 504 1332 q 599 1369 544 1369 l 599 1369 q 690 1332 653 1369 l 690 1332 q 729 1238 729 1293 l 729 1238 q 690 1146 729 1183 l 690 1146 q 594 1107 649 1107 l 594 1107 q 504 1144 540 1107 l 504 1144 z m 543 1183 q 593 1163 564 1163 l 593 1163 q 651 1185 626 1163 l 651 1185 q 674 1238 674 1206 l 674 1238 q 651 1293 674 1271 l 651 1293 q 599 1314 631 1314 l 599 1314 q 543 1293 567 1314 l 543 1293 q 521 1239 521 1272 l 521 1239 q 543 1183 521 1206 l 543 1183 z "},"V":{"ha":1172,"x_min":-42,"x_max":1214,"o":"m -35 1043 q 233 1035 106 1035 l 233 1035 q 508 1043 339 1035 l 508 1043 l 513 1003 q 378 959 425 992 q 332 872 332 926 l 332 872 q 351 794 332 835 l 351 794 l 640 174 l 904 750 q 928 846 928 801 l 928 846 q 880 950 928 910 q 746 1003 832 990 l 746 1003 l 753 1043 q 821 1040 800 1040 l 821 1040 q 978 1035 946 1035 l 978 1035 q 1208 1043 1097 1035 l 1208 1043 l 1214 1003 q 1105 956 1150 992 q 1028 869 1060 921 q 957 733 996 818 l 957 733 l 614 -21 l 581 -21 l 201 786 q 107 931 158 879 q -42 1003 56 982 l -42 1003 l -35 1043 z "},"W":{"ha":1610,"x_min":-42,"x_max":1651,"o":"m 201 786 q 113 928 168 876 q -42 1003 58 981 l -42 1003 l -35 1043 q 233 1035 140 1035 l 233 1035 q 508 1043 382 1035 l 508 1043 l 513 1003 q 376 959 422 992 q 331 869 331 926 l 331 869 q 346 794 331 838 l 346 794 l 554 225 l 833 1056 l 879 1056 l 1172 232 l 1342 750 q 1360 844 1360 808 l 1360 844 q 1183 1003 1360 978 l 1183 1003 l 1190 1043 q 1415 1035 1335 1035 l 1415 1035 q 1646 1043 1507 1035 l 1646 1043 l 1651 1003 q 1494 919 1554 986 q 1394 733 1433 853 l 1394 733 l 1149 -21 l 1115 -21 l 814 824 l 531 -21 l 497 -21 l 201 786 z "},"Ẃ":{"ha":1610,"x_min":-42,"x_max":1651,"o":"m 201 786 q 113 928 168 876 q -42 1003 58 981 l -42 1003 l -35 1043 q 233 1035 140 1035 l 233 1035 q 508 1043 382 1035 l 508 1043 l 513 1003 q 376 959 422 992 q 331 869 331 926 l 331 869 q 346 794 331 838 l 346 794 l 554 225 l 833 1056 l 879 1056 l 1172 232 l 1342 750 q 1360 844 1360 808 l 1360 844 q 1183 1003 1360 978 l 1183 1003 l 1190 1043 q 1415 1035 1335 1035 l 1415 1035 q 1646 1043 1507 1035 l 1646 1043 l 1651 1003 q 1494 919 1554 986 q 1394 733 1433 853 l 1394 733 l 1149 -21 l 1115 -21 l 814 824 l 531 -21 l 497 -21 l 201 786 z m 754 1107 l 865 1306 l 1015 1306 l 1025 1288 l 782 1088 l 754 1107 z "},"Ŵ":{"ha":1610,"x_min":-42,"x_max":1651,"o":"m 201 786 q 113 928 168 876 q -42 1003 58 981 l -42 1003 l -35 1043 q 233 1035 140 1035 l 233 1035 q 508 1043 382 1035 l 508 1043 l 513 1003 q 376 959 422 992 q 331 869 331 926 l 331 869 q 346 794 331 838 l 346 794 l 554 225 l 833 1056 l 879 1056 l 1172 232 l 1342 750 q 1360 844 1360 808 l 1360 844 q 1183 1003 1360 978 l 1183 1003 l 1190 1043 q 1415 1035 1335 1035 l 1415 1035 q 1646 1043 1507 1035 l 1646 1043 l 1651 1003 q 1494 919 1554 986 q 1394 733 1433 853 l 1394 733 l 1149 -21 l 1115 -21 l 814 824 l 531 -21 l 497 -21 l 201 786 z m 618 1115 l 842 1319 l 858 1319 l 1082 1115 l 1067 1093 l 850 1186 l 633 1093 l 618 1115 z "},"Ẅ":{"ha":1610,"x_min":-42,"x_max":1651,"o":"m 201 786 q 113 928 168 876 q -42 1003 58 981 l -42 1003 l -35 1043 q 233 1035 140 1035 l 233 1035 q 508 1043 382 1035 l 508 1043 l 513 1003 q 376 959 422 992 q 331 869 331 926 l 331 869 q 346 794 331 838 l 346 794 l 554 225 l 833 1056 l 879 1056 l 1172 232 l 1342 750 q 1360 844 1360 808 l 1360 844 q 1183 1003 1360 978 l 1183 1003 l 1190 1043 q 1415 1035 1335 1035 l 1415 1035 q 1646 1043 1507 1035 l 1646 1043 l 1651 1003 q 1494 919 1554 986 q 1394 733 1433 853 l 1394 733 l 1149 -21 l 1115 -21 l 814 824 l 531 -21 l 497 -21 l 201 786 z m 994 1110 q 942 1132 964 1110 q 919 1185 919 1154 l 919 1185 q 942 1238 919 1217 q 994 1260 964 1260 l 994 1260 q 1048 1238 1026 1260 q 1069 1185 1069 1217 l 1069 1185 q 1048 1132 1069 1154 q 994 1110 1026 1110 l 994 1110 z m 699 1110 q 646 1132 668 1110 q 624 1185 624 1154 l 624 1185 q 646 1238 624 1217 q 699 1260 668 1260 l 699 1260 q 752 1238 731 1260 q 774 1185 774 1217 l 774 1185 q 752 1132 774 1154 q 699 1110 731 1110 l 699 1110 z "},"Ẁ":{"ha":1610,"x_min":-42,"x_max":1651,"o":"m 201 786 q 113 928 168 876 q -42 1003 58 981 l -42 1003 l -35 1043 q 233 1035 140 1035 l 233 1035 q 508 1043 382 1035 l 508 1043 l 513 1003 q 376 959 422 992 q 331 869 331 926 l 331 869 q 346 794 331 838 l 346 794 l 554 225 l 833 1056 l 879 1056 l 1172 232 l 1342 750 q 1360 844 1360 808 l 1360 844 q 1183 1003 1360 978 l 1183 1003 l 1190 1043 q 1415 1035 1335 1035 l 1415 1035 q 1646 1043 1507 1035 l 1646 1043 l 1651 1003 q 1494 919 1554 986 q 1394 733 1433 853 l 1394 733 l 1149 -21 l 1115 -21 l 814 824 l 531 -21 l 497 -21 l 201 786 z m 953 1107 l 925 1088 l 682 1288 l 692 1306 l 842 1306 l 953 1107 z "},"X":{"ha":1168,"x_min":0,"x_max":1168,"o":"m 0 31 q 173 105 97 50 q 317 249 249 160 l 317 249 l 515 513 l 296 828 q 178 945 244 901 q 13 1004 111 989 l 13 1004 l 19 1043 q 240 1035 153 1035 l 240 1035 q 522 1043 372 1035 l 522 1043 l 529 1004 q 441 972 468 996 q 414 914 414 947 l 414 914 q 442 838 414 876 l 442 838 l 596 618 l 726 790 q 782 915 782 865 l 782 915 q 674 1004 782 988 l 674 1004 l 681 1043 q 882 1035 810 1035 l 882 1035 q 1113 1043 990 1035 l 1113 1043 l 1119 1004 q 788 776 938 976 l 788 776 l 631 568 l 879 213 q 997 96 933 136 q 1168 31 1060 56 l 1168 31 l 1161 -10 q 910 3 1007 3 l 910 3 q 777 -1 857 3 q 628 -10 697 -4 l 628 -10 l 621 31 q 727 67 693 44 q 761 124 761 89 l 761 124 q 718 222 761 160 l 718 222 l 550 463 l 385 243 q 335 129 335 176 l 335 129 q 366 66 335 92 q 460 31 397 40 l 460 31 l 453 -10 q 238 3 324 3 l 238 3 q 7 -10 131 3 l 7 -10 l 0 31 z "},"Y":{"ha":1076,"x_min":0,"x_max":1076,"o":"m 6 1043 l 65 1040 q 214 1035 190 1035 l 214 1035 q 501 1043 308 1035 l 501 1043 l 506 1003 q 360 907 360 988 l 360 907 q 393 813 360 868 l 393 813 l 592 476 l 800 821 q 826 899 826 864 l 826 899 q 792 967 826 940 q 696 1003 758 994 l 696 1003 l 701 1043 q 876 1035 813 1035 l 876 1035 q 1069 1043 940 1035 l 1069 1043 l 1076 1003 q 850 793 942 942 l 850 793 l 622 421 l 622 225 q 635 133 622 169 q 685 72 649 97 q 790 29 722 47 l 790 29 l 785 -10 q 561 0 650 0 l 561 0 q 335 -10 492 0 l 335 -10 l 329 29 q 433 72 397 47 q 483 133 469 97 q 497 225 497 169 l 497 225 l 497 396 l 246 811 q 0 1003 172 933 l 0 1003 l 6 1043 z "},"Ý":{"ha":1076,"x_min":0,"x_max":1076,"o":"m 6 1043 l 65 1040 q 214 1035 190 1035 l 214 1035 q 501 1043 308 1035 l 501 1043 l 506 1003 q 360 907 360 988 l 360 907 q 393 813 360 868 l 393 813 l 592 476 l 800 821 q 826 899 826 864 l 826 899 q 792 967 826 940 q 696 1003 758 994 l 696 1003 l 701 1043 q 876 1035 813 1035 l 876 1035 q 1069 1043 940 1035 l 1069 1043 l 1076 1003 q 850 793 942 942 l 850 793 l 622 421 l 622 225 q 635 133 622 169 q 685 72 649 97 q 790 29 722 47 l 790 29 l 785 -10 q 561 0 650 0 l 561 0 q 335 -10 492 0 l 335 -10 l 329 29 q 433 72 397 47 q 483 133 469 97 q 497 225 497 169 l 497 225 l 497 396 l 246 811 q 0 1003 172 933 l 0 1003 l 6 1043 z m 504 1107 l 615 1306 l 765 1306 l 775 1288 l 532 1088 l 504 1107 z "},"Ŷ":{"ha":1076,"x_min":0,"x_max":1076,"o":"m 6 1043 l 65 1040 q 214 1035 190 1035 l 214 1035 q 501 1043 308 1035 l 501 1043 l 506 1003 q 360 907 360 988 l 360 907 q 393 813 360 868 l 393 813 l 592 476 l 800 821 q 826 899 826 864 l 826 899 q 792 967 826 940 q 696 1003 758 994 l 696 1003 l 701 1043 q 876 1035 813 1035 l 876 1035 q 1069 1043 940 1035 l 1069 1043 l 1076 1003 q 850 793 942 942 l 850 793 l 622 421 l 622 225 q 635 133 622 169 q 685 72 649 97 q 790 29 722 47 l 790 29 l 785 -10 q 561 0 650 0 l 561 0 q 335 -10 492 0 l 335 -10 l 329 29 q 433 72 397 47 q 483 133 469 97 q 497 225 497 169 l 497 225 l 497 396 l 246 811 q 0 1003 172 933 l 0 1003 l 6 1043 z m 368 1115 l 592 1319 l 608 1319 l 832 1115 l 817 1093 l 600 1186 l 383 1093 l 368 1115 z "},"Ÿ":{"ha":1076,"x_min":0,"x_max":1076,"o":"m 6 1043 l 65 1040 q 214 1035 190 1035 l 214 1035 q 501 1043 308 1035 l 501 1043 l 506 1003 q 360 907 360 988 l 360 907 q 393 813 360 868 l 393 813 l 592 476 l 800 821 q 826 899 826 864 l 826 899 q 792 967 826 940 q 696 1003 758 994 l 696 1003 l 701 1043 q 876 1035 813 1035 l 876 1035 q 1069 1043 940 1035 l 1069 1043 l 1076 1003 q 850 793 942 942 l 850 793 l 622 421 l 622 225 q 635 133 622 169 q 685 72 649 97 q 790 29 722 47 l 790 29 l 785 -10 q 561 0 650 0 l 561 0 q 335 -10 492 0 l 335 -10 l 329 29 q 433 72 397 47 q 483 133 469 97 q 497 225 497 169 l 497 225 l 497 396 l 246 811 q 0 1003 172 933 l 0 1003 l 6 1043 z m 744 1110 q 692 1132 714 1110 q 669 1185 669 1154 l 669 1185 q 692 1238 669 1217 q 744 1260 714 1260 l 744 1260 q 798 1238 776 1260 q 819 1185 819 1217 l 819 1185 q 798 1132 819 1154 q 744 1110 776 1110 l 744 1110 z m 449 1110 q 396 1132 418 1110 q 374 1185 374 1154 l 374 1185 q 396 1238 374 1217 q 449 1260 418 1260 l 449 1260 q 502 1238 481 1260 q 524 1185 524 1217 l 524 1185 q 502 1132 524 1154 q 449 1110 481 1110 l 449 1110 z "},"Ỳ":{"ha":1076,"x_min":0,"x_max":1076,"o":"m 6 1043 l 65 1040 q 214 1035 190 1035 l 214 1035 q 501 1043 308 1035 l 501 1043 l 506 1003 q 360 907 360 988 l 360 907 q 393 813 360 868 l 393 813 l 592 476 l 800 821 q 826 899 826 864 l 826 899 q 792 967 826 940 q 696 1003 758 994 l 696 1003 l 701 1043 q 876 1035 813 1035 l 876 1035 q 1069 1043 940 1035 l 1069 1043 l 1076 1003 q 850 793 942 942 l 850 793 l 622 421 l 622 225 q 635 133 622 169 q 685 72 649 97 q 790 29 722 47 l 790 29 l 785 -10 q 561 0 650 0 l 561 0 q 335 -10 492 0 l 335 -10 l 329 29 q 433 72 397 47 q 483 133 469 97 q 497 225 497 169 l 497 225 l 497 396 l 246 811 q 0 1003 172 933 l 0 1003 l 6 1043 z m 703 1107 l 675 1088 l 432 1288 l 442 1306 l 592 1306 l 703 1107 z "},"Z":{"ha":1001,"x_min":42,"x_max":974,"o":"m 57 0 l 42 31 l 736 981 l 499 976 q 334 944 401 974 q 220 840 267 914 q 150 635 174 767 l 150 635 l 114 639 q 119 767 119 696 l 119 767 q 82 1044 119 938 l 82 1044 l 111 1061 q 262 1039 174 1043 q 564 1035 350 1035 l 564 1035 l 904 1035 l 917 1003 l 225 54 l 496 65 q 706 95 625 69 q 838 192 788 121 q 894 401 888 264 l 894 401 l 931 400 q 974 24 935 171 l 974 24 l 951 0 l 57 0 z "},"Ź":{"ha":1001,"x_min":42,"x_max":974,"o":"m 57 0 l 42 31 l 736 981 l 499 976 q 334 944 401 974 q 220 840 267 914 q 150 635 174 767 l 150 635 l 114 639 q 119 767 119 696 l 119 767 q 82 1044 119 938 l 82 1044 l 111 1061 q 262 1039 174 1043 q 564 1035 350 1035 l 564 1035 l 904 1035 l 917 1003 l 225 54 l 496 65 q 706 95 625 69 q 838 192 788 121 q 894 401 888 264 l 894 401 l 931 400 q 974 24 935 171 l 974 24 l 951 0 l 57 0 z m 438 1107 l 549 1306 l 699 1306 l 708 1288 l 465 1088 l 438 1107 z "},"Ž":{"ha":1001,"x_min":42,"x_max":974,"o":"m 57 0 l 42 31 l 736 981 l 499 976 q 334 944 401 974 q 220 840 267 914 q 150 635 174 767 l 150 635 l 114 639 q 119 767 119 696 l 119 767 q 82 1044 119 938 l 82 1044 l 111 1061 q 262 1039 174 1043 q 564 1035 350 1035 l 564 1035 l 904 1035 l 917 1003 l 225 54 l 496 65 q 706 95 625 69 q 838 192 788 121 q 894 401 888 264 l 894 401 l 931 400 q 974 24 935 171 l 974 24 l 951 0 l 57 0 z m 297 1297 l 313 1319 l 529 1226 l 746 1319 l 761 1297 l 538 1093 l 521 1093 l 297 1297 z "},"Ż":{"ha":1001,"x_min":42,"x_max":974,"o":"m 57 0 l 42 31 l 736 981 l 499 976 q 334 944 401 974 q 220 840 267 914 q 150 635 174 767 l 150 635 l 114 639 q 119 767 119 696 l 119 767 q 82 1044 119 938 l 82 1044 l 111 1061 q 262 1039 174 1043 q 564 1035 350 1035 l 564 1035 l 904 1035 l 917 1003 l 225 54 l 496 65 q 706 95 625 69 q 838 192 788 121 q 894 401 888 264 l 894 401 l 931 400 q 974 24 935 171 l 974 24 l 951 0 l 57 0 z m 533 1125 q 481 1147 503 1125 q 460 1200 460 1169 l 460 1200 q 481 1252 460 1231 q 533 1274 503 1274 l 533 1274 q 587 1252 565 1274 q 608 1200 608 1231 l 608 1200 q 587 1147 608 1169 q 533 1125 565 1125 l 533 1125 z "},"a":{"ha":871,"x_min":56,"x_max":829,"o":"m 83 692 q 205 761 143 738 q 342 785 267 785 l 342 785 q 478 763 421 785 q 585 689 536 740 l 585 689 q 747 749 671 728 l 747 749 l 767 717 q 684 603 711 676 q 657 439 657 529 l 657 439 q 679 268 657 353 q 741 122 701 183 q 829 39 781 60 l 829 39 l 819 0 l 608 0 l 571 256 q 465 100 529 161 q 332 11 401 39 q 199 -17 263 -17 l 199 -17 q 97 10 135 -17 l 97 10 q 67 51 78 24 q 56 114 56 78 l 56 114 q 97 267 56 182 q 230 448 138 353 q 468 632 322 543 l 468 632 q 292 699 407 699 l 292 699 q 92 664 210 699 l 92 664 l 83 692 z m 226 132 q 294 108 253 108 l 294 108 q 388 135 339 108 q 475 211 436 163 l 475 211 q 540 408 540 299 l 540 408 q 521 539 540 471 l 521 539 q 513 558 517 550 q 507 574 510 567 l 507 574 q 303 419 392 508 l 303 419 q 226 313 253 369 q 199 207 199 256 l 199 207 q 226 132 199 160 l 226 132 z "},"á":{"ha":871,"x_min":56,"x_max":829,"o":"m 83 692 q 205 761 143 738 q 342 785 267 785 l 342 785 q 478 763 421 785 q 585 689 536 740 l 585 689 q 747 749 671 728 l 747 749 l 767 717 q 684 603 711 676 q 657 439 657 529 l 657 439 q 679 268 657 353 q 741 122 701 183 q 829 39 781 60 l 829 39 l 819 0 l 608 0 l 571 256 q 465 100 529 161 q 332 11 401 39 q 199 -17 263 -17 l 199 -17 q 97 10 135 -17 l 97 10 q 67 51 78 24 q 56 114 56 78 l 56 114 q 97 267 56 182 q 230 448 138 353 q 468 632 322 543 l 468 632 q 292 699 407 699 l 292 699 q 92 664 210 699 l 92 664 l 83 692 z m 226 132 q 294 108 253 108 l 294 108 q 388 135 339 108 q 475 211 436 163 l 475 211 q 540 408 540 299 l 540 408 q 521 539 540 471 l 521 539 q 513 558 517 550 q 507 574 510 567 l 507 574 q 303 419 392 508 l 303 419 q 226 313 253 369 q 199 207 199 256 l 199 207 q 226 132 199 160 l 226 132 z m 381 878 l 492 1160 l 642 1160 l 651 1142 l 408 858 l 381 878 z "},"ă":{"ha":871,"x_min":56,"x_max":829,"o":"m 83 692 q 205 761 143 738 q 342 785 267 785 l 342 785 q 478 763 421 785 q 585 689 536 740 l 585 689 q 747 749 671 728 l 747 749 l 767 717 q 684 603 711 676 q 657 439 657 529 l 657 439 q 679 268 657 353 q 741 122 701 183 q 829 39 781 60 l 829 39 l 819 0 l 608 0 l 571 256 q 465 100 529 161 q 332 11 401 39 q 199 -17 263 -17 l 199 -17 q 97 10 135 -17 l 97 10 q 67 51 78 24 q 56 114 56 78 l 56 114 q 97 267 56 182 q 230 448 138 353 q 468 632 322 543 l 468 632 q 292 699 407 699 l 292 699 q 92 664 210 699 l 92 664 l 83 692 z m 226 132 q 294 108 253 108 l 294 108 q 388 135 339 108 q 475 211 436 163 l 475 211 q 540 408 540 299 l 540 408 q 521 539 540 471 l 521 539 q 513 558 517 550 q 507 574 510 567 l 507 574 q 303 419 392 508 l 303 419 q 226 313 253 369 q 199 207 199 256 l 199 207 q 226 132 199 160 l 226 132 z m 279 1150 q 342 1062 296 1093 q 443 1031 388 1031 l 443 1031 q 542 1063 496 1031 q 608 1150 589 1094 l 608 1150 l 643 1150 q 583 982 635 1046 q 444 918 532 918 l 444 918 q 305 982 357 918 q 244 1150 253 1046 l 244 1150 l 279 1150 z "},"ǎ":{"ha":871,"x_min":56,"x_max":829,"o":"m 83 692 q 205 761 143 738 q 342 785 267 785 l 342 785 q 478 763 421 785 q 585 689 536 740 l 585 689 q 747 749 671 728 l 747 749 l 767 717 q 684 603 711 676 q 657 439 657 529 l 657 439 q 679 268 657 353 q 741 122 701 183 q 829 39 781 60 l 829 39 l 819 0 l 608 0 l 571 256 q 465 100 529 161 q 332 11 401 39 q 199 -17 263 -17 l 199 -17 q 97 10 135 -17 l 97 10 q 67 51 78 24 q 56 114 56 78 l 56 114 q 97 267 56 182 q 230 448 138 353 q 468 632 322 543 l 468 632 q 292 699 407 699 l 292 699 q 92 664 210 699 l 92 664 l 83 692 z m 226 132 q 294 108 253 108 l 294 108 q 388 135 339 108 q 475 211 436 163 l 475 211 q 540 408 540 299 l 540 408 q 521 539 540 471 l 521 539 q 513 558 517 550 q 507 574 510 567 l 507 574 q 303 419 392 508 l 303 419 q 226 313 253 369 q 199 207 199 256 l 199 207 q 226 132 199 160 l 226 132 z m 197 1147 l 225 1167 l 442 1017 l 658 1167 l 686 1147 l 450 871 l 433 871 l 197 1147 z "},"â":{"ha":871,"x_min":56,"x_max":829,"o":"m 83 692 q 205 761 143 738 q 342 785 267 785 l 342 785 q 478 763 421 785 q 585 689 536 740 l 585 689 q 747 749 671 728 l 747 749 l 767 717 q 684 603 711 676 q 657 439 657 529 l 657 439 q 679 268 657 353 q 741 122 701 183 q 829 39 781 60 l 829 39 l 819 0 l 608 0 l 571 256 q 465 100 529 161 q 332 11 401 39 q 199 -17 263 -17 l 199 -17 q 97 10 135 -17 l 97 10 q 67 51 78 24 q 56 114 56 78 l 56 114 q 97 267 56 182 q 230 448 138 353 q 468 632 322 543 l 468 632 q 292 699 407 699 l 292 699 q 92 664 210 699 l 92 664 l 83 692 z m 226 132 q 294 108 253 108 l 294 108 q 388 135 339 108 q 475 211 436 163 l 475 211 q 540 408 540 299 l 540 408 q 521 539 540 471 l 521 539 q 513 558 517 550 q 507 574 510 567 l 507 574 q 303 419 392 508 l 303 419 q 226 313 253 369 q 199 207 199 256 l 199 207 q 226 132 199 160 l 226 132 z m 203 878 l 439 1154 l 456 1154 l 692 878 l 664 858 l 447 1008 l 231 858 l 203 878 z "},"ä":{"ha":871,"x_min":56,"x_max":829,"o":"m 83 692 q 205 761 143 738 q 342 785 267 785 l 342 785 q 478 763 421 785 q 585 689 536 740 l 585 689 q 747 749 671 728 l 747 749 l 767 717 q 684 603 711 676 q 657 439 657 529 l 657 439 q 679 268 657 353 q 741 122 701 183 q 829 39 781 60 l 829 39 l 819 0 l 608 0 l 571 256 q 465 100 529 161 q 332 11 401 39 q 199 -17 263 -17 l 199 -17 q 97 10 135 -17 l 97 10 q 67 51 78 24 q 56 114 56 78 l 56 114 q 97 267 56 182 q 230 448 138 353 q 468 632 322 543 l 468 632 q 292 699 407 699 l 292 699 q 92 664 210 699 l 92 664 l 83 692 z m 226 132 q 294 108 253 108 l 294 108 q 388 135 339 108 q 475 211 436 163 l 475 211 q 540 408 540 299 l 540 408 q 521 539 540 471 l 521 539 q 513 558 517 550 q 507 574 510 567 l 507 574 q 303 419 392 508 l 303 419 q 226 313 253 369 q 199 207 199 256 l 199 207 q 226 132 199 160 l 226 132 z m 571 914 q 513 938 536 914 q 489 996 489 963 l 489 996 q 513 1055 489 1031 q 571 1079 536 1079 l 571 1079 q 629 1055 606 1079 q 653 996 653 1031 l 653 996 q 629 938 653 963 q 571 914 606 914 l 571 914 z m 317 914 q 258 938 282 914 q 235 996 235 963 l 235 996 q 258 1055 235 1031 q 317 1079 282 1079 l 317 1079 q 375 1055 351 1079 q 399 996 399 1031 l 399 996 q 375 938 399 963 q 317 914 351 914 l 317 914 z "},"à":{"ha":871,"x_min":56,"x_max":829,"o":"m 83 692 q 205 761 143 738 q 342 785 267 785 l 342 785 q 478 763 421 785 q 585 689 536 740 l 585 689 q 747 749 671 728 l 747 749 l 767 717 q 684 603 711 676 q 657 439 657 529 l 657 439 q 679 268 657 353 q 741 122 701 183 q 829 39 781 60 l 829 39 l 819 0 l 608 0 l 571 256 q 465 100 529 161 q 332 11 401 39 q 199 -17 263 -17 l 199 -17 q 97 10 135 -17 l 97 10 q 67 51 78 24 q 56 114 56 78 l 56 114 q 97 267 56 182 q 230 448 138 353 q 468 632 322 543 l 468 632 q 292 699 407 699 l 292 699 q 92 664 210 699 l 92 664 l 83 692 z m 226 132 q 294 108 253 108 l 294 108 q 388 135 339 108 q 475 211 436 163 l 475 211 q 540 408 540 299 l 540 408 q 521 539 540 471 l 521 539 q 513 558 517 550 q 507 574 510 567 l 507 574 q 303 419 392 508 l 303 419 q 226 313 253 369 q 199 207 199 256 l 199 207 q 226 132 199 160 l 226 132 z m 489 878 l 461 858 l 218 1142 l 228 1160 l 378 1160 l 489 878 z "},"ā":{"ha":871,"x_min":56,"x_max":829,"o":"m 83 692 q 205 761 143 738 q 342 785 267 785 l 342 785 q 478 763 421 785 q 585 689 536 740 l 585 689 q 747 749 671 728 l 747 749 l 767 717 q 684 603 711 676 q 657 439 657 529 l 657 439 q 679 268 657 353 q 741 122 701 183 q 829 39 781 60 l 829 39 l 819 0 l 608 0 l 571 256 q 465 100 529 161 q 332 11 401 39 q 199 -17 263 -17 l 199 -17 q 97 10 135 -17 l 97 10 q 67 51 78 24 q 56 114 56 78 l 56 114 q 97 267 56 182 q 230 448 138 353 q 468 632 322 543 l 468 632 q 292 699 407 699 l 292 699 q 92 664 210 699 l 92 664 l 83 692 z m 226 132 q 294 108 253 108 l 294 108 q 388 135 339 108 q 475 211 436 163 l 475 211 q 540 408 540 299 l 540 408 q 521 539 540 471 l 521 539 q 513 558 517 550 q 507 574 510 567 l 507 574 q 303 419 392 508 l 303 419 q 226 313 253 369 q 199 207 199 256 l 199 207 q 226 132 199 160 l 226 132 z m 231 957 l 229 1026 l 635 1026 l 635 957 l 231 957 z "},"ą":{"ha":871,"x_min":56,"x_max":829,"o":"m 83 692 q 205 761 143 738 q 342 785 267 785 l 342 785 q 478 763 421 785 q 585 689 536 740 l 585 689 q 747 749 671 728 l 747 749 l 767 717 q 684 603 711 676 q 657 439 657 529 l 657 439 q 679 268 657 353 q 741 122 701 183 q 829 39 781 60 l 829 39 l 819 0 l 706 0 q 599 -33 633 0 q 565 -108 565 -65 l 565 -108 q 589 -162 565 -142 q 653 -182 613 -182 l 653 -182 q 775 -118 707 -182 l 775 -118 l 799 -142 q 724 -226 772 -186 q 610 -267 675 -267 l 610 -267 q 516 -230 553 -267 q 479 -143 479 -193 l 479 -143 q 519 -48 479 -93 q 606 15 560 -3 l 606 15 l 571 256 q 465 100 529 161 q 332 11 401 39 q 199 -17 263 -17 l 199 -17 q 97 10 135 -17 l 97 10 q 67 51 78 24 q 56 114 56 78 l 56 114 q 97 267 56 182 q 230 448 138 353 q 468 632 322 543 l 468 632 q 292 699 407 699 l 292 699 q 92 664 210 699 l 92 664 l 83 692 z m 226 132 q 294 108 253 108 l 294 108 q 388 135 339 108 q 475 211 436 163 l 475 211 q 540 408 540 299 l 540 408 q 521 539 540 471 l 521 539 q 513 558 517 550 q 507 574 510 567 l 507 574 q 303 419 392 508 l 303 419 q 226 313 253 369 q 199 207 199 256 l 199 207 q 226 132 199 160 l 226 132 z "},"å":{"ha":871,"x_min":56,"x_max":829,"o":"m 83 692 q 205 761 143 738 q 342 785 267 785 l 342 785 q 478 763 421 785 q 585 689 536 740 l 585 689 q 747 749 671 728 l 747 749 l 767 717 q 684 603 711 676 q 657 439 657 529 l 657 439 q 679 268 657 353 q 741 122 701 183 q 829 39 781 60 l 829 39 l 819 0 l 608 0 l 571 256 q 465 100 529 161 q 332 11 401 39 q 199 -17 263 -17 l 199 -17 q 97 10 135 -17 l 97 10 q 67 51 78 24 q 56 114 56 78 l 56 114 q 97 267 56 182 q 230 448 138 353 q 468 632 322 543 l 468 632 q 292 699 407 699 l 292 699 q 92 664 210 699 l 92 664 l 83 692 z m 226 132 q 294 108 253 108 l 294 108 q 388 135 339 108 q 475 211 436 163 l 475 211 q 540 408 540 299 l 540 408 q 521 539 540 471 l 521 539 q 513 558 517 550 q 507 574 510 567 l 507 574 q 303 419 392 508 l 303 419 q 226 313 253 369 q 199 207 199 256 l 199 207 q 226 132 199 160 l 226 132 z m 332 911 q 286 1026 286 960 l 286 1026 q 298 1088 286 1058 q 332 1140 310 1118 l 332 1140 q 447 1186 381 1186 l 447 1186 q 560 1140 514 1186 l 560 1140 q 607 1025 607 1093 l 607 1025 q 560 913 607 958 l 560 913 q 506 878 536 890 q 443 865 475 865 l 443 865 q 332 911 376 865 l 332 911 z m 371 950 q 442 921 399 921 l 442 921 q 521 951 488 921 l 521 951 q 551 1025 551 981 l 551 1025 q 521 1101 551 1071 l 521 1101 q 489 1123 508 1115 q 449 1131 469 1131 l 449 1131 q 371 1101 403 1131 l 371 1101 q 340 1028 340 1072 l 340 1028 q 371 950 340 981 l 371 950 z "},"ã":{"ha":871,"x_min":56,"x_max":829,"o":"m 83 692 q 205 761 143 738 q 342 785 267 785 l 342 785 q 478 763 421 785 q 585 689 536 740 l 585 689 q 747 749 671 728 l 747 749 l 767 717 q 684 603 711 676 q 657 439 657 529 l 657 439 q 679 268 657 353 q 741 122 701 183 q 829 39 781 60 l 829 39 l 819 0 l 608 0 l 571 256 q 465 100 529 161 q 332 11 401 39 q 199 -17 263 -17 l 199 -17 q 97 10 135 -17 l 97 10 q 67 51 78 24 q 56 114 56 78 l 56 114 q 97 267 56 182 q 230 448 138 353 q 468 632 322 543 l 468 632 q 292 699 407 699 l 292 699 q 92 664 210 699 l 92 664 l 83 692 z m 226 132 q 294 108 253 108 l 294 108 q 388 135 339 108 q 475 211 436 163 l 475 211 q 540 408 540 299 l 540 408 q 521 539 540 471 l 521 539 q 513 558 517 550 q 507 574 510 567 l 507 574 q 303 419 392 508 l 303 419 q 226 313 253 369 q 199 207 199 256 l 199 207 q 226 132 199 160 l 226 132 z m 332 1097 q 249 1060 282 1097 q 217 971 217 1022 l 217 971 q 219 942 217 961 l 219 942 l 242 943 q 262 993 249 975 q 310 1011 275 1011 l 310 1011 q 347 1001 328 1011 q 393 972 365 992 l 393 972 q 460 933 432 946 q 522 919 489 919 l 522 919 q 606 959 572 919 q 640 1050 640 999 l 640 1050 q 638 1078 640 1058 l 638 1078 l 614 1078 q 544 1010 604 1010 l 544 1010 q 513 1018 529 1010 q 472 1043 497 1026 l 472 1043 q 402 1083 433 1069 q 332 1097 371 1097 l 332 1097 z "},"æ":{"ha":1292,"x_min":56,"x_max":1271,"o":"m 83 692 q 205 761 143 738 q 342 785 267 785 l 342 785 q 501 752 435 785 q 621 644 567 719 l 621 644 q 742 748 669 711 q 900 785 814 785 l 900 785 q 1071 748 993 785 q 1193 632 1149 711 q 1231 431 1238 553 l 1231 431 l 669 432 q 739 226 674 314 l 739 226 q 847 138 782 169 q 985 107 913 107 l 985 107 q 1131 143 1061 107 q 1246 249 1200 179 l 1246 249 l 1271 233 q 1144 49 1238 118 q 911 -21 1051 -21 l 911 -21 q 699 51 793 -21 q 564 240 604 122 l 564 240 q 399 47 501 110 q 199 -17 297 -17 l 199 -17 q 97 10 132 -17 l 97 10 q 67 51 78 24 q 56 114 56 78 l 56 114 q 97 267 56 182 q 230 448 138 353 q 468 632 322 543 l 468 632 q 292 699 407 699 l 292 699 q 92 664 210 699 l 92 664 l 83 692 z m 226 132 q 294 108 253 108 l 294 108 q 388 135 339 108 q 475 211 436 163 l 475 211 q 540 408 540 299 l 540 408 q 521 539 540 471 l 521 539 q 513 558 517 550 q 507 574 510 567 l 507 574 q 303 419 392 508 l 303 419 q 226 313 253 369 q 199 207 199 256 l 199 207 q 226 132 199 160 l 226 132 z m 671 488 l 1075 486 q 1048 615 1075 558 q 976 703 1021 672 q 878 735 931 735 l 878 735 q 775 701 825 735 l 775 701 q 705 615 732 672 q 671 488 678 558 l 671 488 z "},"b":{"ha":961,"x_min":42,"x_max":926,"o":"m 567 -21 q 286 121 372 -21 l 286 121 l 199 0 l 151 0 q 170 183 164 94 q 176 392 176 272 l 176 392 l 176 768 q 145 909 176 856 q 42 963 114 963 l 42 963 l 42 1000 q 211 1053 144 1017 q 333 1156 278 1090 l 333 1156 l 358 1135 q 301 810 301 993 l 301 810 l 301 667 q 557 785 383 785 l 557 785 q 743 731 658 785 q 877 585 828 678 q 926 381 926 492 l 926 381 q 880 178 926 269 q 751 33 833 86 q 567 -21 668 -21 l 567 -21 z m 589 38 q 718 113 669 38 q 767 310 767 188 l 767 310 q 761 393 767 354 l 761 393 q 667 621 740 535 q 494 707 593 707 l 494 707 q 464 704 483 707 l 464 704 q 347 623 390 694 q 304 446 304 551 l 304 446 q 308 378 304 414 l 308 378 q 361 201 321 278 q 461 81 401 124 q 589 38 521 38 l 589 38 z "},"c":{"ha":772,"x_min":35,"x_max":738,"o":"m 394 -21 q 207 31 289 -21 q 80 176 125 83 q 35 383 35 268 l 35 383 q 80 586 35 494 q 207 731 125 678 q 394 785 289 785 l 394 785 q 469 778 436 785 q 540 757 501 771 l 540 757 q 590 744 565 750 q 636 738 615 738 l 636 738 q 700 750 665 738 l 700 750 l 718 736 q 681 447 685 594 l 681 447 l 650 444 q 531 657 607 586 q 369 728 456 728 l 369 728 q 269 701 314 728 l 269 701 q 192 609 219 672 q 164 467 164 546 l 164 467 q 183 340 164 403 q 240 226 203 278 l 240 226 q 344 138 283 169 q 469 107 404 107 l 469 107 q 604 143 540 107 q 713 249 668 179 l 713 249 l 738 233 q 663 104 717 163 q 537 13 608 46 q 394 -21 465 -21 l 394 -21 z "},"ć":{"ha":772,"x_min":35,"x_max":738,"o":"m 394 -21 q 207 31 289 -21 q 80 176 125 83 q 35 383 35 268 l 35 383 q 80 586 35 494 q 207 731 125 678 q 394 785 289 785 l 394 785 q 469 778 436 785 q 540 757 501 771 l 540 757 q 590 744 565 750 q 636 738 615 738 l 636 738 q 700 750 665 738 l 700 750 l 718 736 q 681 447 685 594 l 681 447 l 650 444 q 531 657 607 586 q 369 728 456 728 l 369 728 q 269 701 314 728 l 269 701 q 192 609 219 672 q 164 467 164 546 l 164 467 q 183 340 164 403 q 240 226 203 278 l 240 226 q 344 138 283 169 q 469 107 404 107 l 469 107 q 604 143 540 107 q 713 249 668 179 l 713 249 l 738 233 q 663 104 717 163 q 537 13 608 46 q 394 -21 465 -21 l 394 -21 z m 321 857 l 432 1139 l 582 1139 l 592 1121 l 349 838 l 321 857 z "},"č":{"ha":772,"x_min":35,"x_max":738,"o":"m 394 -21 q 207 31 289 -21 q 80 176 125 83 q 35 383 35 268 l 35 383 q 80 586 35 494 q 207 731 125 678 q 394 785 289 785 l 394 785 q 469 778 436 785 q 540 757 501 771 l 540 757 q 590 744 565 750 q 636 738 615 738 l 636 738 q 700 750 665 738 l 700 750 l 718 736 q 681 447 685 594 l 681 447 l 650 444 q 531 657 607 586 q 369 728 456 728 l 369 728 q 269 701 314 728 l 269 701 q 192 609 219 672 q 164 467 164 546 l 164 467 q 183 340 164 403 q 240 226 203 278 l 240 226 q 344 138 283 169 q 469 107 404 107 l 469 107 q 604 143 540 107 q 713 249 668 179 l 713 249 l 738 233 q 663 104 717 163 q 537 13 608 46 q 394 -21 465 -21 l 394 -21 z m 138 1126 l 165 1146 l 382 996 l 599 1146 l 626 1126 l 390 850 l 374 850 l 138 1126 z "},"ç":{"ha":772,"x_min":35,"x_max":738,"o":"m 194 -185 q 368 -236 283 -236 l 368 -236 q 433 -222 408 -236 q 458 -186 458 -208 l 458 -186 q 404 -134 458 -147 q 286 -121 350 -121 l 286 -121 l 376 -21 q 197 37 275 -17 q 77 181 119 90 q 35 383 35 271 l 35 383 q 80 586 35 494 q 207 731 125 678 q 394 785 289 785 l 394 785 q 469 778 436 785 q 540 757 501 771 l 540 757 q 590 744 565 750 q 636 738 615 738 l 636 738 q 700 750 665 738 l 700 750 l 718 736 q 681 447 685 594 l 681 447 l 650 444 q 531 657 607 586 q 369 728 456 728 l 369 728 q 269 701 314 728 l 269 701 q 192 609 219 672 q 164 467 164 546 l 164 467 q 183 340 164 403 q 240 226 203 278 l 240 226 q 344 138 283 169 q 469 107 404 107 l 469 107 q 604 143 540 107 q 713 249 668 179 l 713 249 l 738 233 q 665 107 717 164 q 545 16 614 50 q 407 -21 476 -18 l 407 -21 l 400 -74 q 533 -99 483 -74 q 582 -169 582 -125 l 582 -169 q 532 -256 582 -219 q 410 -292 482 -292 l 410 -292 q 277 -267 336 -292 q 176 -203 218 -242 l 176 -203 l 194 -185 z "},"ċ":{"ha":772,"x_min":35,"x_max":738,"o":"m 394 -21 q 207 31 289 -21 q 80 176 125 83 q 35 383 35 268 l 35 383 q 80 586 35 494 q 207 731 125 678 q 394 785 289 785 l 394 785 q 469 778 436 785 q 540 757 501 771 l 540 757 q 590 744 565 750 q 636 738 615 738 l 636 738 q 700 750 665 738 l 700 750 l 718 736 q 681 447 685 594 l 681 447 l 650 444 q 531 657 607 586 q 369 728 456 728 l 369 728 q 269 701 314 728 l 269 701 q 192 609 219 672 q 164 467 164 546 l 164 467 q 183 340 164 403 q 240 226 203 278 l 240 226 q 344 138 283 169 q 469 107 404 107 l 469 107 q 604 143 540 107 q 713 249 668 179 l 713 249 l 738 233 q 663 104 717 163 q 537 13 608 46 q 394 -21 465 -21 l 394 -21 z m 361 886 q 309 908 331 886 q 288 961 288 931 l 288 961 q 309 1013 288 992 q 361 1035 331 1035 l 361 1035 q 415 1013 393 1035 q 436 961 436 992 l 436 961 q 415 908 436 931 q 361 886 393 886 l 361 886 z "},"d":{"ha":964,"x_min":35,"x_max":922,"o":"m 404 -21 q 218 33 303 -21 q 84 179 133 86 q 35 383 35 272 l 35 383 q 81 586 35 494 q 210 731 128 678 q 394 785 293 785 l 394 785 q 657 669 571 785 l 657 669 q 642 858 656 796 q 602 941 629 919 q 522 963 575 963 l 522 963 l 522 1000 q 692 1053 625 1017 q 814 1156 758 1090 l 814 1156 l 842 1136 q 801 1008 814 1067 q 785 869 789 949 q 782 633 782 790 l 782 633 l 782 392 q 794 212 782 279 q 836 103 806 144 q 922 36 867 63 l 922 36 l 917 -6 q 793 0 868 0 l 793 0 q 678 -3 753 0 l 678 -3 l 667 108 q 404 -21 585 -21 l 404 -21 z m 481 63 q 613 135 568 63 q 658 326 658 207 l 658 326 q 653 418 658 375 l 653 418 q 560 648 632 564 q 389 732 489 732 l 389 732 q 356 729 378 732 l 356 729 q 241 647 285 718 q 197 463 197 576 l 197 463 q 200 404 197 446 l 200 404 q 247 232 210 310 q 346 108 285 154 q 481 63 407 63 l 481 63 z "},"ď":{"ha":964,"x_min":35,"x_max":1100,"o":"m 404 -21 q 218 33 303 -21 q 84 179 133 86 q 35 383 35 272 l 35 383 q 81 586 35 494 q 210 731 128 678 q 394 785 293 785 l 394 785 q 657 669 571 785 l 657 669 q 642 858 656 796 q 602 941 629 919 q 522 963 575 963 l 522 963 l 522 1000 q 692 1053 625 1017 q 814 1156 758 1090 l 814 1156 l 842 1136 q 801 1008 814 1067 q 785 869 789 949 q 782 633 782 790 l 782 633 l 782 392 q 794 212 782 279 q 836 103 806 144 q 922 36 867 63 l 922 36 l 917 -6 q 793 0 868 0 l 793 0 q 678 -3 753 0 l 678 -3 l 667 108 q 404 -21 585 -21 l 404 -21 z m 481 63 q 613 135 568 63 q 658 326 658 207 l 658 326 q 653 418 658 375 l 653 418 q 560 648 632 564 q 389 732 489 732 l 389 732 q 356 729 378 732 l 356 729 q 241 647 285 718 q 197 463 197 576 l 197 463 q 200 404 197 446 l 200 404 q 247 232 210 310 q 346 108 285 154 q 481 63 407 63 l 481 63 z m 874 885 q 940 957 915 915 q 964 1046 964 999 l 964 1046 q 881 1204 964 1131 l 881 1204 l 1038 1319 q 1100 1144 1100 1238 l 1100 1144 q 1043 974 1100 1054 q 899 849 986 894 l 899 849 l 874 885 z "},"đ":{"ha":992,"x_min":35,"x_max":922,"o":"m 404 -21 q 218 33 303 -21 q 84 179 133 86 q 35 383 35 272 l 35 383 q 81 586 35 494 q 210 731 128 678 q 394 785 293 785 l 394 785 q 657 668 574 785 l 657 668 l 657 697 q 653 835 657 779 l 653 835 l 393 833 l 392 903 l 646 904 q 606 1006 633 981 q 522 1032 579 1032 l 522 1032 l 522 1069 q 653 1074 606 1069 q 740 1098 701 1079 q 814 1156 779 1117 l 814 1156 l 842 1136 q 805 1024 817 1075 q 788 906 793 972 l 788 906 l 921 907 l 921 838 l 785 836 q 782 633 782 782 l 782 633 l 782 392 q 794 212 782 279 q 836 103 806 144 q 922 36 867 63 l 922 36 l 917 -6 q 793 0 868 0 l 793 0 q 678 -3 753 0 l 678 -3 l 667 108 q 404 -21 585 -21 l 404 -21 z m 481 63 q 613 135 568 63 q 658 326 658 207 l 658 326 q 653 418 658 375 l 653 418 q 560 648 632 564 q 389 732 489 732 l 389 732 q 356 729 378 732 l 356 729 q 241 647 285 718 q 197 463 197 576 l 197 463 q 200 404 197 446 l 200 404 q 247 232 210 310 q 346 108 285 154 q 481 63 407 63 l 481 63 z "},"ð":{"ha":889,"x_min":35,"x_max":847,"o":"m 432 -21 q 233 32 324 -21 q 88 177 142 85 q 35 383 35 269 l 35 383 q 88 585 35 493 q 233 731 142 676 q 432 785 324 785 l 432 785 q 676 682 574 785 l 676 682 q 583 903 640 811 l 583 903 l 319 832 l 318 901 l 542 961 q 375 1099 474 1046 l 375 1099 l 382 1132 q 621 983 519 1081 l 621 983 l 847 1044 l 847 975 l 674 928 q 829 467 829 739 l 829 467 q 776 201 829 311 q 633 35 724 92 q 432 -21 543 -21 l 432 -21 z m 553 57 q 653 144 617 79 q 689 299 689 208 l 689 299 q 656 468 689 379 l 656 468 q 532 649 613 582 q 367 715 451 715 l 367 715 q 308 706 333 715 l 308 706 q 210 619 246 683 q 175 467 175 554 l 175 467 q 207 299 175 382 l 207 299 q 331 115 251 182 q 494 47 411 47 l 494 47 q 553 57 528 47 l 553 57 z "},"e":{"ha":786,"x_min":35,"x_max":765,"o":"m 765 233 q 639 49 732 118 q 406 -21 546 -21 l 406 -21 q 220 32 306 -21 q 85 177 135 85 q 35 383 35 269 l 35 383 q 80 586 35 494 q 207 731 125 678 q 394 785 289 785 l 394 785 q 565 748 488 785 q 688 632 643 711 q 725 431 732 553 l 725 431 l 164 432 q 233 226 168 314 l 233 226 q 342 138 276 169 q 479 107 407 107 l 479 107 q 625 143 556 107 q 740 249 694 179 l 740 249 l 765 233 z m 165 488 l 569 486 q 542 615 569 558 q 470 703 515 672 q 372 735 425 735 l 372 735 q 269 701 319 735 l 269 701 q 199 615 226 672 q 165 488 172 558 l 165 488 z "},"é":{"ha":786,"x_min":35,"x_max":765,"o":"m 765 233 q 639 49 732 118 q 406 -21 546 -21 l 406 -21 q 220 32 306 -21 q 85 177 135 85 q 35 383 35 269 l 35 383 q 80 586 35 494 q 207 731 125 678 q 394 785 289 785 l 394 785 q 565 748 488 785 q 688 632 643 711 q 725 431 732 553 l 725 431 l 164 432 q 233 226 168 314 l 233 226 q 342 138 276 169 q 479 107 407 107 l 479 107 q 625 143 556 107 q 740 249 694 179 l 740 249 l 765 233 z m 165 488 l 569 486 q 542 615 569 558 q 470 703 515 672 q 372 735 425 735 l 372 735 q 269 701 319 735 l 269 701 q 199 615 226 672 q 165 488 172 558 l 165 488 z m 314 857 l 425 1139 l 575 1139 l 585 1121 l 342 838 l 314 857 z "},"ě":{"ha":786,"x_min":35,"x_max":765,"o":"m 765 233 q 639 49 732 118 q 406 -21 546 -21 l 406 -21 q 220 32 306 -21 q 85 177 135 85 q 35 383 35 269 l 35 383 q 80 586 35 494 q 207 731 125 678 q 394 785 289 785 l 394 785 q 565 748 488 785 q 688 632 643 711 q 725 431 732 553 l 725 431 l 164 432 q 233 226 168 314 l 233 226 q 342 138 276 169 q 479 107 407 107 l 479 107 q 625 143 556 107 q 740 249 694 179 l 740 249 l 765 233 z m 165 488 l 569 486 q 542 615 569 558 q 470 703 515 672 q 372 735 425 735 l 372 735 q 269 701 319 735 l 269 701 q 199 615 226 672 q 165 488 172 558 l 165 488 z m 131 1126 l 158 1146 l 375 996 l 592 1146 l 619 1126 l 383 850 l 367 850 l 131 1126 z "},"ê":{"ha":786,"x_min":35,"x_max":765,"o":"m 765 233 q 639 49 732 118 q 406 -21 546 -21 l 406 -21 q 220 32 306 -21 q 85 177 135 85 q 35 383 35 269 l 35 383 q 80 586 35 494 q 207 731 125 678 q 394 785 289 785 l 394 785 q 565 748 488 785 q 688 632 643 711 q 725 431 732 553 l 725 431 l 164 432 q 233 226 168 314 l 233 226 q 342 138 276 169 q 479 107 407 107 l 479 107 q 625 143 556 107 q 740 249 694 179 l 740 249 l 765 233 z m 165 488 l 569 486 q 542 615 569 558 q 470 703 515 672 q 372 735 425 735 l 372 735 q 269 701 319 735 l 269 701 q 199 615 226 672 q 165 488 172 558 l 165 488 z m 136 857 l 372 1133 l 389 1133 l 625 857 l 597 838 l 381 988 l 164 838 l 136 857 z "},"ë":{"ha":786,"x_min":35,"x_max":765,"o":"m 765 233 q 639 49 732 118 q 406 -21 546 -21 l 406 -21 q 220 32 306 -21 q 85 177 135 85 q 35 383 35 269 l 35 383 q 80 586 35 494 q 207 731 125 678 q 394 785 289 785 l 394 785 q 565 748 488 785 q 688 632 643 711 q 725 431 732 553 l 725 431 l 164 432 q 233 226 168 314 l 233 226 q 342 138 276 169 q 479 107 407 107 l 479 107 q 625 143 556 107 q 740 249 694 179 l 740 249 l 765 233 z m 165 488 l 569 486 q 542 615 569 558 q 470 703 515 672 q 372 735 425 735 l 372 735 q 269 701 319 735 l 269 701 q 199 615 226 672 q 165 488 172 558 l 165 488 z m 504 893 q 446 917 469 893 q 422 975 422 942 l 422 975 q 446 1034 422 1010 q 504 1058 469 1058 l 504 1058 q 563 1034 539 1058 q 586 975 586 1010 l 586 975 q 563 917 586 942 q 504 893 539 893 l 504 893 z m 250 893 q 192 917 215 893 q 168 975 168 942 l 168 975 q 192 1034 168 1010 q 250 1058 215 1058 l 250 1058 q 308 1034 285 1058 q 332 975 332 1010 l 332 975 q 308 917 332 942 q 250 893 285 893 l 250 893 z "},"ė":{"ha":786,"x_min":35,"x_max":765,"o":"m 765 233 q 639 49 732 118 q 406 -21 546 -21 l 406 -21 q 220 32 306 -21 q 85 177 135 85 q 35 383 35 269 l 35 383 q 80 586 35 494 q 207 731 125 678 q 394 785 289 785 l 394 785 q 565 748 488 785 q 688 632 643 711 q 725 431 732 553 l 725 431 l 164 432 q 233 226 168 314 l 233 226 q 342 138 276 169 q 479 107 407 107 l 479 107 q 625 143 556 107 q 740 249 694 179 l 740 249 l 765 233 z m 165 488 l 569 486 q 542 615 569 558 q 470 703 515 672 q 372 735 425 735 l 372 735 q 269 701 319 735 l 269 701 q 199 615 226 672 q 165 488 172 558 l 165 488 z m 354 886 q 302 908 324 886 q 281 961 281 931 l 281 961 q 302 1013 281 992 q 354 1035 324 1035 l 354 1035 q 408 1013 386 1035 q 429 961 429 992 l 429 961 q 408 908 429 931 q 354 886 386 886 l 354 886 z "},"è":{"ha":786,"x_min":35,"x_max":765,"o":"m 765 233 q 639 49 732 118 q 406 -21 546 -21 l 406 -21 q 220 32 306 -21 q 85 177 135 85 q 35 383 35 269 l 35 383 q 80 586 35 494 q 207 731 125 678 q 394 785 289 785 l 394 785 q 565 748 488 785 q 688 632 643 711 q 725 431 732 553 l 725 431 l 164 432 q 233 226 168 314 l 233 226 q 342 138 276 169 q 479 107 407 107 l 479 107 q 625 143 556 107 q 740 249 694 179 l 740 249 l 765 233 z m 165 488 l 569 486 q 542 615 569 558 q 470 703 515 672 q 372 735 425 735 l 372 735 q 269 701 319 735 l 269 701 q 199 615 226 672 q 165 488 172 558 l 165 488 z m 422 857 l 394 838 l 151 1121 l 161 1139 l 311 1139 l 422 857 z "},"ē":{"ha":786,"x_min":35,"x_max":765,"o":"m 765 233 q 639 49 732 118 q 406 -21 546 -21 l 406 -21 q 220 32 306 -21 q 85 177 135 85 q 35 383 35 269 l 35 383 q 80 586 35 494 q 207 731 125 678 q 394 785 289 785 l 394 785 q 565 748 488 785 q 688 632 643 711 q 725 431 732 553 l 725 431 l 164 432 q 233 226 168 314 l 233 226 q 342 138 276 169 q 479 107 407 107 l 479 107 q 625 143 556 107 q 740 249 694 179 l 740 249 l 765 233 z m 165 488 l 569 486 q 542 615 569 558 q 470 703 515 672 q 372 735 425 735 l 372 735 q 269 701 319 735 l 269 701 q 199 615 226 672 q 165 488 172 558 l 165 488 z m 164 936 l 163 1006 l 568 1006 l 568 936 l 164 936 z "},"ę":{"ha":786,"x_min":35,"x_max":765,"o":"m 547 -267 q 453 -230 490 -267 q 417 -143 417 -193 l 417 -143 q 492 -12 417 -81 l 492 -12 q 406 -21 453 -21 l 406 -21 q 220 32 306 -21 q 85 177 135 85 q 35 383 35 269 l 35 383 q 80 586 35 494 q 207 731 125 678 q 394 785 289 785 l 394 785 q 565 748 488 785 q 688 632 643 711 q 725 431 732 553 l 725 431 l 164 432 q 233 226 168 314 l 233 226 q 342 138 276 169 q 479 107 407 107 l 479 107 q 625 143 556 107 q 740 249 694 179 l 740 249 l 765 233 q 687 92 742 153 q 550 3 632 32 l 550 3 q 503 -108 503 -53 l 503 -108 q 526 -162 503 -142 q 590 -182 550 -182 l 590 -182 q 713 -118 644 -182 l 713 -118 l 736 -142 q 661 -226 710 -186 q 547 -267 613 -267 l 547 -267 z m 165 488 l 569 486 q 542 615 569 558 q 470 703 515 672 q 372 735 425 735 l 372 735 q 269 701 319 735 l 269 701 q 199 615 226 672 q 165 488 172 558 l 165 488 z "},"f":{"ha":667,"x_min":56,"x_max":722,"o":"m 56 33 q 165 103 131 58 q 200 225 200 147 l 200 225 l 200 431 q 186 563 200 517 q 143 628 172 610 q 63 646 114 646 l 63 646 l 63 683 q 147 706 118 688 q 185 755 175 725 q 203 840 196 785 l 203 840 q 256 983 214 918 q 370 1087 299 1049 q 535 1125 442 1125 l 535 1125 q 722 1088 621 1125 l 722 1088 q 702 1002 708 1040 q 696 922 696 964 l 696 922 q 700 851 696 892 l 700 851 l 672 843 q 582 1008 633 951 q 474 1064 531 1064 l 474 1064 q 421 1051 449 1064 l 421 1051 q 351 965 376 1032 q 325 801 325 897 l 325 801 l 325 708 l 649 722 l 661 703 l 604 625 l 325 639 l 325 225 q 337 132 325 165 q 390 74 349 99 q 519 29 432 49 l 519 29 l 514 -10 q 254 0 360 0 l 254 0 q 61 -6 203 0 l 61 -6 l 56 33 z "},"g":{"ha":922,"x_min":28,"x_max":908,"o":"m 438 165 q 222 226 317 165 l 222 226 q 163 126 163 181 l 163 126 q 186 71 163 94 l 186 71 q 292 44 213 44 l 292 44 q 503 67 364 44 l 503 67 q 631 85 572 78 q 724 93 689 93 l 724 93 q 796 81 768 93 q 842 38 824 68 l 842 38 q 858 -24 858 8 l 858 -24 q 794 -165 858 -92 q 628 -283 731 -237 l 628 -283 q 452 -339 544 -321 q 276 -357 360 -357 l 276 -357 q 106 -329 164 -357 l 106 -329 q 47 -283 67 -311 q 28 -219 28 -254 l 28 -219 q 60 -127 28 -174 q 149 -47 92 -81 l 149 -47 q 119 -25 139 -42 l 119 -25 q 74 72 74 19 l 74 72 q 106 165 74 119 q 197 244 139 210 l 197 244 q 113 347 143 288 q 82 476 82 406 l 82 476 q 130 631 82 560 q 260 743 178 701 q 438 785 342 785 l 438 785 l 440 785 l 593 785 q 751 789 682 785 q 896 804 821 793 l 896 804 l 908 785 l 851 696 l 644 729 q 754 622 714 688 q 794 476 794 556 l 794 476 q 747 320 794 392 q 616 207 699 249 q 438 165 533 165 l 438 165 z m 519 225 q 610 290 576 235 q 643 421 643 344 l 643 421 q 626 525 643 471 l 626 525 q 528 672 594 617 q 390 728 461 728 l 390 728 q 275 672 318 728 q 232 532 232 617 l 232 532 q 250 426 232 479 l 250 426 q 348 278 281 333 q 488 222 415 222 l 488 222 q 519 225 508 222 l 519 225 z m 175 -61 q 153 -136 153 -94 l 153 -136 q 164 -188 153 -164 q 193 -228 175 -212 l 193 -228 q 376 -281 256 -281 l 376 -281 q 604 -233 497 -281 l 604 -233 q 723 -157 682 -200 q 764 -78 764 -114 l 764 -78 q 763 -64 764 -68 l 763 -64 q 692 -29 753 -29 l 692 -29 q 556 -47 653 -29 l 556 -47 q 406 -74 461 -65 q 299 -82 351 -82 l 299 -82 q 175 -61 224 -82 l 175 -61 z "},"ğ":{"ha":922,"x_min":28,"x_max":908,"o":"m 438 165 q 222 226 317 165 l 222 226 q 163 126 163 181 l 163 126 q 186 71 163 94 l 186 71 q 292 44 213 44 l 292 44 q 503 67 364 44 l 503 67 q 631 85 572 78 q 724 93 689 93 l 724 93 q 796 81 768 93 q 842 38 824 68 l 842 38 q 858 -24 858 8 l 858 -24 q 794 -165 858 -92 q 628 -283 731 -237 l 628 -283 q 452 -339 544 -321 q 276 -357 360 -357 l 276 -357 q 106 -329 164 -357 l 106 -329 q 47 -283 67 -311 q 28 -219 28 -254 l 28 -219 q 60 -127 28 -174 q 149 -47 92 -81 l 149 -47 q 119 -25 139 -42 l 119 -25 q 74 72 74 19 l 74 72 q 106 165 74 119 q 197 244 139 210 l 197 244 q 113 347 143 288 q 82 476 82 406 l 82 476 q 130 631 82 560 q 260 743 178 701 q 438 785 342 785 l 438 785 l 440 785 l 593 785 q 751 789 682 785 q 896 804 821 793 l 896 804 l 908 785 l 851 696 l 644 729 q 754 622 714 688 q 794 476 794 556 l 794 476 q 747 320 794 392 q 616 207 699 249 q 438 165 533 165 l 438 165 z m 519 225 q 610 290 576 235 q 643 421 643 344 l 643 421 q 626 525 643 471 l 626 525 q 528 672 594 617 q 390 728 461 728 l 390 728 q 275 672 318 728 q 232 532 232 617 l 232 532 q 250 426 232 479 l 250 426 q 348 278 281 333 q 488 222 415 222 l 488 222 q 519 225 508 222 l 519 225 z m 175 -61 q 153 -136 153 -94 l 153 -136 q 164 -188 153 -164 q 193 -228 175 -212 l 193 -228 q 376 -281 256 -281 l 376 -281 q 604 -233 497 -281 l 604 -233 q 723 -157 682 -200 q 764 -78 764 -114 l 764 -78 q 763 -64 764 -68 l 763 -64 q 692 -29 753 -29 l 692 -29 q 556 -47 653 -29 l 556 -47 q 406 -74 461 -65 q 299 -82 351 -82 l 299 -82 q 175 -61 224 -82 l 175 -61 z m 276 1150 q 339 1062 293 1093 q 440 1031 385 1031 l 440 1031 q 540 1063 493 1031 q 606 1150 586 1094 l 606 1150 l 640 1150 q 581 982 632 1046 q 442 918 529 918 l 442 918 q 302 982 354 918 q 242 1150 250 1046 l 242 1150 l 276 1150 z "},"ģ":{"ha":922,"x_min":28,"x_max":908,"o":"m 438 165 q 222 226 317 165 l 222 226 q 163 126 163 181 l 163 126 q 186 71 163 94 l 186 71 q 292 44 213 44 l 292 44 q 503 67 364 44 l 503 67 q 631 85 572 78 q 724 93 689 93 l 724 93 q 796 81 768 93 q 842 38 824 68 l 842 38 q 858 -24 858 8 l 858 -24 q 794 -165 858 -92 q 628 -283 731 -237 l 628 -283 q 452 -339 544 -321 q 276 -357 360 -357 l 276 -357 q 106 -329 164 -357 l 106 -329 q 47 -283 67 -311 q 28 -219 28 -254 l 28 -219 q 60 -127 28 -174 q 149 -47 92 -81 l 149 -47 q 119 -25 139 -42 l 119 -25 q 74 72 74 19 l 74 72 q 106 165 74 119 q 197 244 139 210 l 197 244 q 113 347 143 288 q 82 476 82 406 l 82 476 q 130 631 82 560 q 260 743 178 701 q 438 785 342 785 l 438 785 l 440 785 l 593 785 q 751 789 682 785 q 896 804 821 793 l 896 804 l 908 785 l 851 696 l 644 729 q 754 622 714 688 q 794 476 794 556 l 794 476 q 747 320 794 392 q 616 207 699 249 q 438 165 533 165 l 438 165 z m 519 225 q 610 290 576 235 q 643 421 643 344 l 643 421 q 626 525 643 471 l 626 525 q 528 672 594 617 q 390 728 461 728 l 390 728 q 275 672 318 728 q 232 532 232 617 l 232 532 q 250 426 232 479 l 250 426 q 348 278 281 333 q 488 222 415 222 l 488 222 q 519 225 508 222 l 519 225 z m 175 -61 q 153 -136 153 -94 l 153 -136 q 164 -188 153 -164 q 193 -228 175 -212 l 193 -228 q 376 -281 256 -281 l 376 -281 q 604 -233 497 -281 l 604 -233 q 723 -157 682 -200 q 764 -78 764 -114 l 764 -78 q 763 -64 764 -68 l 763 -64 q 692 -29 753 -29 l 692 -29 q 556 -47 653 -29 l 556 -47 q 406 -74 461 -65 q 299 -82 351 -82 l 299 -82 q 175 -61 224 -82 l 175 -61 z m 558 1226 q 503 1178 524 1206 q 483 1119 483 1150 l 483 1119 q 553 1015 483 1063 l 553 1015 l 421 939 q 368 1054 368 992 l 368 1054 q 416 1168 368 1115 q 538 1250 464 1221 l 538 1250 l 558 1226 z "},"ġ":{"ha":922,"x_min":28,"x_max":908,"o":"m 438 165 q 222 226 317 165 l 222 226 q 163 126 163 181 l 163 126 q 186 71 163 94 l 186 71 q 292 44 213 44 l 292 44 q 503 67 364 44 l 503 67 q 631 85 572 78 q 724 93 689 93 l 724 93 q 796 81 768 93 q 842 38 824 68 l 842 38 q 858 -24 858 8 l 858 -24 q 794 -165 858 -92 q 628 -283 731 -237 l 628 -283 q 452 -339 544 -321 q 276 -357 360 -357 l 276 -357 q 106 -329 164 -357 l 106 -329 q 47 -283 67 -311 q 28 -219 28 -254 l 28 -219 q 60 -127 28 -174 q 149 -47 92 -81 l 149 -47 q 119 -25 139 -42 l 119 -25 q 74 72 74 19 l 74 72 q 106 165 74 119 q 197 244 139 210 l 197 244 q 113 347 143 288 q 82 476 82 406 l 82 476 q 130 631 82 560 q 260 743 178 701 q 438 785 342 785 l 438 785 l 440 785 l 593 785 q 751 789 682 785 q 896 804 821 793 l 896 804 l 908 785 l 851 696 l 644 729 q 754 622 714 688 q 794 476 794 556 l 794 476 q 747 320 794 392 q 616 207 699 249 q 438 165 533 165 l 438 165 z m 519 225 q 610 290 576 235 q 643 421 643 344 l 643 421 q 626 525 643 471 l 626 525 q 528 672 594 617 q 390 728 461 728 l 390 728 q 275 672 318 728 q 232 532 232 617 l 232 532 q 250 426 232 479 l 250 426 q 348 278 281 333 q 488 222 415 222 l 488 222 q 519 225 508 222 l 519 225 z m 175 -61 q 153 -136 153 -94 l 153 -136 q 164 -188 153 -164 q 193 -228 175 -212 l 193 -228 q 376 -281 256 -281 l 376 -281 q 604 -233 497 -281 l 604 -233 q 723 -157 682 -200 q 764 -78 764 -114 l 764 -78 q 763 -64 764 -68 l 763 -64 q 692 -29 753 -29 l 692 -29 q 556 -47 653 -29 l 556 -47 q 406 -74 461 -65 q 299 -82 351 -82 l 299 -82 q 175 -61 224 -82 l 175 -61 z m 418 907 q 366 929 388 907 q 344 982 344 951 l 344 982 q 366 1034 344 1013 q 418 1056 388 1056 l 418 1056 q 472 1034 450 1056 q 493 982 493 1013 l 493 982 q 472 929 493 951 q 418 907 450 907 l 418 907 z "},"h":{"ha":1058,"x_min":69,"x_max":1017,"o":"m 625 29 q 724 100 696 56 q 751 225 751 144 l 751 225 l 751 454 q 581 678 751 678 l 581 678 q 445 634 500 678 q 335 510 390 590 l 335 510 l 335 225 q 365 100 335 143 q 475 29 394 57 l 475 29 l 469 -10 q 274 0 374 0 l 274 0 q 75 -10 193 0 l 75 -10 l 69 29 q 180 99 150 56 q 210 225 210 143 l 210 225 l 210 768 q 178 909 210 856 q 75 963 147 963 l 75 963 l 75 996 q 244 1053 178 1015 q 367 1156 311 1090 l 367 1156 l 392 1135 q 335 810 335 993 l 335 810 l 335 571 q 477 728 392 671 q 644 785 563 785 l 644 785 q 876 460 876 785 l 876 460 l 876 225 q 906 100 876 143 q 1017 29 936 57 l 1017 29 l 1011 -10 q 815 0 915 0 l 815 0 q 631 -10 729 0 l 631 -10 l 625 29 z "},"ħ":{"ha":1058,"x_min":44,"x_max":1017,"o":"m 625 29 q 724 100 696 56 q 751 225 751 144 l 751 225 l 751 454 q 581 678 751 678 l 581 678 q 445 634 500 678 q 335 510 390 590 l 335 510 l 335 225 q 365 100 335 143 q 475 29 394 57 l 475 29 l 469 -10 q 274 0 374 0 l 274 0 q 75 -10 193 0 l 75 -10 l 69 29 q 180 99 150 56 q 210 225 210 143 l 210 225 l 210 671 l 44 565 l 44 658 l 210 764 l 210 768 q 178 909 210 856 q 75 963 147 963 l 75 963 l 75 996 q 244 1053 178 1015 q 367 1156 311 1090 l 367 1156 l 392 1135 q 335 843 339 1006 l 335 843 l 507 953 l 504 858 l 335 750 l 335 571 q 477 728 392 671 q 644 785 563 785 l 644 785 q 876 460 876 785 l 876 460 l 876 225 q 906 100 876 143 q 1017 29 936 57 l 1017 29 l 1011 -10 q 815 0 915 0 l 815 0 q 631 -10 729 0 l 631 -10 l 625 29 z "},"i":{"ha":517,"x_min":69,"x_max":475,"o":"m 253 908 q 184 937 213 908 q 156 1006 156 965 l 156 1006 q 184 1074 156 1046 q 253 1103 213 1103 l 253 1103 q 322 1074 293 1103 q 351 1006 351 1046 l 351 1006 q 322 937 351 965 q 253 908 293 908 l 253 908 z m 69 29 q 180 99 150 56 q 210 225 210 143 l 210 225 l 210 407 q 75 593 210 582 l 75 593 l 75 626 q 311 779 229 674 l 311 779 l 350 769 q 335 554 335 672 l 335 554 l 335 458 l 335 225 q 365 100 335 143 q 475 29 394 57 l 475 29 l 469 -10 q 274 0 374 0 l 274 0 q 75 -10 193 0 l 75 -10 l 69 29 z "},"ı":{"ha":544,"x_min":69,"x_max":475,"o":"m 69 29 q 180 99 150 56 q 210 225 210 143 l 210 225 l 210 407 q 75 593 210 582 l 75 593 l 75 626 q 311 779 229 674 l 311 779 l 350 769 q 335 554 335 672 l 335 554 l 335 458 l 335 225 q 365 100 335 143 q 475 29 394 57 l 475 29 l 469 -10 q 274 0 374 0 l 274 0 q 75 -10 193 0 l 75 -10 l 69 29 z "},"í":{"ha":544,"x_min":69,"x_max":488,"o":"m 69 29 q 180 99 150 56 q 210 225 210 143 l 210 225 l 210 407 q 75 593 210 582 l 75 593 l 75 626 q 311 779 229 674 l 311 779 l 350 769 q 335 554 335 672 l 335 554 l 335 458 l 335 225 q 365 100 335 143 q 475 29 394 57 l 475 29 l 469 -10 q 274 0 374 0 l 274 0 q 75 -10 193 0 l 75 -10 l 69 29 z m 217 857 l 328 1139 l 478 1139 l 488 1121 l 244 838 l 217 857 z "},"ǐ":{"ha":544,"x_min":33,"x_max":522,"o":"m 69 29 q 180 99 150 56 q 210 225 210 143 l 210 225 l 210 407 q 75 593 210 582 l 75 593 l 75 626 q 311 779 229 674 l 311 779 l 350 769 q 335 554 335 672 l 335 554 l 335 458 l 335 225 q 365 100 335 143 q 475 29 394 57 l 475 29 l 469 -10 q 274 0 374 0 l 274 0 q 75 -10 193 0 l 75 -10 l 69 29 z m 33 1126 l 61 1146 l 278 996 l 494 1146 l 522 1126 l 286 850 l 269 850 l 33 1126 z "},"î":{"ha":544,"x_min":39,"x_max":528,"o":"m 69 29 q 180 99 150 56 q 210 225 210 143 l 210 225 l 210 407 q 75 593 210 582 l 75 593 l 75 626 q 311 779 229 674 l 311 779 l 350 769 q 335 554 335 672 l 335 554 l 335 458 l 335 225 q 365 100 335 143 q 475 29 394 57 l 475 29 l 469 -10 q 274 0 374 0 l 274 0 q 75 -10 193 0 l 75 -10 l 69 29 z m 39 857 l 275 1133 l 292 1133 l 528 857 l 500 838 l 283 988 l 67 838 l 39 857 z "},"ï":{"ha":544,"x_min":69,"x_max":489,"o":"m 69 29 q 180 99 150 56 q 210 225 210 143 l 210 225 l 210 407 q 75 593 210 582 l 75 593 l 75 626 q 311 779 229 674 l 311 779 l 350 769 q 335 554 335 672 l 335 554 l 335 458 l 335 225 q 365 100 335 143 q 475 29 394 57 l 475 29 l 469 -10 q 274 0 374 0 l 274 0 q 75 -10 193 0 l 75 -10 l 69 29 z m 407 893 q 349 917 372 893 q 325 975 325 942 l 325 975 q 349 1034 325 1010 q 407 1058 372 1058 l 407 1058 q 465 1034 442 1058 q 489 975 489 1010 l 489 975 q 465 917 489 942 q 407 893 442 893 l 407 893 z m 153 893 q 94 917 118 893 q 71 975 71 942 l 71 975 q 94 1034 71 1010 q 153 1058 118 1058 l 153 1058 q 211 1034 188 1058 q 235 975 235 1010 l 235 975 q 211 917 235 942 q 153 893 188 893 l 153 893 z "},"ì":{"ha":544,"x_min":54,"x_max":475,"o":"m 69 29 q 180 99 150 56 q 210 225 210 143 l 210 225 l 210 407 q 75 593 210 582 l 75 593 l 75 626 q 311 779 229 674 l 311 779 l 350 769 q 335 554 335 672 l 335 554 l 335 458 l 335 225 q 365 100 335 143 q 475 29 394 57 l 475 29 l 469 -10 q 274 0 374 0 l 274 0 q 75 -10 193 0 l 75 -10 l 69 29 z m 325 857 l 297 838 l 54 1121 l 64 1139 l 214 1139 l 325 857 z "},"ī":{"ha":544,"x_min":65,"x_max":475,"o":"m 69 29 q 180 99 150 56 q 210 225 210 143 l 210 225 l 210 407 q 75 593 210 582 l 75 593 l 75 626 q 311 779 229 674 l 311 779 l 350 769 q 335 554 335 672 l 335 554 l 335 458 l 335 225 q 365 100 335 143 q 475 29 394 57 l 475 29 l 469 -10 q 274 0 374 0 l 274 0 q 75 -10 193 0 l 75 -10 l 69 29 z m 67 936 l 65 1006 l 471 1006 l 471 936 l 67 936 z "},"į":{"ha":517,"x_min":69,"x_max":475,"o":"m 69 29 q 180 99 150 56 q 210 225 210 143 l 210 225 l 210 407 q 75 593 210 582 l 75 593 l 75 626 q 311 779 229 674 l 311 779 l 350 769 q 335 554 335 672 l 335 554 l 335 458 l 335 225 q 365 100 335 143 q 475 29 394 57 l 475 29 l 469 -10 q 333 -1 381 -1 l 333 -1 q 263 -35 290 -1 q 236 -108 236 -69 l 236 -108 q 260 -162 236 -142 q 324 -182 283 -182 l 324 -182 q 446 -118 378 -182 l 446 -118 l 469 -142 q 394 -226 443 -186 q 281 -267 346 -267 l 281 -267 q 187 -230 224 -267 q 150 -143 150 -193 l 150 -143 q 178 -63 150 -101 q 247 0 207 -25 l 247 0 q 75 -10 164 -3 l 75 -10 l 69 29 z m 263 875 q 194 903 222 875 q 165 974 165 932 l 165 974 q 194 1042 165 1014 q 263 1071 222 1071 l 263 1071 q 333 1042 304 1071 q 361 974 361 1014 l 361 974 q 333 903 361 932 q 263 875 304 875 l 263 875 z "},"j":{"ha":468,"x_min":-28,"x_max":339,"o":"m -28 -314 q 127 -167 65 -272 q 189 100 189 -62 l 189 100 l 189 433 q 54 619 189 608 l 54 619 l 54 653 q 290 806 208 700 l 290 806 l 329 796 q 314 581 314 699 l 314 581 l 314 485 l 314 56 q 219 -215 314 -122 q -15 -343 125 -307 l -15 -343 l -28 -314 z m 240 908 q 172 937 200 908 q 143 1006 143 965 l 143 1006 q 172 1074 143 1046 q 240 1103 200 1103 l 240 1103 q 310 1074 281 1103 q 339 1006 339 1046 l 339 1006 q 310 937 339 965 q 240 908 281 908 l 240 908 z "},"k":{"ha":989,"x_min":69,"x_max":939,"o":"m 69 29 q 180 99 150 56 q 210 225 210 143 l 210 225 l 210 768 q 178 909 210 856 q 75 963 147 963 l 75 963 l 75 996 q 244 1053 178 1015 q 367 1156 311 1090 l 367 1156 l 392 1135 q 335 810 335 993 l 335 810 l 335 385 l 561 549 q 610 598 593 571 q 626 651 626 625 l 626 651 q 599 708 626 683 q 522 743 572 733 l 522 743 l 528 774 q 739 764 646 764 l 739 764 q 925 774 829 764 l 925 774 l 931 746 q 638 539 815 672 l 638 539 l 596 508 q 781 213 686 346 q 939 28 875 81 l 939 28 l 926 -7 q 826 -1 888 -1 l 826 -1 q 726 -7 767 -1 l 726 -7 q 670 151 714 67 q 499 436 626 235 l 499 436 l 335 315 l 335 225 q 365 100 335 143 q 475 29 394 57 l 475 29 l 469 -10 q 274 0 374 0 l 274 0 q 75 -10 193 0 l 75 -10 l 69 29 z "},"ķ":{"ha":989,"x_min":69,"x_max":939,"o":"m 69 29 q 180 99 150 56 q 210 225 210 143 l 210 225 l 210 768 q 178 909 210 856 q 75 963 147 963 l 75 963 l 75 996 q 244 1053 178 1015 q 367 1156 311 1090 l 367 1156 l 392 1135 q 335 810 335 993 l 335 810 l 335 385 l 561 549 q 610 598 593 571 q 626 651 626 625 l 626 651 q 599 708 626 683 q 522 743 572 733 l 522 743 l 528 774 q 739 764 646 764 l 739 764 q 925 774 829 764 l 925 774 l 931 746 q 638 539 815 672 l 638 539 l 596 508 q 781 213 686 346 q 939 28 875 81 l 939 28 l 926 -7 q 826 -1 888 -1 l 826 -1 q 726 -7 767 -1 l 726 -7 q 670 151 714 67 q 499 436 626 235 l 499 436 l 335 315 l 335 225 q 365 100 335 143 q 475 29 394 57 l 475 29 l 469 -10 q 274 0 374 0 l 274 0 q 75 -10 193 0 l 75 -10 l 69 29 z m 518 -378 q 573 -329 553 -357 q 593 -271 593 -301 l 593 -271 q 524 -167 593 -214 l 524 -167 l 656 -90 q 708 -206 708 -143 l 708 -206 q 660 -319 708 -267 q 539 -401 613 -372 l 539 -401 l 518 -378 z "},"l":{"ha":531,"x_min":69,"x_max":475,"o":"m 69 29 q 180 99 150 56 q 210 225 210 143 l 210 225 l 210 768 q 178 909 210 856 q 75 963 147 963 l 75 963 l 75 1000 q 244 1053 178 1017 q 367 1156 311 1090 l 367 1156 l 392 1135 q 335 810 335 993 l 335 810 l 335 225 q 365 100 335 143 q 475 29 394 57 l 475 29 l 469 -10 q 274 0 374 0 l 274 0 q 75 -10 193 0 l 75 -10 l 69 29 z "},"ĺ":{"ha":531,"x_min":69,"x_max":479,"o":"m 69 29 q 180 99 150 56 q 210 225 210 143 l 210 225 l 210 768 q 178 909 210 856 q 75 963 147 963 l 75 963 l 75 1000 q 244 1053 178 1017 q 367 1156 311 1090 l 367 1156 l 392 1135 q 335 810 335 993 l 335 810 l 335 225 q 365 100 335 143 q 475 29 394 57 l 475 29 l 469 -10 q 274 0 374 0 l 274 0 q 75 -10 193 0 l 75 -10 l 69 29 z m 208 1204 l 319 1486 l 469 1486 l 479 1468 l 236 1185 l 208 1204 z "},"ľ":{"ha":531,"x_min":25,"x_max":514,"o":"m 69 29 q 180 99 150 56 q 210 225 210 143 l 210 225 l 210 768 q 178 909 210 856 q 75 963 147 963 l 75 963 l 75 1000 q 244 1053 178 1017 q 367 1156 311 1090 l 367 1156 l 392 1135 q 335 810 335 993 l 335 810 l 335 225 q 365 100 335 143 q 475 29 394 57 l 475 29 l 469 -10 q 274 0 374 0 l 274 0 q 75 -10 193 0 l 75 -10 l 69 29 z m 25 1474 l 53 1493 l 269 1343 l 486 1493 l 514 1474 l 278 1197 l 261 1197 l 25 1474 z "},"ļ":{"ha":531,"x_min":69,"x_max":475,"o":"m 69 29 q 180 99 150 56 q 210 225 210 143 l 210 225 l 210 768 q 178 909 210 856 q 75 963 147 963 l 75 963 l 75 1000 q 244 1053 178 1017 q 367 1156 311 1090 l 367 1156 l 392 1135 q 335 810 335 993 l 335 810 l 335 225 q 365 100 335 143 q 475 29 394 57 l 475 29 l 469 -10 q 274 0 374 0 l 274 0 q 75 -10 193 0 l 75 -10 l 69 29 z m 156 -392 q 210 -343 190 -371 q 231 -285 231 -315 l 231 -285 q 161 -181 231 -228 l 161 -181 l 293 -104 q 346 -219 346 -157 l 346 -219 q 298 -333 346 -281 q 176 -415 250 -386 l 176 -415 l 156 -392 z "},"ł":{"ha":544,"x_min":44,"x_max":507,"o":"m 69 29 q 180 99 150 56 q 210 225 210 143 l 210 225 l 210 456 l 44 350 l 44 443 l 210 549 l 210 768 q 178 909 210 856 q 75 963 147 963 l 75 963 l 75 1000 q 244 1053 178 1017 q 367 1156 311 1090 l 367 1156 l 392 1135 q 335 810 335 993 l 335 810 l 335 628 l 507 738 l 504 643 l 335 535 l 335 225 q 365 100 335 143 q 475 29 394 57 l 475 29 l 469 -10 q 274 0 374 0 l 274 0 q 75 -10 193 0 l 75 -10 l 69 29 z "},"m":{"ha":1489,"x_min":69,"x_max":1447,"o":"m 1056 29 q 1154 100 1126 56 q 1182 225 1182 144 l 1182 225 l 1182 454 q 1147 622 1182 567 q 1036 678 1111 678 l 1036 678 q 917 635 965 678 q 819 514 868 593 l 819 514 q 821 460 821 497 l 821 460 l 821 225 q 851 100 821 143 q 961 29 881 57 l 961 29 l 956 -10 q 760 0 860 0 l 760 0 q 575 -10 674 0 l 575 -10 l 569 29 q 668 100 640 56 q 696 225 696 144 l 696 225 l 696 454 q 661 623 696 568 q 551 678 626 678 l 551 678 q 431 635 479 678 q 335 513 383 592 l 335 513 l 335 458 l 335 225 q 365 100 335 143 q 475 29 394 57 l 475 29 l 469 -10 q 274 0 374 0 l 274 0 q 75 -10 193 0 l 75 -10 l 69 29 q 180 99 150 56 q 210 225 210 143 l 210 225 l 210 407 q 75 593 210 582 l 75 593 l 75 626 q 311 779 229 674 l 311 779 l 350 769 q 335 586 335 668 l 335 586 q 608 785 431 785 l 608 785 q 743 733 692 785 q 813 576 794 681 l 813 576 q 1092 785 911 785 l 1092 785 q 1252 703 1197 785 q 1307 460 1307 621 l 1307 460 l 1307 225 q 1337 100 1307 143 q 1447 29 1367 57 l 1447 29 l 1442 -10 q 1246 0 1346 0 l 1246 0 q 1061 -10 1160 0 l 1061 -10 l 1056 29 z "},"n":{"ha":1058,"x_min":69,"x_max":1017,"o":"m 625 29 q 724 100 696 56 q 751 225 751 144 l 751 225 l 751 454 q 581 678 751 678 l 581 678 q 446 634 500 678 q 335 508 392 590 l 335 508 l 335 458 l 335 225 q 365 100 335 143 q 475 29 394 57 l 475 29 l 469 -10 q 274 0 374 0 l 274 0 q 75 -10 193 0 l 75 -10 l 69 29 q 180 99 150 56 q 210 225 210 143 l 210 225 l 210 407 q 75 593 210 582 l 75 593 l 75 626 q 311 779 229 674 l 311 779 l 350 769 q 335 569 335 671 l 335 569 q 476 728 390 671 q 644 785 563 785 l 644 785 q 876 460 876 785 l 876 460 l 876 225 q 906 100 876 143 q 1017 29 936 57 l 1017 29 l 1011 -10 q 815 0 915 0 l 815 0 q 631 -10 729 0 l 631 -10 l 625 29 z "},"ń":{"ha":1058,"x_min":69,"x_max":1017,"o":"m 625 29 q 724 100 696 56 q 751 225 751 144 l 751 225 l 751 454 q 581 678 751 678 l 581 678 q 446 634 500 678 q 335 508 392 590 l 335 508 l 335 458 l 335 225 q 365 100 335 143 q 475 29 394 57 l 475 29 l 469 -10 q 274 0 374 0 l 274 0 q 75 -10 193 0 l 75 -10 l 69 29 q 180 99 150 56 q 210 225 210 143 l 210 225 l 210 407 q 75 593 210 582 l 75 593 l 75 626 q 311 779 229 674 l 311 779 l 350 769 q 335 569 335 671 l 335 569 q 476 728 390 671 q 644 785 563 785 l 644 785 q 876 460 876 785 l 876 460 l 876 225 q 906 100 876 143 q 1017 29 936 57 l 1017 29 l 1011 -10 q 815 0 915 0 l 815 0 q 631 -10 729 0 l 631 -10 l 625 29 z m 546 876 l 657 1158 l 807 1158 l 817 1140 l 574 857 l 546 876 z "},"ň":{"ha":1058,"x_min":69,"x_max":1017,"o":"m 625 29 q 724 100 696 56 q 751 225 751 144 l 751 225 l 751 454 q 581 678 751 678 l 581 678 q 446 634 500 678 q 335 508 392 590 l 335 508 l 335 458 l 335 225 q 365 100 335 143 q 475 29 394 57 l 475 29 l 469 -10 q 274 0 374 0 l 274 0 q 75 -10 193 0 l 75 -10 l 69 29 q 180 99 150 56 q 210 225 210 143 l 210 225 l 210 407 q 75 593 210 582 l 75 593 l 75 626 q 311 779 229 674 l 311 779 l 350 769 q 335 569 335 671 l 335 569 q 476 728 390 671 q 644 785 563 785 l 644 785 q 876 460 876 785 l 876 460 l 876 225 q 906 100 876 143 q 1017 29 936 57 l 1017 29 l 1011 -10 q 815 0 915 0 l 815 0 q 631 -10 729 0 l 631 -10 l 625 29 z m 363 1146 l 390 1165 l 607 1015 l 824 1165 l 851 1146 l 615 869 l 599 869 l 363 1146 z "},"ņ":{"ha":1058,"x_min":69,"x_max":1017,"o":"m 625 29 q 724 100 696 56 q 751 225 751 144 l 751 225 l 751 454 q 581 678 751 678 l 581 678 q 446 634 500 678 q 335 508 392 590 l 335 508 l 335 458 l 335 225 q 365 100 335 143 q 475 29 394 57 l 475 29 l 469 -10 q 274 0 374 0 l 274 0 q 75 -10 193 0 l 75 -10 l 69 29 q 180 99 150 56 q 210 225 210 143 l 210 225 l 210 407 q 75 593 210 582 l 75 593 l 75 626 q 311 779 229 674 l 311 779 l 350 769 q 335 569 335 671 l 335 569 q 476 728 390 671 q 644 785 563 785 l 644 785 q 876 460 876 785 l 876 460 l 876 225 q 906 100 876 143 q 1017 29 936 57 l 1017 29 l 1011 -10 q 815 0 915 0 l 815 0 q 631 -10 729 0 l 631 -10 l 625 29 z m 436 -392 q 491 -343 471 -371 q 511 -285 511 -315 l 511 -285 q 442 -181 511 -228 l 442 -181 l 574 -104 q 626 -219 626 -157 l 626 -219 q 578 -333 626 -281 q 457 -415 531 -386 l 457 -415 l 436 -392 z "},"ñ":{"ha":1058,"x_min":69,"x_max":1017,"o":"m 625 29 q 724 100 696 56 q 751 225 751 144 l 751 225 l 751 454 q 581 678 751 678 l 581 678 q 446 634 500 678 q 335 508 392 590 l 335 508 l 335 458 l 335 225 q 365 100 335 143 q 475 29 394 57 l 475 29 l 469 -10 q 274 0 374 0 l 274 0 q 75 -10 193 0 l 75 -10 l 69 29 q 180 99 150 56 q 210 225 210 143 l 210 225 l 210 407 q 75 593 210 582 l 75 593 l 75 626 q 311 779 229 674 l 311 779 l 350 769 q 335 569 335 671 l 335 569 q 476 728 390 671 q 644 785 563 785 l 644 785 q 876 460 876 785 l 876 460 l 876 225 q 906 100 876 143 q 1017 29 936 57 l 1017 29 l 1011 -10 q 815 0 915 0 l 815 0 q 631 -10 729 0 l 631 -10 l 625 29 z m 497 1096 q 415 1058 447 1096 q 382 969 382 1021 l 382 969 q 385 940 382 960 l 385 940 l 407 942 q 427 992 414 974 q 475 1010 440 1010 l 475 1010 q 512 1000 493 1010 q 558 971 531 990 l 558 971 q 626 931 597 944 q 688 918 654 918 l 688 918 q 772 958 738 918 q 806 1049 806 997 l 806 1049 q 803 1076 806 1057 l 803 1076 l 779 1076 q 710 1008 769 1008 l 710 1008 q 678 1017 694 1008 q 638 1042 663 1025 l 638 1042 q 567 1082 599 1068 q 497 1096 536 1096 l 497 1096 z "},"ŋ":{"ha":960,"x_min":69,"x_max":890,"o":"m 581 678 q 446 634 500 678 q 335 508 392 590 l 335 508 l 335 458 l 335 225 q 365 100 335 143 q 475 29 394 57 l 475 29 l 469 -10 q 274 0 374 0 l 274 0 q 75 -10 193 0 l 75 -10 l 69 29 q 180 99 150 56 q 210 225 210 143 l 210 225 l 210 407 q 75 593 210 582 l 75 593 l 75 626 q 311 779 229 674 l 311 779 l 350 769 q 335 569 335 671 l 335 569 q 476 728 390 671 q 644 785 563 785 l 644 785 q 828 685 767 785 q 890 350 890 585 l 890 350 q 840 2 890 131 q 717 -181 790 -126 q 547 -260 643 -236 l 547 -260 l 535 -231 q 692 -56 632 -186 q 751 350 751 75 l 751 350 q 733 547 751 475 q 677 648 714 618 q 581 678 640 678 l 581 678 z "},"o":{"ha":864,"x_min":35,"x_max":829,"o":"m 432 -21 q 233 32 324 -21 q 88 177 142 85 q 35 383 35 269 l 35 383 q 88 585 35 493 q 233 731 142 676 q 432 785 324 785 l 432 785 q 631 733 540 785 q 776 589 722 681 q 829 383 829 497 l 829 383 q 776 181 829 274 q 631 33 722 88 q 432 -21 539 -21 l 432 -21 z m 553 57 q 653 144 617 79 q 689 299 689 208 l 689 299 q 656 468 689 379 l 656 468 q 532 649 613 582 q 367 715 451 715 l 367 715 q 308 706 333 715 l 308 706 q 210 619 246 683 q 175 467 175 554 l 175 467 q 207 299 175 382 l 207 299 q 331 115 251 182 q 494 47 411 47 l 494 47 q 553 57 528 47 l 553 57 z "},"ó":{"ha":864,"x_min":35,"x_max":829,"o":"m 432 -21 q 233 32 324 -21 q 88 177 142 85 q 35 383 35 269 l 35 383 q 88 585 35 493 q 233 731 142 676 q 432 785 324 785 l 432 785 q 631 733 540 785 q 776 589 722 681 q 829 383 829 497 l 829 383 q 776 181 829 274 q 631 33 722 88 q 432 -21 539 -21 l 432 -21 z m 553 57 q 653 144 617 79 q 689 299 689 208 l 689 299 q 656 468 689 379 l 656 468 q 532 649 613 582 q 367 715 451 715 l 367 715 q 308 706 333 715 l 308 706 q 210 619 246 683 q 175 467 175 554 l 175 467 q 207 299 175 382 l 207 299 q 331 115 251 182 q 494 47 411 47 l 494 47 q 553 57 528 47 l 553 57 z m 383 878 l 494 1160 l 644 1160 l 654 1142 l 411 858 l 383 878 z "},"ǒ":{"ha":864,"x_min":35,"x_max":829,"o":"m 432 -21 q 233 32 324 -21 q 88 177 142 85 q 35 383 35 269 l 35 383 q 88 585 35 493 q 233 731 142 676 q 432 785 324 785 l 432 785 q 631 733 540 785 q 776 589 722 681 q 829 383 829 497 l 829 383 q 776 181 829 274 q 631 33 722 88 q 432 -21 539 -21 l 432 -21 z m 553 57 q 653 144 617 79 q 689 299 689 208 l 689 299 q 656 468 689 379 l 656 468 q 532 649 613 582 q 367 715 451 715 l 367 715 q 308 706 333 715 l 308 706 q 210 619 246 683 q 175 467 175 554 l 175 467 q 207 299 175 382 l 207 299 q 331 115 251 182 q 494 47 411 47 l 494 47 q 553 57 528 47 l 553 57 z m 200 1147 l 228 1167 l 444 1017 l 661 1167 l 689 1147 l 453 871 l 436 871 l 200 1147 z "},"ô":{"ha":864,"x_min":35,"x_max":829,"o":"m 432 -21 q 233 32 324 -21 q 88 177 142 85 q 35 383 35 269 l 35 383 q 88 585 35 493 q 233 731 142 676 q 432 785 324 785 l 432 785 q 631 733 540 785 q 776 589 722 681 q 829 383 829 497 l 829 383 q 776 181 829 274 q 631 33 722 88 q 432 -21 539 -21 l 432 -21 z m 553 57 q 653 144 617 79 q 689 299 689 208 l 689 299 q 656 468 689 379 l 656 468 q 532 649 613 582 q 367 715 451 715 l 367 715 q 308 706 333 715 l 308 706 q 210 619 246 683 q 175 467 175 554 l 175 467 q 207 299 175 382 l 207 299 q 331 115 251 182 q 494 47 411 47 l 494 47 q 553 57 528 47 l 553 57 z m 206 878 l 442 1154 l 458 1154 l 694 878 l 667 858 l 450 1008 l 233 858 l 206 878 z "},"ö":{"ha":864,"x_min":35,"x_max":829,"o":"m 432 -21 q 233 32 324 -21 q 88 177 142 85 q 35 383 35 269 l 35 383 q 88 585 35 493 q 233 731 142 676 q 432 785 324 785 l 432 785 q 631 733 540 785 q 776 589 722 681 q 829 383 829 497 l 829 383 q 776 181 829 274 q 631 33 722 88 q 432 -21 539 -21 l 432 -21 z m 553 57 q 653 144 617 79 q 689 299 689 208 l 689 299 q 656 468 689 379 l 656 468 q 532 649 613 582 q 367 715 451 715 l 367 715 q 308 706 333 715 l 308 706 q 210 619 246 683 q 175 467 175 554 l 175 467 q 207 299 175 382 l 207 299 q 331 115 251 182 q 494 47 411 47 l 494 47 q 553 57 528 47 l 553 57 z m 574 914 q 515 938 539 914 q 492 996 492 963 l 492 996 q 515 1055 492 1031 q 574 1079 539 1079 l 574 1079 q 632 1055 608 1079 q 656 996 656 1031 l 656 996 q 632 938 656 963 q 574 914 608 914 l 574 914 z m 319 914 q 261 938 285 914 q 238 996 238 963 l 238 996 q 261 1055 238 1031 q 319 1079 285 1079 l 319 1079 q 378 1055 354 1079 q 401 996 401 1031 l 401 996 q 378 938 401 963 q 319 914 354 914 l 319 914 z "},"ò":{"ha":864,"x_min":35,"x_max":829,"o":"m 432 -21 q 233 32 324 -21 q 88 177 142 85 q 35 383 35 269 l 35 383 q 88 585 35 493 q 233 731 142 676 q 432 785 324 785 l 432 785 q 631 733 540 785 q 776 589 722 681 q 829 383 829 497 l 829 383 q 776 181 829 274 q 631 33 722 88 q 432 -21 539 -21 l 432 -21 z m 553 57 q 653 144 617 79 q 689 299 689 208 l 689 299 q 656 468 689 379 l 656 468 q 532 649 613 582 q 367 715 451 715 l 367 715 q 308 706 333 715 l 308 706 q 210 619 246 683 q 175 467 175 554 l 175 467 q 207 299 175 382 l 207 299 q 331 115 251 182 q 494 47 411 47 l 494 47 q 553 57 528 47 l 553 57 z m 492 878 l 464 858 l 221 1142 l 231 1160 l 381 1160 l 492 878 z "},"ő":{"ha":864,"x_min":35,"x_max":829,"o":"m 432 -21 q 233 32 324 -21 q 88 177 142 85 q 35 383 35 269 l 35 383 q 88 585 35 493 q 233 731 142 676 q 432 785 324 785 l 432 785 q 631 733 540 785 q 776 589 722 681 q 829 383 829 497 l 829 383 q 776 181 829 274 q 631 33 722 88 q 432 -21 539 -21 l 432 -21 z m 553 57 q 653 144 617 79 q 689 299 689 208 l 689 299 q 656 468 689 379 l 656 468 q 532 649 613 582 q 367 715 451 715 l 367 715 q 308 706 333 715 l 308 706 q 210 619 246 683 q 175 467 175 554 l 175 467 q 207 299 175 382 l 207 299 q 331 115 251 182 q 494 47 411 47 l 494 47 q 553 57 528 47 l 553 57 z m 331 888 l 282 1183 l 422 1183 l 363 889 l 331 888 z m 536 888 l 488 1183 l 628 1183 l 568 889 l 536 888 z "},"ō":{"ha":864,"x_min":35,"x_max":829,"o":"m 432 -21 q 233 32 324 -21 q 88 177 142 85 q 35 383 35 269 l 35 383 q 88 585 35 493 q 233 731 142 676 q 432 785 324 785 l 432 785 q 631 733 540 785 q 776 589 722 681 q 829 383 829 497 l 829 383 q 776 181 829 274 q 631 33 722 88 q 432 -21 539 -21 l 432 -21 z m 553 57 q 653 144 617 79 q 689 299 689 208 l 689 299 q 656 468 689 379 l 656 468 q 532 649 613 582 q 367 715 451 715 l 367 715 q 308 706 333 715 l 308 706 q 210 619 246 683 q 175 467 175 554 l 175 467 q 207 299 175 382 l 207 299 q 331 115 251 182 q 494 47 411 47 l 494 47 q 553 57 528 47 l 553 57 z m 233 957 l 232 1026 l 638 1026 l 638 957 l 233 957 z "},"ø":{"ha":864,"x_min":35,"x_max":829,"o":"m 432 -21 q 192 58 297 -21 l 192 58 l 140 0 l 47 0 l 140 106 q 63 231 90 160 q 35 383 35 301 l 35 383 q 88 585 35 493 q 233 731 142 676 q 432 785 324 785 l 432 785 q 669 707 565 785 l 669 707 l 719 764 l 813 764 l 722 661 q 801 536 774 607 q 829 383 829 465 l 829 383 q 776 181 829 274 q 631 33 722 88 q 432 -21 539 -21 l 432 -21 z m 553 57 q 653 144 617 79 q 689 299 689 208 l 689 299 q 656 468 689 379 l 656 468 q 619 544 638 515 l 619 544 l 285 164 q 385 78 331 108 q 494 47 440 47 l 494 47 q 553 57 528 47 l 553 57 z m 207 299 q 243 222 226 251 l 243 222 l 578 603 q 476 686 531 657 q 367 715 421 715 l 367 715 q 308 706 336 715 l 308 706 q 210 619 246 683 q 175 467 175 554 l 175 467 q 207 299 175 382 l 207 299 z "},"õ":{"ha":864,"x_min":35,"x_max":829,"o":"m 432 -21 q 233 32 324 -21 q 88 177 142 85 q 35 383 35 269 l 35 383 q 88 585 35 493 q 233 731 142 676 q 432 785 324 785 l 432 785 q 631 733 540 785 q 776 589 722 681 q 829 383 829 497 l 829 383 q 776 181 829 274 q 631 33 722 88 q 432 -21 539 -21 l 432 -21 z m 553 57 q 653 144 617 79 q 689 299 689 208 l 689 299 q 656 468 689 379 l 656 468 q 532 649 613 582 q 367 715 451 715 l 367 715 q 308 706 333 715 l 308 706 q 210 619 246 683 q 175 467 175 554 l 175 467 q 207 299 175 382 l 207 299 q 331 115 251 182 q 494 47 411 47 l 494 47 q 553 57 528 47 l 553 57 z m 335 1061 q 252 1024 285 1061 q 219 935 219 986 l 219 935 q 222 906 219 925 l 222 906 l 244 907 q 265 957 251 939 q 313 975 278 975 l 313 975 q 349 965 331 975 q 396 936 368 956 l 396 936 q 463 897 435 910 q 525 883 492 883 l 525 883 q 609 923 575 883 q 643 1014 643 963 l 643 1014 q 640 1042 643 1022 l 640 1042 l 617 1042 q 547 974 607 974 l 547 974 q 516 982 532 974 q 475 1007 500 990 l 475 1007 q 405 1047 436 1033 q 335 1061 374 1061 l 335 1061 z "},"œ":{"ha":1417,"x_min":35,"x_max":1396,"o":"m 432 -21 q 233 32 324 -21 q 88 177 142 85 q 35 383 35 269 l 35 383 q 88 585 35 493 q 233 731 142 676 q 432 785 324 785 l 432 785 q 617 741 532 785 q 757 619 703 697 l 757 619 q 882 740 806 696 q 1053 785 958 785 l 1053 785 q 1281 698 1196 785 q 1356 431 1365 611 l 1356 431 l 822 432 q 892 226 826 314 l 892 226 q 996 138 935 169 q 1124 107 1057 107 l 1124 107 q 1260 143 1196 107 q 1371 249 1325 179 l 1371 249 l 1396 233 q 1321 104 1375 163 q 1195 13 1267 46 q 1053 -21 1124 -21 l 1053 -21 q 878 24 956 -21 q 754 147 801 68 l 754 147 q 613 24 697 69 q 432 -21 529 -21 l 432 -21 z m 553 57 q 653 144 617 79 q 689 299 689 208 l 689 299 q 656 468 689 379 l 656 468 q 532 649 613 582 q 367 715 451 715 l 367 715 q 308 706 333 715 l 308 706 q 210 619 246 683 q 175 467 175 554 l 175 467 q 207 299 175 382 l 207 299 q 331 115 251 182 q 494 47 411 47 l 494 47 q 553 57 528 47 l 553 57 z m 824 488 l 1200 486 q 1172 613 1200 558 q 1098 696 1143 667 q 1006 725 1053 725 l 1006 725 q 928 701 964 725 l 928 701 q 858 614 885 671 q 824 488 831 557 l 824 488 z "},"p":{"ha":956,"x_min":28,"x_max":921,"o":"m 28 -314 q 138 -244 103 -289 q 172 -122 172 -200 l 172 -122 l 172 414 q 141 555 172 501 q 38 608 110 608 l 38 608 l 38 646 q 167 690 125 656 q 233 789 210 724 l 233 789 l 268 786 l 281 643 q 551 785 361 785 l 551 785 q 738 731 653 785 q 872 585 822 678 q 921 381 921 492 l 921 381 q 874 178 921 269 q 745 33 828 86 q 561 -21 663 -21 l 561 -21 q 297 97 385 -21 l 297 97 l 297 -122 q 309 -215 297 -182 q 363 -274 321 -249 q 492 -318 404 -299 l 492 -318 l 486 -357 q 226 -347 332 -347 l 226 -347 q 33 -353 175 -347 l 33 -353 l 28 -314 z m 583 38 q 713 113 664 38 q 761 310 761 188 l 761 310 q 756 393 761 354 l 756 393 q 661 621 735 535 q 489 707 588 707 l 489 707 q 458 704 478 707 l 458 704 q 342 623 385 694 q 299 446 299 551 l 299 446 q 303 378 299 414 l 303 378 q 356 201 315 278 q 456 81 396 124 q 583 38 515 38 l 583 38 z "},"þ":{"ha":997,"x_min":69,"x_max":963,"o":"m 603 -21 q 339 97 426 -21 l 339 97 l 339 -122 q 351 -215 339 -182 q 404 -274 363 -249 q 533 -318 446 -299 l 533 -318 l 528 -357 q 268 -347 374 -347 l 268 -347 q 75 -353 217 -347 l 75 -353 l 69 -314 q 179 -244 144 -289 q 214 -122 214 -200 l 214 -122 l 214 768 q 183 909 214 856 q 79 963 151 963 l 79 963 l 79 1000 q 249 1053 182 1017 q 371 1156 315 1090 l 371 1156 l 396 1135 q 339 810 339 993 l 339 810 l 339 669 q 593 785 422 785 l 593 785 q 779 731 694 785 q 913 585 864 678 q 963 381 963 492 l 963 381 q 916 178 963 269 q 787 33 869 86 q 603 -21 704 -21 l 603 -21 z m 344 378 q 397 201 357 278 q 497 81 438 124 q 625 38 557 38 l 625 38 q 755 113 707 38 q 803 310 803 188 l 803 310 q 797 393 803 354 l 797 393 q 703 621 776 535 q 531 707 629 707 l 531 707 q 500 704 519 707 l 500 704 q 383 623 426 694 q 340 446 340 551 l 340 446 q 344 378 340 414 l 344 378 z "},"q":{"ha":957,"x_min":35,"x_max":929,"o":"m 404 -21 q 218 33 303 -21 q 84 179 133 86 q 35 383 35 272 l 35 383 q 81 586 35 494 q 210 731 128 678 q 394 785 293 785 l 394 785 q 675 643 589 785 l 675 643 l 763 764 l 810 764 q 791 581 797 669 q 785 372 785 492 l 785 372 l 785 -122 q 819 -244 785 -200 q 929 -314 854 -289 l 929 -314 l 924 -353 q 731 -347 782 -347 l 731 -347 q 471 -357 625 -347 l 471 -357 l 465 -318 q 594 -274 553 -299 q 648 -215 636 -249 q 660 -122 660 -182 l 660 -122 l 660 97 q 404 -21 578 -21 l 404 -21 z m 481 63 q 613 135 568 63 q 658 326 658 207 l 658 326 q 653 418 658 375 l 653 418 q 560 648 632 564 q 389 732 489 732 l 389 732 q 356 729 378 732 l 356 729 q 241 647 285 718 q 197 463 197 576 l 197 463 q 200 404 197 446 l 200 404 q 247 232 210 310 q 346 108 285 154 q 481 63 407 63 l 481 63 z "},"r":{"ha":725,"x_min":69,"x_max":690,"o":"m 69 29 q 180 99 150 56 q 210 225 210 143 l 210 225 l 210 407 q 75 593 210 582 l 75 593 l 75 626 q 311 779 229 674 l 311 779 l 350 769 q 335 578 335 675 l 335 578 q 447 726 375 679 q 599 772 519 772 l 599 772 q 690 756 647 772 l 690 756 q 675 543 675 664 l 675 543 l 675 493 l 644 485 q 588 601 631 563 q 486 639 546 639 l 486 639 q 378 585 422 639 q 335 447 335 531 l 335 447 l 335 225 q 365 100 335 143 q 475 29 394 57 l 475 29 l 469 -10 q 274 0 374 0 l 274 0 q 75 -10 193 0 l 75 -10 l 69 29 z "},"ŕ":{"ha":725,"x_min":69,"x_max":690,"o":"m 69 29 q 180 99 150 56 q 210 225 210 143 l 210 225 l 210 407 q 75 593 210 582 l 75 593 l 75 626 q 311 779 229 674 l 311 779 l 350 769 q 335 578 335 675 l 335 578 q 447 726 375 679 q 599 772 519 772 l 599 772 q 690 756 647 772 l 690 756 q 675 543 675 664 l 675 543 l 675 493 l 644 485 q 588 601 631 563 q 486 639 546 639 l 486 639 q 378 585 422 639 q 335 447 335 531 l 335 447 l 335 225 q 365 100 335 143 q 475 29 394 57 l 475 29 l 469 -10 q 274 0 374 0 l 274 0 q 75 -10 193 0 l 75 -10 l 69 29 z m 417 878 l 528 1160 l 678 1160 l 688 1142 l 444 858 l 417 878 z "},"ř":{"ha":725,"x_min":69,"x_max":722,"o":"m 69 29 q 180 99 150 56 q 210 225 210 143 l 210 225 l 210 407 q 75 593 210 582 l 75 593 l 75 626 q 311 779 229 674 l 311 779 l 350 769 q 335 578 335 675 l 335 578 q 447 726 375 679 q 599 772 519 772 l 599 772 q 690 756 647 772 l 690 756 q 675 543 675 664 l 675 543 l 675 493 l 644 485 q 588 601 631 563 q 486 639 546 639 l 486 639 q 378 585 422 639 q 335 447 335 531 l 335 447 l 335 225 q 365 100 335 143 q 475 29 394 57 l 475 29 l 469 -10 q 274 0 374 0 l 274 0 q 75 -10 193 0 l 75 -10 l 69 29 z m 233 1147 l 261 1167 l 478 1017 l 694 1167 l 722 1147 l 486 871 l 469 871 l 233 1147 z "},"ŗ":{"ha":725,"x_min":69,"x_max":690,"o":"m 69 29 q 180 99 150 56 q 210 225 210 143 l 210 225 l 210 407 q 75 593 210 582 l 75 593 l 75 626 q 311 779 229 674 l 311 779 l 350 769 q 335 578 335 675 l 335 578 q 447 726 375 679 q 599 772 519 772 l 599 772 q 690 756 647 772 l 690 756 q 675 543 675 664 l 675 543 l 675 493 l 644 485 q 588 601 631 563 q 486 639 546 639 l 486 639 q 378 585 422 639 q 335 447 335 531 l 335 447 l 335 225 q 365 100 335 143 q 475 29 394 57 l 475 29 l 469 -10 q 274 0 374 0 l 274 0 q 75 -10 193 0 l 75 -10 l 69 29 z m 229 -378 q 284 -329 264 -357 q 304 -271 304 -301 l 304 -271 q 235 -167 304 -214 l 235 -167 l 367 -90 q 419 -206 419 -143 l 419 -206 q 372 -319 419 -267 q 250 -401 324 -372 l 250 -401 l 229 -378 z "},"s":{"ha":744,"x_min":69,"x_max":675,"o":"m 111 297 q 233 101 161 160 q 406 42 304 42 l 406 42 q 510 69 468 42 q 553 146 553 97 l 553 146 q 501 240 553 196 q 335 331 449 285 l 335 331 q 151 439 208 382 q 94 571 94 496 l 94 571 q 176 725 94 672 q 378 778 257 778 l 378 778 q 454 772 419 778 q 496 765 489 767 l 496 765 q 625 751 568 751 l 625 751 q 621 635 621 692 l 621 635 q 628 508 621 563 l 628 508 l 597 501 q 497 669 563 615 q 354 722 431 722 l 354 722 q 258 695 296 722 q 221 618 221 668 l 221 618 q 269 538 221 576 q 418 457 317 500 l 418 457 q 618 338 561 396 q 675 197 675 279 l 675 197 q 375 -14 675 -14 l 375 -14 q 221 -5 293 -14 q 69 28 149 4 l 69 28 q 84 115 78 64 q 90 213 90 165 l 90 213 q 83 289 90 251 l 83 289 l 111 297 z "},"ś":{"ha":744,"x_min":69,"x_max":675,"o":"m 111 297 q 233 101 161 160 q 406 42 304 42 l 406 42 q 510 69 468 42 q 553 146 553 97 l 553 146 q 501 240 553 196 q 335 331 449 285 l 335 331 q 151 439 208 382 q 94 571 94 496 l 94 571 q 176 725 94 672 q 378 778 257 778 l 378 778 q 454 772 419 778 q 496 765 489 767 l 496 765 q 625 751 568 751 l 625 751 q 621 635 621 692 l 621 635 q 628 508 621 563 l 628 508 l 597 501 q 497 669 563 615 q 354 722 431 722 l 354 722 q 258 695 296 722 q 221 618 221 668 l 221 618 q 269 538 221 576 q 418 457 317 500 l 418 457 q 618 338 561 396 q 675 197 675 279 l 675 197 q 375 -14 675 -14 l 375 -14 q 221 -5 293 -14 q 69 28 149 4 l 69 28 q 84 115 78 64 q 90 213 90 165 l 90 213 q 83 289 90 251 l 83 289 l 111 297 z m 307 857 l 418 1139 l 568 1139 l 578 1121 l 335 838 l 307 857 z "},"š":{"ha":744,"x_min":69,"x_max":675,"o":"m 111 297 q 233 101 161 160 q 406 42 304 42 l 406 42 q 510 69 468 42 q 553 146 553 97 l 553 146 q 501 240 553 196 q 335 331 449 285 l 335 331 q 151 439 208 382 q 94 571 94 496 l 94 571 q 176 725 94 672 q 378 778 257 778 l 378 778 q 454 772 419 778 q 496 765 489 767 l 496 765 q 625 751 568 751 l 625 751 q 621 635 621 692 l 621 635 q 628 508 621 563 l 628 508 l 597 501 q 497 669 563 615 q 354 722 431 722 l 354 722 q 258 695 296 722 q 221 618 221 668 l 221 618 q 269 538 221 576 q 418 457 317 500 l 418 457 q 618 338 561 396 q 675 197 675 279 l 675 197 q 375 -14 675 -14 l 375 -14 q 221 -5 293 -14 q 69 28 149 4 l 69 28 q 84 115 78 64 q 90 213 90 165 l 90 213 q 83 289 90 251 l 83 289 l 111 297 z m 124 1126 l 151 1146 l 368 996 l 585 1146 l 613 1126 l 376 850 l 360 850 l 124 1126 z "},"ş":{"ha":744,"x_min":69,"x_max":675,"o":"m 111 297 q 233 101 161 160 q 406 42 304 42 l 406 42 q 510 69 468 42 q 553 146 553 97 l 553 146 q 501 240 553 196 q 335 331 449 285 l 335 331 q 151 439 208 382 q 94 571 94 496 l 94 571 q 176 725 94 672 q 378 778 257 778 l 378 778 q 454 772 419 778 q 496 765 489 767 l 496 765 q 625 751 568 751 l 625 751 q 621 635 621 692 l 621 635 q 628 508 621 563 l 628 508 l 597 501 q 497 669 563 615 q 354 722 431 722 l 354 722 q 258 695 296 722 q 221 618 221 668 l 221 618 q 269 538 221 576 q 418 457 317 500 l 418 457 q 618 338 561 396 q 675 197 675 279 l 675 197 q 394 -14 675 -8 l 394 -14 l 386 -74 q 519 -99 469 -74 q 568 -169 568 -125 l 568 -169 q 518 -256 568 -219 q 396 -292 468 -292 l 396 -292 q 263 -267 322 -292 q 163 -203 204 -242 l 163 -203 l 181 -185 q 354 -236 269 -236 l 354 -236 q 419 -222 394 -236 q 444 -186 444 -208 l 444 -186 q 390 -134 444 -147 q 272 -121 336 -121 l 272 -121 l 368 -14 q 69 28 213 -14 l 69 28 q 84 115 78 64 q 90 213 90 165 l 90 213 q 83 289 90 251 l 83 289 l 111 297 z "},"ș":{"ha":744,"x_min":69,"x_max":675,"o":"m 111 297 q 233 101 161 160 q 406 42 304 42 l 406 42 q 510 69 468 42 q 553 146 553 97 l 553 146 q 501 240 553 196 q 335 331 449 285 l 335 331 q 151 439 208 382 q 94 571 94 496 l 94 571 q 176 725 94 672 q 378 778 257 778 l 378 778 q 454 772 419 778 q 496 765 489 767 l 496 765 q 625 751 568 751 l 625 751 q 621 635 621 692 l 621 635 q 628 508 621 563 l 628 508 l 597 501 q 497 669 563 615 q 354 722 431 722 l 354 722 q 258 695 296 722 q 221 618 221 668 l 221 618 q 269 538 221 576 q 418 457 317 500 l 418 457 q 618 338 561 396 q 675 197 675 279 l 675 197 q 375 -14 675 -14 l 375 -14 q 221 -5 293 -14 q 69 28 149 4 l 69 28 q 84 115 78 64 q 90 213 90 165 l 90 213 q 83 289 90 251 l 83 289 l 111 297 z m 254 -378 q 309 -329 289 -357 q 329 -271 329 -301 l 329 -271 q 260 -167 329 -214 l 260 -167 l 392 -90 q 444 -206 444 -143 l 444 -206 q 397 -319 444 -267 q 275 -401 349 -372 l 275 -401 l 254 -378 z "},"ß":{"ha":992,"x_min":56,"x_max":950,"o":"m 56 33 q 165 103 131 58 q 200 225 200 147 l 200 225 l 200 431 q 186 563 200 517 q 143 628 172 610 q 63 646 114 646 l 63 646 l 63 683 q 147 706 118 688 q 185 755 175 725 q 203 840 196 785 l 203 840 q 256 983 214 918 q 370 1087 299 1049 q 535 1125 442 1125 l 535 1125 q 663 1101 599 1125 q 769 1034 728 1078 q 811 931 811 990 l 811 931 q 771 812 811 857 q 654 721 731 767 l 654 721 q 592 638 592 683 l 592 638 q 623 574 592 608 q 740 490 654 540 l 740 490 q 899 356 847 428 q 950 197 950 283 l 950 197 q 878 44 950 101 q 686 -14 806 -14 l 686 -14 q 571 -5 625 -14 q 458 28 517 4 l 458 28 q 474 211 474 119 l 474 211 q 468 289 474 260 l 468 289 l 489 297 q 577 101 526 161 q 694 42 628 42 l 694 42 q 785 74 751 42 q 818 160 818 106 l 818 160 q 781 260 818 213 q 654 363 743 308 l 654 363 q 510 469 558 421 q 463 576 463 518 l 463 576 q 492 656 463 618 q 590 758 522 694 l 590 758 q 651 843 629 796 q 672 940 672 890 l 672 940 q 630 1028 672 996 q 518 1060 588 1060 l 518 1060 q 367 983 408 1060 q 325 801 325 907 l 325 801 l 325 225 q 329 105 325 151 q 344 0 333 58 l 344 0 q 61 -6 203 0 l 61 -6 l 56 33 z "},"t":{"ha":704,"x_min":14,"x_max":697,"o":"m 381 -21 q 206 51 263 -21 q 149 283 149 124 l 149 283 l 149 492 q 137 612 149 569 q 96 674 125 654 q 14 697 67 693 l 14 697 l 14 735 q 157 804 106 756 q 256 958 208 853 l 256 958 l 289 953 q 278 749 283 879 l 278 749 l 663 764 l 675 744 l 618 667 l 276 685 q 274 324 274 579 l 274 324 q 316 144 274 201 q 444 86 358 86 l 444 86 q 563 128 510 86 q 667 249 615 171 l 667 249 l 697 231 q 557 45 643 111 q 381 -21 471 -21 l 381 -21 z "},"ŧ":{"ha":757,"x_min":14,"x_max":697,"o":"m 47 400 l 46 469 l 149 471 l 149 492 q 137 612 149 569 q 96 674 125 654 q 14 697 67 693 l 14 697 l 14 735 q 157 804 106 756 q 256 958 208 853 l 256 958 l 289 953 q 278 749 283 879 l 278 749 l 663 764 l 675 744 l 618 667 l 276 685 q 274 471 274 551 l 274 471 l 632 474 l 632 404 l 274 401 l 274 324 q 316 144 274 201 q 444 86 358 86 l 444 86 q 563 128 510 86 q 667 249 615 171 l 667 249 l 697 231 q 557 45 643 111 q 381 -21 471 -21 l 381 -21 q 206 51 263 -21 q 149 283 149 124 l 149 283 l 149 401 l 47 400 z "},"ť":{"ha":704,"x_min":14,"x_max":697,"o":"m 381 -21 q 206 51 263 -21 q 149 283 149 124 l 149 283 l 149 492 q 137 612 149 569 q 96 674 125 654 q 14 697 67 693 l 14 697 l 14 735 q 157 804 106 756 q 256 958 208 853 l 256 958 l 289 953 q 278 749 283 879 l 278 749 l 663 764 l 675 744 l 618 667 l 276 685 q 274 324 274 579 l 274 324 q 316 144 274 201 q 444 86 358 86 l 444 86 q 563 128 510 86 q 667 249 615 171 l 667 249 l 697 231 q 557 45 643 111 q 381 -21 471 -21 l 381 -21 z m 104 1269 l 132 1289 l 349 1139 l 565 1289 l 593 1269 l 357 993 l 340 993 l 104 1269 z "},"ţ":{"ha":704,"x_min":14,"x_max":697,"o":"m 381 -21 q 206 51 263 -21 q 149 283 149 124 l 149 283 l 149 492 q 137 612 149 569 q 96 674 125 654 q 14 697 67 693 l 14 697 l 14 735 q 157 804 106 756 q 256 958 208 853 l 256 958 l 289 953 q 278 749 283 879 l 278 749 l 663 764 l 675 744 l 618 667 l 276 685 q 274 324 274 579 l 274 324 q 316 144 274 201 q 444 86 358 86 l 444 86 q 563 128 510 86 q 667 249 615 171 l 667 249 l 697 231 q 573 58 649 122 q 414 -18 497 -6 l 414 -18 l 406 -86 q 538 -112 489 -86 q 588 -182 588 -137 l 588 -182 q 538 -268 588 -232 q 415 -304 488 -304 l 415 -304 q 283 -279 342 -304 q 182 -215 224 -254 l 182 -215 l 200 -197 q 374 -249 289 -249 l 374 -249 q 439 -235 414 -249 q 464 -199 464 -221 l 464 -199 q 410 -147 464 -160 q 292 -133 356 -133 l 292 -133 l 392 -21 l 381 -21 z "},"ț":{"ha":704,"x_min":14,"x_max":697,"o":"m 381 -21 q 206 51 263 -21 q 149 283 149 124 l 149 283 l 149 492 q 137 612 149 569 q 96 674 125 654 q 14 697 67 693 l 14 697 l 14 735 q 157 804 106 756 q 256 958 208 853 l 256 958 l 289 953 q 278 749 283 879 l 278 749 l 663 764 l 675 744 l 618 667 l 276 685 q 274 324 274 579 l 274 324 q 316 144 274 201 q 444 86 358 86 l 444 86 q 563 128 510 86 q 667 249 615 171 l 667 249 l 697 231 q 557 45 643 111 q 381 -21 471 -21 l 381 -21 z m 310 -411 q 365 -362 344 -390 q 385 -304 385 -335 l 385 -304 q 315 -200 385 -247 l 315 -200 l 447 -124 q 500 -239 500 -176 l 500 -239 q 452 -353 500 -300 q 331 -435 404 -406 l 331 -435 l 310 -411 z "},"u":{"ha":924,"x_min":14,"x_max":896,"o":"m 367 -21 q 193 65 251 -21 q 135 315 135 151 l 135 315 l 135 413 q 108 574 135 526 q 14 628 82 622 l 14 628 l 14 656 q 148 708 94 676 q 251 790 201 740 l 251 790 l 275 781 q 263 626 265 700 q 260 418 260 553 l 260 418 l 260 321 q 303 147 260 207 q 431 86 346 86 l 431 86 q 542 131 490 86 q 649 256 594 176 l 649 256 l 649 413 q 637 535 649 490 q 596 601 625 579 q 514 628 567 624 l 514 628 l 514 656 q 654 707 601 676 q 758 790 707 738 l 758 790 l 782 781 q 769 626 772 700 q 767 418 767 553 l 767 418 l 767 351 q 799 174 767 240 q 896 81 832 108 l 896 81 l 896 49 l 696 -12 q 665 70 676 13 q 650 192 653 128 l 650 192 q 518 35 593 92 q 367 -21 443 -21 l 367 -21 z "},"ú":{"ha":924,"x_min":14,"x_max":896,"o":"m 367 -21 q 193 65 251 -21 q 135 315 135 151 l 135 315 l 135 413 q 108 574 135 526 q 14 628 82 622 l 14 628 l 14 656 q 148 708 94 676 q 251 790 201 740 l 251 790 l 275 781 q 263 626 265 700 q 260 418 260 553 l 260 418 l 260 321 q 303 147 260 207 q 431 86 346 86 l 431 86 q 542 131 490 86 q 649 256 594 176 l 649 256 l 649 413 q 637 535 649 490 q 596 601 625 579 q 514 628 567 624 l 514 628 l 514 656 q 654 707 601 676 q 758 790 707 738 l 758 790 l 782 781 q 769 626 772 700 q 767 418 767 553 l 767 418 l 767 351 q 799 174 767 240 q 896 81 832 108 l 896 81 l 896 49 l 696 -12 q 665 70 676 13 q 650 192 653 128 l 650 192 q 518 35 593 92 q 367 -21 443 -21 l 367 -21 z m 393 857 l 504 1139 l 654 1139 l 664 1121 l 421 838 l 393 857 z "},"ǔ":{"ha":924,"x_min":14,"x_max":896,"o":"m 367 -21 q 193 65 251 -21 q 135 315 135 151 l 135 315 l 135 413 q 108 574 135 526 q 14 628 82 622 l 14 628 l 14 656 q 148 708 94 676 q 251 790 201 740 l 251 790 l 275 781 q 263 626 265 700 q 260 418 260 553 l 260 418 l 260 321 q 303 147 260 207 q 431 86 346 86 l 431 86 q 542 131 490 86 q 649 256 594 176 l 649 256 l 649 413 q 637 535 649 490 q 596 601 625 579 q 514 628 567 624 l 514 628 l 514 656 q 654 707 601 676 q 758 790 707 738 l 758 790 l 782 781 q 769 626 772 700 q 767 418 767 553 l 767 418 l 767 351 q 799 174 767 240 q 896 81 832 108 l 896 81 l 896 49 l 696 -12 q 665 70 676 13 q 650 192 653 128 l 650 192 q 518 35 593 92 q 367 -21 443 -21 l 367 -21 z m 210 1126 l 238 1146 l 454 996 l 671 1146 l 699 1126 l 463 850 l 446 850 l 210 1126 z "},"û":{"ha":924,"x_min":14,"x_max":896,"o":"m 367 -21 q 193 65 251 -21 q 135 315 135 151 l 135 315 l 135 413 q 108 574 135 526 q 14 628 82 622 l 14 628 l 14 656 q 148 708 94 676 q 251 790 201 740 l 251 790 l 275 781 q 263 626 265 700 q 260 418 260 553 l 260 418 l 260 321 q 303 147 260 207 q 431 86 346 86 l 431 86 q 542 131 490 86 q 649 256 594 176 l 649 256 l 649 413 q 637 535 649 490 q 596 601 625 579 q 514 628 567 624 l 514 628 l 514 656 q 654 707 601 676 q 758 790 707 738 l 758 790 l 782 781 q 769 626 772 700 q 767 418 767 553 l 767 418 l 767 351 q 799 174 767 240 q 896 81 832 108 l 896 81 l 896 49 l 696 -12 q 665 70 676 13 q 650 192 653 128 l 650 192 q 518 35 593 92 q 367 -21 443 -21 l 367 -21 z m 217 885 l 453 1161 l 469 1161 l 706 885 l 678 865 l 461 1015 l 244 865 l 217 885 z "},"ü":{"ha":924,"x_min":14,"x_max":896,"o":"m 367 -21 q 193 65 251 -21 q 135 315 135 151 l 135 315 l 135 413 q 108 574 135 526 q 14 628 82 622 l 14 628 l 14 656 q 148 708 94 676 q 251 790 201 740 l 251 790 l 275 781 q 263 626 265 700 q 260 418 260 553 l 260 418 l 260 321 q 303 147 260 207 q 431 86 346 86 l 431 86 q 542 131 490 86 q 649 256 594 176 l 649 256 l 649 413 q 637 535 649 490 q 596 601 625 579 q 514 628 567 624 l 514 628 l 514 656 q 654 707 601 676 q 758 790 707 738 l 758 790 l 782 781 q 769 626 772 700 q 767 418 767 553 l 767 418 l 767 351 q 799 174 767 240 q 896 81 832 108 l 896 81 l 896 49 l 696 -12 q 665 70 676 13 q 650 192 653 128 l 650 192 q 518 35 593 92 q 367 -21 443 -21 l 367 -21 z m 583 893 q 525 917 549 893 q 501 975 501 942 l 501 975 q 525 1034 501 1010 q 583 1058 549 1058 l 583 1058 q 642 1034 618 1058 q 665 975 665 1010 l 665 975 q 642 917 665 942 q 583 893 618 893 l 583 893 z m 329 893 q 271 917 294 893 q 247 975 247 942 l 247 975 q 271 1034 247 1010 q 329 1058 294 1058 l 329 1058 q 388 1034 364 1058 q 411 975 411 1010 l 411 975 q 388 917 411 942 q 329 893 364 893 l 329 893 z "},"ǘ":{"ha":924,"x_min":14,"x_max":896,"o":"m 367 -21 q 193 65 251 -21 q 135 315 135 151 l 135 315 l 135 413 q 108 574 135 526 q 14 628 82 622 l 14 628 l 14 656 q 148 708 94 676 q 251 790 201 740 l 251 790 l 275 781 q 263 626 265 700 q 260 418 260 553 l 260 418 l 260 321 q 303 147 260 207 q 431 86 346 86 l 431 86 q 542 131 490 86 q 649 256 594 176 l 649 256 l 649 413 q 637 535 649 490 q 596 601 625 579 q 514 628 567 624 l 514 628 l 514 656 q 654 707 601 676 q 758 790 707 738 l 758 790 l 782 781 q 769 626 772 700 q 767 418 767 553 l 767 418 l 767 351 q 799 174 767 240 q 896 81 832 108 l 896 81 l 896 49 l 696 -12 q 665 70 676 13 q 650 192 653 128 l 650 192 q 518 35 593 92 q 367 -21 443 -21 l 367 -21 z m 583 893 q 525 917 549 893 q 501 975 501 942 l 501 975 q 525 1034 501 1010 q 583 1058 549 1058 l 583 1058 q 642 1034 618 1058 q 665 975 665 1010 l 665 975 q 642 917 665 942 q 583 893 618 893 l 583 893 z m 329 893 q 271 917 294 893 q 247 975 247 942 l 247 975 q 271 1034 247 1010 q 329 1058 294 1058 l 329 1058 q 388 1034 364 1058 q 411 975 411 1010 l 411 975 q 388 917 411 942 q 329 893 364 893 l 329 893 z m 393 1225 l 504 1507 l 654 1507 l 664 1489 l 421 1206 l 393 1225 z "},"ǚ":{"ha":924,"x_min":14,"x_max":896,"o":"m 367 -21 q 193 65 251 -21 q 135 315 135 151 l 135 315 l 135 413 q 108 574 135 526 q 14 628 82 622 l 14 628 l 14 656 q 148 708 94 676 q 251 790 201 740 l 251 790 l 275 781 q 263 626 265 700 q 260 418 260 553 l 260 418 l 260 321 q 303 147 260 207 q 431 86 346 86 l 431 86 q 542 131 490 86 q 649 256 594 176 l 649 256 l 649 413 q 637 535 649 490 q 596 601 625 579 q 514 628 567 624 l 514 628 l 514 656 q 654 707 601 676 q 758 790 707 738 l 758 790 l 782 781 q 769 626 772 700 q 767 418 767 553 l 767 418 l 767 351 q 799 174 767 240 q 896 81 832 108 l 896 81 l 896 49 l 696 -12 q 665 70 676 13 q 650 192 653 128 l 650 192 q 518 35 593 92 q 367 -21 443 -21 l 367 -21 z m 583 893 q 525 917 549 893 q 501 975 501 942 l 501 975 q 525 1034 501 1010 q 583 1058 549 1058 l 583 1058 q 642 1034 618 1058 q 665 975 665 1010 l 665 975 q 642 917 665 942 q 583 893 618 893 l 583 893 z m 329 893 q 271 917 294 893 q 247 975 247 942 l 247 975 q 271 1034 247 1010 q 329 1058 294 1058 l 329 1058 q 388 1034 364 1058 q 411 975 411 1010 l 411 975 q 388 917 411 942 q 329 893 364 893 l 329 893 z m 210 1494 l 238 1514 l 454 1364 l 671 1514 l 699 1494 l 463 1218 l 446 1218 l 210 1494 z "},"ǜ":{"ha":924,"x_min":14,"x_max":896,"o":"m 367 -21 q 193 65 251 -21 q 135 315 135 151 l 135 315 l 135 413 q 108 574 135 526 q 14 628 82 622 l 14 628 l 14 656 q 148 708 94 676 q 251 790 201 740 l 251 790 l 275 781 q 263 626 265 700 q 260 418 260 553 l 260 418 l 260 321 q 303 147 260 207 q 431 86 346 86 l 431 86 q 542 131 490 86 q 649 256 594 176 l 649 256 l 649 413 q 637 535 649 490 q 596 601 625 579 q 514 628 567 624 l 514 628 l 514 656 q 654 707 601 676 q 758 790 707 738 l 758 790 l 782 781 q 769 626 772 700 q 767 418 767 553 l 767 418 l 767 351 q 799 174 767 240 q 896 81 832 108 l 896 81 l 896 49 l 696 -12 q 665 70 676 13 q 650 192 653 128 l 650 192 q 518 35 593 92 q 367 -21 443 -21 l 367 -21 z m 583 893 q 525 917 549 893 q 501 975 501 942 l 501 975 q 525 1034 501 1010 q 583 1058 549 1058 l 583 1058 q 642 1034 618 1058 q 665 975 665 1010 l 665 975 q 642 917 665 942 q 583 893 618 893 l 583 893 z m 329 893 q 271 917 294 893 q 247 975 247 942 l 247 975 q 271 1034 247 1010 q 329 1058 294 1058 l 329 1058 q 388 1034 364 1058 q 411 975 411 1010 l 411 975 q 388 917 411 942 q 329 893 364 893 l 329 893 z m 501 1225 l 474 1206 l 231 1489 l 240 1507 l 390 1507 l 501 1225 z "},"ǖ":{"ha":924,"x_min":14,"x_max":896,"o":"m 367 -21 q 193 65 251 -21 q 135 315 135 151 l 135 315 l 135 413 q 108 574 135 526 q 14 628 82 622 l 14 628 l 14 656 q 148 708 94 676 q 251 790 201 740 l 251 790 l 275 781 q 263 626 265 700 q 260 418 260 553 l 260 418 l 260 321 q 303 147 260 207 q 431 86 346 86 l 431 86 q 542 131 490 86 q 649 256 594 176 l 649 256 l 649 413 q 637 535 649 490 q 596 601 625 579 q 514 628 567 624 l 514 628 l 514 656 q 654 707 601 676 q 758 790 707 738 l 758 790 l 782 781 q 769 626 772 700 q 767 418 767 553 l 767 418 l 767 351 q 799 174 767 240 q 896 81 832 108 l 896 81 l 896 49 l 696 -12 q 665 70 676 13 q 650 192 653 128 l 650 192 q 518 35 593 92 q 367 -21 443 -21 l 367 -21 z m 583 893 q 525 917 549 893 q 501 975 501 942 l 501 975 q 525 1034 501 1010 q 583 1058 549 1058 l 583 1058 q 642 1034 618 1058 q 665 975 665 1010 l 665 975 q 642 917 665 942 q 583 893 618 893 l 583 893 z m 329 893 q 271 917 294 893 q 247 975 247 942 l 247 975 q 271 1034 247 1010 q 329 1058 294 1058 l 329 1058 q 388 1034 364 1058 q 411 975 411 1010 l 411 975 q 388 917 411 942 q 329 893 364 893 l 329 893 z m 243 1304 l 242 1374 l 647 1374 l 647 1304 l 243 1304 z "},"ù":{"ha":924,"x_min":14,"x_max":896,"o":"m 367 -21 q 193 65 251 -21 q 135 315 135 151 l 135 315 l 135 413 q 108 574 135 526 q 14 628 82 622 l 14 628 l 14 656 q 148 708 94 676 q 251 790 201 740 l 251 790 l 275 781 q 263 626 265 700 q 260 418 260 553 l 260 418 l 260 321 q 303 147 260 207 q 431 86 346 86 l 431 86 q 542 131 490 86 q 649 256 594 176 l 649 256 l 649 413 q 637 535 649 490 q 596 601 625 579 q 514 628 567 624 l 514 628 l 514 656 q 654 707 601 676 q 758 790 707 738 l 758 790 l 782 781 q 769 626 772 700 q 767 418 767 553 l 767 418 l 767 351 q 799 174 767 240 q 896 81 832 108 l 896 81 l 896 49 l 696 -12 q 665 70 676 13 q 650 192 653 128 l 650 192 q 518 35 593 92 q 367 -21 443 -21 l 367 -21 z m 501 857 l 474 838 l 231 1121 l 240 1139 l 390 1139 l 501 857 z "},"ű":{"ha":924,"x_min":14,"x_max":896,"o":"m 367 -21 q 193 65 251 -21 q 135 315 135 151 l 135 315 l 135 413 q 108 574 135 526 q 14 628 82 622 l 14 628 l 14 656 q 148 708 94 676 q 251 790 201 740 l 251 790 l 275 781 q 263 626 265 700 q 260 418 260 553 l 260 418 l 260 321 q 303 147 260 207 q 431 86 346 86 l 431 86 q 542 131 490 86 q 649 256 594 176 l 649 256 l 649 413 q 637 535 649 490 q 596 601 625 579 q 514 628 567 624 l 514 628 l 514 656 q 654 707 601 676 q 758 790 707 738 l 758 790 l 782 781 q 769 626 772 700 q 767 418 767 553 l 767 418 l 767 351 q 799 174 767 240 q 896 81 832 108 l 896 81 l 896 49 l 696 -12 q 665 70 676 13 q 650 192 653 128 l 650 192 q 518 35 593 92 q 367 -21 443 -21 l 367 -21 z m 340 867 l 292 1163 l 432 1163 l 372 868 l 340 867 z m 546 867 l 497 1163 l 638 1163 l 578 868 l 546 867 z "},"ū":{"ha":924,"x_min":14,"x_max":896,"o":"m 367 -21 q 193 65 251 -21 q 135 315 135 151 l 135 315 l 135 413 q 108 574 135 526 q 14 628 82 622 l 14 628 l 14 656 q 148 708 94 676 q 251 790 201 740 l 251 790 l 275 781 q 263 626 265 700 q 260 418 260 553 l 260 418 l 260 321 q 303 147 260 207 q 431 86 346 86 l 431 86 q 542 131 490 86 q 649 256 594 176 l 649 256 l 649 413 q 637 535 649 490 q 596 601 625 579 q 514 628 567 624 l 514 628 l 514 656 q 654 707 601 676 q 758 790 707 738 l 758 790 l 782 781 q 769 626 772 700 q 767 418 767 553 l 767 418 l 767 351 q 799 174 767 240 q 896 81 832 108 l 896 81 l 896 49 l 696 -12 q 665 70 676 13 q 650 192 653 128 l 650 192 q 518 35 593 92 q 367 -21 443 -21 l 367 -21 z m 243 936 l 242 1006 l 647 1006 l 647 936 l 243 936 z "},"ų":{"ha":924,"x_min":14,"x_max":896,"o":"m 367 -21 q 193 65 251 -21 q 135 315 135 151 l 135 315 l 135 413 q 108 574 135 526 q 14 628 82 622 l 14 628 l 14 656 q 148 708 94 676 q 251 790 201 740 l 251 790 l 275 781 q 263 626 265 700 q 260 418 260 553 l 260 418 l 260 321 q 303 147 260 207 q 431 86 346 86 l 431 86 q 542 131 490 86 q 649 256 594 176 l 649 256 l 649 413 q 637 535 649 490 q 596 601 625 579 q 514 628 567 624 l 514 628 l 514 656 q 654 707 601 676 q 758 790 707 738 l 758 790 l 782 781 q 769 626 772 700 q 767 418 767 553 l 767 418 l 767 351 q 799 174 767 240 q 896 81 832 108 l 896 81 l 896 49 l 779 13 l 786 11 q 649 -108 649 -33 l 649 -108 q 672 -162 649 -142 q 736 -182 696 -182 l 736 -182 q 858 -118 790 -182 l 858 -118 l 882 -142 q 807 -226 856 -186 q 693 -267 758 -267 l 693 -267 q 599 -230 636 -267 q 563 -143 563 -193 l 563 -143 q 597 -56 563 -94 q 683 10 631 -17 l 683 10 q 661 90 669 40 q 650 192 653 139 l 650 192 q 518 35 593 92 q 367 -21 443 -21 l 367 -21 z "},"ů":{"ha":924,"x_min":14,"x_max":896,"o":"m 367 -21 q 193 65 251 -21 q 135 315 135 151 l 135 315 l 135 413 q 108 574 135 526 q 14 628 82 622 l 14 628 l 14 656 q 148 708 94 676 q 251 790 201 740 l 251 790 l 275 781 q 263 626 265 700 q 260 418 260 553 l 260 418 l 260 321 q 303 147 260 207 q 431 86 346 86 l 431 86 q 542 131 490 86 q 649 256 594 176 l 649 256 l 649 413 q 637 535 649 490 q 596 601 625 579 q 514 628 567 624 l 514 628 l 514 656 q 654 707 601 676 q 758 790 707 738 l 758 790 l 782 781 q 769 626 772 700 q 767 418 767 553 l 767 418 l 767 351 q 799 174 767 240 q 896 81 832 108 l 896 81 l 896 49 l 696 -12 q 665 70 676 13 q 650 192 653 128 l 650 192 q 518 35 593 92 q 367 -21 443 -21 l 367 -21 z m 344 890 q 299 1006 299 939 l 299 1006 q 310 1067 299 1038 q 344 1119 322 1097 l 344 1119 q 460 1165 393 1165 l 460 1165 q 572 1119 526 1165 l 572 1119 q 619 1004 619 1072 l 619 1004 q 572 892 619 938 l 572 892 q 518 857 549 869 q 456 844 488 844 l 456 844 q 344 890 389 844 l 344 890 z m 383 929 q 454 900 411 900 l 454 900 q 533 931 500 900 l 533 931 q 564 1004 564 960 l 564 1004 q 533 1081 564 1050 l 533 1081 q 501 1102 521 1094 q 461 1110 482 1110 l 461 1110 q 383 1081 415 1110 l 383 1081 q 353 1007 353 1051 l 353 1007 q 383 929 353 960 l 383 929 z "},"v":{"ha":857,"x_min":-42,"x_max":899,"o":"m -36 764 q 171 754 82 754 l 171 754 q 349 764 233 754 l 349 764 l 354 725 q 281 647 281 710 l 281 647 q 315 531 281 603 l 315 531 l 483 179 l 647 539 q 667 617 667 582 l 667 617 q 639 687 667 658 q 556 725 611 715 l 556 725 l 561 764 q 703 754 660 754 l 703 754 q 893 764 797 754 l 893 764 l 899 725 q 777 642 819 688 q 699 517 735 597 l 699 517 l 454 -21 l 425 -21 l 172 506 q 81 648 129 597 q -42 725 33 699 l -42 725 l -36 764 z "},"w":{"ha":1232,"x_min":-42,"x_max":1274,"o":"m -36 764 q 171 754 82 754 l 171 754 q 349 764 233 754 l 349 764 l 354 725 q 275 639 275 710 l 275 639 q 303 531 275 597 l 303 531 l 440 210 l 638 776 l 667 776 l 910 213 l 1022 539 q 1038 617 1038 582 l 1038 617 q 931 725 1038 706 l 931 725 l 936 764 q 1078 754 1035 754 l 1078 754 q 1268 764 1172 754 l 1268 764 l 1274 725 q 1144 640 1189 686 q 1074 517 1100 594 l 1074 517 l 886 -21 l 860 -21 l 617 543 l 417 -21 l 388 -21 l 163 506 q 78 649 122 599 q -42 725 33 699 l -42 725 l -36 764 z "},"ẃ":{"ha":1232,"x_min":-42,"x_max":1274,"o":"m -36 764 q 171 754 82 754 l 171 754 q 349 764 233 754 l 349 764 l 354 725 q 275 639 275 710 l 275 639 q 303 531 275 597 l 303 531 l 440 210 l 638 776 l 667 776 l 910 213 l 1022 539 q 1038 617 1038 582 l 1038 617 q 931 725 1038 706 l 931 725 l 936 764 q 1078 754 1035 754 l 1078 754 q 1268 764 1172 754 l 1268 764 l 1274 725 q 1144 640 1189 686 q 1074 517 1100 594 l 1074 517 l 886 -21 l 860 -21 l 617 543 l 417 -21 l 388 -21 l 163 506 q 78 649 122 599 q -42 725 33 699 l -42 725 l -36 764 z m 588 857 l 699 1139 l 849 1139 l 858 1121 l 615 838 l 588 857 z "},"ŵ":{"ha":1232,"x_min":-42,"x_max":1274,"o":"m -36 764 q 171 754 82 754 l 171 754 q 349 764 233 754 l 349 764 l 354 725 q 275 639 275 710 l 275 639 q 303 531 275 597 l 303 531 l 440 210 l 638 776 l 667 776 l 910 213 l 1022 539 q 1038 617 1038 582 l 1038 617 q 931 725 1038 706 l 931 725 l 936 764 q 1078 754 1035 754 l 1078 754 q 1268 764 1172 754 l 1268 764 l 1274 725 q 1144 640 1189 686 q 1074 517 1100 594 l 1074 517 l 886 -21 l 860 -21 l 617 543 l 417 -21 l 388 -21 l 163 506 q 78 649 122 599 q -42 725 33 699 l -42 725 l -36 764 z m 410 857 l 646 1133 l 663 1133 l 899 857 l 871 838 l 654 988 l 438 838 l 410 857 z "},"ẅ":{"ha":1232,"x_min":-42,"x_max":1274,"o":"m -36 764 q 171 754 82 754 l 171 754 q 349 764 233 754 l 349 764 l 354 725 q 275 639 275 710 l 275 639 q 303 531 275 597 l 303 531 l 440 210 l 638 776 l 667 776 l 910 213 l 1022 539 q 1038 617 1038 582 l 1038 617 q 931 725 1038 706 l 931 725 l 936 764 q 1078 754 1035 754 l 1078 754 q 1268 764 1172 754 l 1268 764 l 1274 725 q 1144 640 1189 686 q 1074 517 1100 594 l 1074 517 l 886 -21 l 860 -21 l 617 543 l 417 -21 l 388 -21 l 163 506 q 78 649 122 599 q -42 725 33 699 l -42 725 l -36 764 z m 778 893 q 719 917 743 893 q 696 975 696 942 l 696 975 q 719 1034 696 1010 q 778 1058 743 1058 l 778 1058 q 836 1034 813 1058 q 860 975 860 1010 l 860 975 q 836 917 860 942 q 778 893 813 893 l 778 893 z m 524 893 q 465 917 489 893 q 442 975 442 942 l 442 975 q 465 1034 442 1010 q 524 1058 489 1058 l 524 1058 q 582 1034 558 1058 q 606 975 606 1010 l 606 975 q 582 917 606 942 q 524 893 558 893 l 524 893 z "},"ẁ":{"ha":1232,"x_min":-42,"x_max":1274,"o":"m -36 764 q 171 754 82 754 l 171 754 q 349 764 233 754 l 349 764 l 354 725 q 275 639 275 710 l 275 639 q 303 531 275 597 l 303 531 l 440 210 l 638 776 l 667 776 l 910 213 l 1022 539 q 1038 617 1038 582 l 1038 617 q 931 725 1038 706 l 931 725 l 936 764 q 1078 754 1035 754 l 1078 754 q 1268 764 1172 754 l 1268 764 l 1274 725 q 1144 640 1189 686 q 1074 517 1100 594 l 1074 517 l 886 -21 l 860 -21 l 617 543 l 417 -21 l 388 -21 l 163 506 q 78 649 122 599 q -42 725 33 699 l -42 725 l -36 764 z m 696 857 l 668 838 l 425 1121 l 435 1139 l 585 1139 l 696 857 z "},"x":{"ha":903,"x_min":11,"x_max":889,"o":"m 14 29 q 156 111 96 67 q 265 213 217 156 l 265 213 l 388 358 l 269 522 q 156 644 222 589 q 11 725 89 700 l 11 725 l 17 764 q 183 754 135 754 l 183 754 q 415 764 300 754 l 415 764 l 421 725 q 363 704 381 717 q 344 674 344 692 l 344 674 q 358 633 344 656 q 389 587 371 611 q 413 554 407 563 l 413 554 l 476 464 l 544 544 q 603 658 603 614 l 603 658 q 518 725 603 711 l 518 725 l 524 764 q 579 758 538 763 q 660 754 621 754 l 660 754 q 850 764 754 754 l 850 764 l 856 725 q 711 633 778 689 q 579 500 644 576 l 579 500 l 510 418 l 658 211 q 759 100 706 146 q 889 29 813 54 l 889 29 l 883 -10 q 676 0 765 0 l 676 0 q 471 -10 586 0 l 471 -10 l 465 29 q 560 85 560 38 l 560 85 q 515 179 560 117 l 515 179 l 421 311 l 300 168 q 258 89 258 121 l 258 89 q 351 29 258 44 l 351 29 l 346 -10 q 181 0 247 0 l 181 0 q 19 -10 115 0 l 19 -10 l 14 29 z "},"y":{"ha":850,"x_min":-35,"x_max":892,"o":"m 3 -139 q 117 -154 67 -154 l 117 -154 q 365 0 285 -154 l 365 0 l 400 67 l 175 517 q 91 641 138 593 q -35 725 44 689 l -35 725 l -29 764 q 178 754 89 754 l 178 754 q 410 764 294 754 l 410 764 l 415 725 q 326 690 354 714 q 297 628 297 665 l 297 628 q 324 533 297 586 l 324 533 l 476 215 l 643 538 q 663 606 663 576 l 663 606 q 626 683 663 651 q 525 725 589 714 l 525 725 l 531 764 q 696 754 629 754 l 696 754 q 886 764 790 754 l 886 764 l 892 725 q 778 642 818 690 q 697 515 738 593 l 697 515 l 243 -347 l 213 -347 q -12 -165 122 -236 l -12 -165 l 3 -139 z "}}}
